<svg xmlns="http://www.w3.org/2000/svg" viewBox="0 0 502.45 193"><defs><style>.cls-1{fill:#fff;stroke:#1d1d1b;stroke-miterlimit:10;}</style></defs><title>Asset 1</title><g id="Layer_2" data-name="Layer 2"><g id="bolt_icon" data-name="bolt icon"><path class="cls-1" d="M164.27,163.41,203.41,56.05a.5.5,0,0,1,.05-.13,24.43,24.43,0,0,0,1.82-8.73,12.79,12.79,0,0,0-4.17-10.13c-1.65-1.6-4.69-3.56-12-3.56H123.93a7,7,0,0,1-6.33-9.2l5.86-16.68a10.64,10.64,0,0,0,.61-3.33c0-1.54-.27-2.61-.72-3s-1.72-.76-4-.76H75a15.35,15.35,0,0,0-9.44,3.08,16.16,16.16,0,0,0-6.38,8.08,1.11,1.11,0,0,1-.07.16l-57,156.05A28.17,28.17,0,0,0,.5,176.71c0,4.56,1.4,8.48,4.17,11.17a16.42,16.42,0,0,0,12,4.62H126.21c7.18,0,14.73-3.13,22.44-8.82A44,44,0,0,0,164.27,163.41Zm-23-108.55L97.61,175a6.81,6.81,0,0,1-6.3,4.53H70.44a6.87,6.87,0,0,1-6.3-9.17L107.85,50.12a6.9,6.9,0,0,1,6.29-4.62H135a6.9,6.9,0,0,1,5.49,3A7.09,7.09,0,0,1,141.31,54.86Z"/><path class="cls-1" d="M468.81,30.59a6.92,6.92,0,0,1-1-6l5.14-16.73c.08-.26.18-.53.28-.77A7.57,7.57,0,0,0,474,4a4.06,4.06,0,0,0-.63-2.72c-.45-.41-1.71-.74-4-.74H424.87a15.35,15.35,0,0,0-9.44,3.08,19,19,0,0,0-6.78,8.66l-5.82,16.63a6.84,6.84,0,0,1-6.32,4.63H268.73A37.13,37.13,0,0,0,246,41.25c-7.75,5.71-12.86,12.07-15.63,19.62l-45,123.36a11.75,11.75,0,0,0-.61,3.53c0,1.63.29,3.1.81,3.6a6.1,6.1,0,0,0,3.9,1.14h28.05c7.18,0,14.73-3.13,22.43-8.82s12.9-12.28,15.63-19.74L297,50.15a7,7,0,0,1,6.3-4.65h83.85a7,7,0,0,1,6.31,9.25L352.65,168.13a27.58,27.58,0,0,0-1.59,8.72c0,4.56,1.37,8.37,4.17,11.1a16.38,16.38,0,0,0,12,4.55H472.07l4.61-13H421a6.87,6.87,0,0,1-6.3-9.16L458.4,49.8a6.6,6.6,0,0,1,6.3-4.3h32.53l4.5-12H474.2A6.85,6.85,0,0,1,468.81,30.59Z"/></g></g></svg>