<svg xmlns="http://www.w3.org/2000/svg" xmlns:xlink="http://www.w3.org/1999/xlink" viewBox="0 0 414.43 56.35"><defs><style>.cls-1,.cls-2,.cls-3,.cls-4,.cls-5,.cls-6,.cls-7,.cls-8{stroke:#231f20;stroke-miterlimit:10;}.cls-1{fill:url(#linear-gradient);}.cls-2{fill:url(#linear-gradient-2);}.cls-3{fill:url(#linear-gradient-3);}.cls-4{fill:url(#linear-gradient-4);}.cls-5{fill:url(#linear-gradient-5);}.cls-6{fill:url(#linear-gradient-6);}.cls-7{fill:url(#linear-gradient-7);}.cls-8{fill:url(#linear-gradient-8);}</style><linearGradient id="linear-gradient" x1="32.99" y1="54.65" x2="32.99" y2="0.94" gradientUnits="userSpaceOnUse"><stop offset="0" stop-color="#be65a8"/><stop offset="1" stop-color="#fff"/></linearGradient><linearGradient id="linear-gradient-2" x1="90.6" y1="55.85" x2="90.6" y2="0.79" xlink:href="#linear-gradient"/><linearGradient id="linear-gradient-3" x1="136.23" y1="55.48" x2="136.23" y2="0.94" xlink:href="#linear-gradient"/><linearGradient id="linear-gradient-4" x1="180.87" y1="55.48" x2="180.87" y2="0.94" xlink:href="#linear-gradient"/><linearGradient id="linear-gradient-5" x1="231.76" y1="55.85" x2="231.76" y2="0.79" xlink:href="#linear-gradient"/><linearGradient id="linear-gradient-6" x1="275.46" y1="54.65" x2="275.46" y2="0.94" xlink:href="#linear-gradient"/><linearGradient id="linear-gradient-7" x1="334.45" y1="54.65" x2="334.45" y2="0.79" xlink:href="#linear-gradient"/><linearGradient id="linear-gradient-8" x1="381.44" y1="54.65" x2="381.44" y2="0.5" xlink:href="#linear-gradient"/></defs><title>Asset 1</title><g id="Layer_2" data-name="Layer 2"><g id="Layer_1-2" data-name="Layer 1"><path class="cls-1" d="M41.14,27.87H29.4L21.27,54.65H5.07l8-26.21A28.51,28.51,0,0,0,6.43,30.6a14.18,14.18,0,0,0-4.6,3.46.8.8,0,0,1-.9.36c-.36-.1-.5-.31-.4-.65q1.73-3.24,3.35-5.94A32.92,32.92,0,0,1,7.33,23a20,20,0,0,1,4-3.53,15.17,15.17,0,0,1,5.07-2.08L21.48,1H37.54L32.86,16.49H44.59L49.35.94H65.47L49.2,54.58H32.93Z"/><path class="cls-2" d="M103.92,32.11H83.62c-.24,1.11-.53,2.21-.87,3.32A21.52,21.52,0,0,0,82,38.74a2.42,2.42,0,0,0,.65,1.94,2.84,2.84,0,0,0,1.8,1.08,67.65,67.65,0,0,0,12.31.76A76.69,76.69,0,0,0,109,41.19l-3.81,13.32a114.89,114.89,0,0,1-30.1.64,9.62,9.62,0,0,1-5.51-2.23,12,12,0,0,1-3.2-4.53,18.05,18.05,0,0,1-1.26-5.76,24.72,24.72,0,0,1,.32-5.84A96.45,96.45,0,0,1,68,26,91.41,91.41,0,0,1,71.88,15.7a14,14,0,0,1-2.12.57c-.75.15-1.51.34-2.31.58a13.52,13.52,0,0,0-2.44,1A10.42,10.42,0,0,0,62.45,20a.57.57,0,0,1-.36.21.82.82,0,0,1-.79,0,.39.39,0,0,1-.22-.61A46.31,46.31,0,0,1,66,12,32.06,32.06,0,0,1,72.24,6a27.88,27.88,0,0,1,7.67-3.85A30.14,30.14,0,0,1,89.23.79h31l-3.88,12.89H93.41a3.31,3.31,0,0,0-2.38.9,8.66,8.66,0,0,0-1.62,2.2,25.47,25.47,0,0,0-1.22,2.7,10.89,10.89,0,0,1-1.26,2.41c.43-.05.95-.08,1.55-.11s1.57,0,2.91,0l5.8,0q3.7,0,9.9,0Z"/><path class="cls-3" d="M132.14,40.32a3.58,3.58,0,0,0,2,1.37,54.09,54.09,0,0,0,12.09.5,92.64,92.64,0,0,0,12-1.65l-3.82,13.32A109.88,109.88,0,0,1,139,55.44a84.39,84.39,0,0,1-14.76-.86q-6.33-.8-8.67-5.51t-.18-12.92c0-.29.12-.63.21-1s.27-1,.51-1.84.56-2,1-3.49,1-3.49,1.73-6,1.69-5.64,2.84-9.36,2.55-8.22,4.18-13.5h16.05l-9.07,30c-.24,1.25-.51,2.45-.83,3.6a19.9,19.9,0,0,0-.61,3.6A2.88,2.88,0,0,0,132.14,40.32Z"/><path class="cls-4" d="M176.78,40.32a3.58,3.58,0,0,0,1.95,1.37,54.09,54.09,0,0,0,12.09.5,92.64,92.64,0,0,0,12-1.65L199,53.86a109.88,109.88,0,0,1-15.34,1.58,84.39,84.39,0,0,1-14.76-.86q-6.33-.8-8.67-5.51T160,36.15c.05-.29.12-.63.21-1s.27-1,.51-1.84.56-2,1-3.49,1-3.49,1.73-6,1.69-5.64,2.84-9.36,2.55-8.22,4.18-13.5H186.5l-9.07,30c-.24,1.25-.51,2.45-.83,3.6a19.9,19.9,0,0,0-.61,3.6A2.88,2.88,0,0,0,176.78,40.32Z"/><path class="cls-5" d="M221.82,40.54a3.43,3.43,0,0,0,1.84,1,81.66,81.66,0,0,0,12.06.82,64.38,64.38,0,0,0,11.91-1.18l-3.81,13.32a114.4,114.4,0,0,1-30,.64,9.65,9.65,0,0,1-5.51-2.23,12,12,0,0,1-3.2-4.53,18.93,18.93,0,0,1-1.3-5.76,23.75,23.75,0,0,1,.29-5.84c.39-2,.87-4.32,1.44-6.91a79.79,79.79,0,0,1,2.2-7.88,68.39,68.39,0,0,1,3.13-7.81,31.87,31.87,0,0,1,4.28-6.81,20.52,20.52,0,0,1,5.66-4.79A14.31,14.31,0,0,1,228,.79H259.8l-3.89,12.89H232.08a3.71,3.71,0,0,0-2,.61,4.35,4.35,0,0,0-1.44,1.55,58.53,58.53,0,0,0-7.41,22.9A2.08,2.08,0,0,0,221.82,40.54Z"/><path class="cls-6" d="M271.46,43.27,265,54.65H248.06l26.07-43.49a28.64,28.64,0,0,1,4.35-5.72,19.74,19.74,0,0,1,3.93-3.06,10.25,10.25,0,0,1,3.09-1.23,13.58,13.58,0,0,1,1.8-.21h15.56V54.65H288V43.27Zm16.78-9.72V13.32l-11.3,20.23Z"/><path class="cls-7" d="M358.3,13.68H344.9l-12.38,41H316.25l12.52-41a70.15,70.15,0,0,0-9.1.25A23.39,23.39,0,0,0,314,15.19a10.84,10.84,0,0,0-3.49,2.09A26,26,0,0,0,308,20a.82.82,0,0,1-.9.28.47.47,0,0,1-.4-.64q2.38-4.55,4.68-8.07a24.8,24.8,0,0,1,5.37-5.94A21,21,0,0,1,324.06,2,36.72,36.72,0,0,1,334.53.79V.94h27.65Z"/><path class="cls-8" d="M380.61,10.73A38.26,38.26,0,0,0,369,12.28,14.88,14.88,0,0,0,361.68,17a.88.88,0,0,1-.9.33c-.36-.07-.49-.3-.4-.69A69.68,69.68,0,0,1,365,9,17.82,17.82,0,0,1,377,1.23,52.58,52.58,0,0,1,387.38.51V.58h26.35l-3.31,9.93L372.12,45h27.79l-3.17,9.65H349.15l3-9.43,38.3-34.35Z"/></g></g></svg>