<svg xmlns="http://www.w3.org/2000/svg" viewBox="0 0 461.91 465.27"><defs><style>.cls-1{fill:#a7a6a6;}.cls-2{isolation:isolate;}.cls-3{fill:#92411a;}.cls-4{fill:#90411a;}.cls-5{fill:#94431b;}.cls-6{fill:#d76127;}</style></defs><title>Asset 2</title><g id="Layer_2" data-name="Layer 2"><g id="bolt_icon" data-name="bolt icon"><path class="cls-1" d="M162.06,420.84l11.7-45.74A154.85,154.85,0,0,1,205.83,78.64l34.44-49.8a32.5,32.5,0,0,1-9.67,1.41h0A32.58,32.58,0,0,1,198,0a234.15,234.15,0,0,0-25.7,5.14,32.64,32.64,0,0,1-18.38,40.53,32.4,32.4,0,0,1-12.54,2.53,32.65,32.65,0,0,1-29.18-18A234,234,0,0,0,90.43,44.81a32.63,32.63,0,0,1-46,46.1A233.55,233.55,0,0,0,29.9,112.72,32.64,32.64,0,0,1,5,172.9a233,233,0,0,0-5,25.65A32.54,32.54,0,0,1,30.4,231,32.54,32.54,0,0,1,0,263.47a231.2,231.2,0,0,0,5.13,25.95,32.64,32.64,0,0,1,25,60.13A233.79,233.79,0,0,0,44.82,371.4a32.6,32.6,0,0,1,46,45.94,231.85,231.85,0,0,0,21.79,14.54,32.66,32.66,0,0,1,49.42-11Z"/><path class="cls-1" d="M431.64,230.91v-.45a32.6,32.6,0,0,1,30.2-32.62,231.88,231.88,0,0,0-5.16-25.7,32.64,32.64,0,0,1-25.09-60.08A234.23,234.23,0,0,0,417,90.3a32.64,32.64,0,0,1-46.13-46A232,232,0,0,0,349,29.81a32.67,32.67,0,0,1-29.23,18.1,32.5,32.5,0,0,1-12-2.29L295.61,90.45a154.88,154.88,0,0,1-25.84,290.93L235,431.7a32.65,32.65,0,0,1,28.63,30.11,234,234,0,0,0,25.7-5.08,32.64,32.64,0,0,1,60.14-25,231.93,231.93,0,0,0,21.77-14.58,32.63,32.63,0,0,1,46-46.05,233.54,233.54,0,0,0,14.58-21.79,32.63,32.63,0,0,1,24.94-60.14,232.6,232.6,0,0,0,5.12-25.72A32.58,32.58,0,0,1,431.64,230.91Z"/><g class="cls-2"><polygon class="cls-3" points="197.59 465.27 174.79 452.87 219.9 257.37 242.69 269.77 197.59 465.27"/><polygon class="cls-4" points="247.01 211.53 224.22 199.13 333.5 183.77 356.29 196.17 247.01 211.53"/><polygon class="cls-5" points="136.13 284.75 113.33 272.35 272.34 3.19 295.13 15.59 136.13 284.75"/><polygon class="cls-6" points="356.29 196.17 197.59 465.27 242.69 269.77 136.13 284.75 295.13 15.59 247.01 211.53 356.29 196.17"/></g></g></g></svg>