<?xml version="1.0" encoding="utf-8"?>
<!-- Generator: Adobe Illustrator 23.0.1, SVG Export Plug-In . SVG Version: 6.00 Build 0)  -->
<svg version="1.1" id="Layer_1" xmlns="http://www.w3.org/2000/svg" xmlns:xlink="http://www.w3.org/1999/xlink" x="0px" y="0px"
	 viewBox="0 0 893.1 156.3" style="enable-background:new 0 0 893.1 156.3;" xml:space="preserve">
<style type="text/css">
	.st0{fill:#FFFFFF;}
	.st1{fill:#F15A2C;}
</style>
<title>Asset 1</title>
<g>
	<g id="Layer_1-2">
		<path class="st0" d="M107.9,53.5c0,12.8-8.6,22.7-22,22.7H64.1V30.8h21.8C99.4,30.8,107.9,40.6,107.9,53.5 M141.2,53.7
			c0-30.6-23.2-51.1-54.7-51.1H48.7C38,2.6,32,9.2,32,19.2v137.1h32.1v-52h23.7C117.1,104.3,141.3,84.9,141.2,53.7"/>
		<path class="st0" d="M231.7,69.9h-22V32.1h22c11.8,0,19.9,6.6,19.9,18.8C251.6,62.9,243.5,69.9,231.7,69.9 M299.8,156.3l-54.4-65
			c21.8-3.4,39.6-16.9,39.6-40.4c0-33.6-20.3-48.3-53.2-48.3h-37.7c-10.7,0-16.5,6.4-16.5,16.7v137.1h32.1V93h0.4l54.1,63.3
			L299.8,156.3z"/>
		<path class="st0" d="M363.3,156.3V18c0-10.7-6.8-16.7-16-16.7s-16,6-16,16.7v138.3H363.3z"/>
		<path class="st0" d="M543,156.3h32.9L552.4,17.8c-1.3-7.7-9.6-16.5-21-16.5c-9.7,0.1-18.2,6.3-21.4,15.4l-25.2,84.7h-0.4
			l-25.2-84.7c-3.2-9.1-11.7-15.3-21.4-15.4c-11.3,0-19.7,8.8-21,16.5l-23.3,138.6h32.9l14.9-102.2h0.4l25.7,89.6
			c1.5,5.1,5.5,12.4,17.1,12.4s15.6-7.3,17.1-12.4l25.7-89.6h0.4L543,156.3z"/>
		<path class="st0" d="M861.1,156.3v-30.6h-53.6V18.4c0-10.7-6.8-16.7-16-16.7s-16,6-16,16.7v120.3c0,10.7,6.2,17.5,16.7,17.5H837
			v0.1H861.1z"/>
		<path class="st1" d="M717,156.3h32.9L700,17.7C696.4,7.5,688.5,0,677.2,0c-10.9,0-19.3,7.9-22.9,17.7l-51,138.6h34.1l39.5-123h0.4
			L717,156.3z"/>
	</g>
</g>
</svg>
