<svg xmlns="http://www.w3.org/2000/svg" viewBox="0 0 829.14 156.33"><defs><style>.cls-1{fill:#fff;}.cls-2{fill:#f15a2c;}</style></defs><title>Asset 1</title><g id="Layer_2" data-name="Layer 2"><g id="Layer_1-2" data-name="Layer 1"><path class="cls-1" d="M75.91,53.46c0,12.82-8.55,22.66-22,22.66H32.07V30.79H53.88c13.48,0,22,9.84,22,22.67m33.36.21C109.27,23.09,86,2.56,54.53,2.56H16.68C6,2.56,0,9.19,0,19.24V156.33H32.07v-52H55.81c29.29,0,53.46-19.46,53.46-50.68"/><path class="cls-1" d="M199.71,69.92h-22V32.07h22c11.76,0,19.89,6.63,19.89,18.82,0,12-8.13,19-19.89,19m68.06,86.41-54.38-65C235.21,87.88,253,74.41,253,50.89c0-33.57-20.31-48.33-53.24-48.33H162.08c-10.69,0-16.47,6.42-16.47,16.68V156.33h32.07V93h.43l54.14,63.32Z"/><path class="cls-1" d="M331.3,156.33V18c0-10.69-6.84-16.68-16-16.68s-16,6-16,16.68V156.33Z"/><path class="cls-1" d="M511,156.33h32.92L520.44,17.75c-1.28-7.7-9.62-16.47-21-16.47a22.82,22.82,0,0,0-21.38,15.4l-25.23,84.67h-.43L427.22,16.68a22.85,22.85,0,0,0-21.39-15.4c-11.33,0-19.67,8.77-20.95,16.47L361.62,156.33h32.92L409.47,54.1h.43l25.66,89.59c1.49,5.13,5.55,12.4,17.1,12.4s15.61-7.27,17.11-12.4L495.43,54.1h.42Z"/><path class="cls-1" d="M829.14,156.33V125.74H775.53V18.41c0-10.7-6.84-16.68-16-16.68s-16,6-16,16.68V138.72c0,10.69,6.2,17.53,16.67,17.53h44.75v.08Z"/><path class="cls-2" d="M685,156.33h32.94L668,17.74C664.4,7.48,656.49,0,645.16,0c-10.91,0-19.25,7.91-22.88,17.74l-51,138.59h34.11l39.53-123h.43Z"/></g></g></svg>