<svg xmlns="http://www.w3.org/2000/svg" xmlns:xlink="http://www.w3.org/1999/xlink" viewBox="0 0 751.46 69.5"><defs><style>.cls-1{fill:none;}.cls-2{clip-path:url(#clip-path);}.cls-3{fill:#424545;}.cls-4{fill:#d93330;}</style><clipPath id="clip-path" transform="translate(0 -149.57)"><rect class="cls-1" x="0.21" width="751.76" height="219.07"/></clipPath></defs><title>Asset 2</title><g id="Layer_2" data-name="Layer 2"><g id="Layer_1-2" data-name="Layer 1"><g class="cls-2"><path class="cls-3" d="M19.58,217.53V163.2H0v-4.79a6.7,6.7,0,0,1,2-4.91,6.69,6.69,0,0,1,4.9-2H52.6V163.2H33.21v54.33H19.58" transform="translate(0 -149.57)"/></g><path class="cls-3" d="M60,217.53V158.41a6.88,6.88,0,0,1,6.91-6.92h6.73v24.58h27.26V151.49h13.82v66H100.91V188.16H73.65v29.37H60" transform="translate(0 -149.57)"/><path class="cls-3" d="M122.33,217.53V158.41a6.88,6.88,0,0,1,6.91-6.92h41.09v11.33H135.77V177H161.5v4.41a6.9,6.9,0,0,1-6.92,6.92H135.77v16.88h34.56v12.29h-48" transform="translate(0 -149.57)"/><path class="cls-4" d="M177.55,197H191q.78,5.76,4.42,8.07,3.84,2.69,10.56,2.68c4,0,7-.7,9-2.11a7,7,0,0,0,3.07-6.14q0-6.15-17.27-10l-.39-.2-1.53-.38q-9.8-2.12-13.06-4.42a11.49,11.49,0,0,1-5.37-6.14,17.94,17.94,0,0,1-1.92-8.83q0-9.4,6.52-14.79,6.54-5.17,19-5.18,11.72,0,18.05,5.38A21.3,21.3,0,0,1,229,170.49h-7.68a6.54,6.54,0,0,1-6.34-4,9.47,9.47,0,0,0-2.69-3.26c-2.3-1.66-5.44-2.49-9.4-2.49s-6.6.7-8.26,2.11a7,7,0,0,0-2.88,6q0,5.19,11.14,7.68a32.69,32.69,0,0,0,4.8,1.15c2.3.77,4.32,1.37,6.05,1.82s3.1.81,4.12,1.06l5.38,2.3a16.65,16.65,0,0,1,5.95,6,18.68,18.68,0,0,1,2.11,8.82q0,10.38-6.91,16.13-6.91,5.38-19.58,5.38-13.06,0-19.58-5.56-7.11-5.58-7.68-16.52" transform="translate(0 -149.57)"/><path class="cls-4" d="M252.73,151.3v41.28q0,7.68,2.88,11.32,3.06,3.47,9.79,3.46,6.53,0,9.79-3.46,3.06-3.45,3.07-11.32V151.3h13.63v42.81q0,12.28-6.91,18.63-6.33,6.33-19.58,6.33t-19.59-6.33q-6.9-6.35-6.91-18.63V158.59a7.36,7.36,0,0,1,2-5.09,6.42,6.42,0,0,1,4.89-2.2h6.92" transform="translate(0 -149.57)"/><path class="cls-4" d="M299.3,217.53V158.41a6.88,6.88,0,0,1,6.91-6.92H347.3v11.33H312.74V177h25.73v4.41a6.9,6.9,0,0,1-6.92,6.92H312.74v29.17H299.3" transform="translate(0 -149.57)"/><path class="cls-4" d="M354.52,217.53V158.41a6.86,6.86,0,0,1,6.91-6.92h41.09v11.33H368V177h25.73v4.41a6.88,6.88,0,0,1-6.91,6.92H368v29.17H354.52" transform="translate(0 -149.57)"/><path class="cls-4" d="M409.73,217.53V158.41a6.88,6.88,0,0,1,6.92-6.92h41.08v11.33H423.17V177H448.9v4.41a6.9,6.9,0,0,1-6.92,6.92H423.17v16.88h34.56v12.29h-48" transform="translate(0 -149.57)"/><path class="cls-4" d="M478.58,180.29h15.94c3.45,0,6-.7,7.67-2.12s2.5-3.58,2.5-6.52-.84-5.12-2.5-6.53-3.84-2.3-6.9-2.3H478.58v17.47ZM465,217.53V158.41a6.86,6.86,0,0,1,6.91-6.92H497q10.75,0,15.93,4.61,5.37,4.8,5.38,14a17.92,17.92,0,0,1-2.69,10.18,13,13,0,0,1-7.29,5.56c2.94,1,5,2.57,6.14,4.61s1.86,5.19,2.11,9.8l.38,7.87v2.49a15,15,0,0,0,.2,2.5q.57,3.47,2.3,4.41h-15a11.23,11.23,0,0,1-1.15-4c-.25-2-.38-3.47-.38-4.23l-.19-7.1c-.26-3.85-1-6.59-2.3-8.26-1.42-1.41-3.91-2.11-7.49-2.11h-14.4v25.72H465" transform="translate(0 -149.57)"/><path class="cls-4" d="M527.07,217.53V158.41a6.86,6.86,0,0,1,6.92-6.92h41.08v11.33H540.52V177h25.72v4.41a6.88,6.88,0,0,1-6.91,6.92H540.52v29.17H527.07" transform="translate(0 -149.57)"/><path class="cls-4" d="M582.28,217.53V158.41a6.88,6.88,0,0,1,6.92-6.92h41.08v11.33H595.73V177h25.72v4.41a6.88,6.88,0,0,1-6.91,6.92H595.73v16.88h34.55v12.29h-48" transform="translate(0 -149.57)"/><path class="cls-4" d="M637.5,197h13.44q.76,5.76,4.41,8.07,3.84,2.69,10.57,2.68,5.94,0,9-2.11a7,7,0,0,0,3.07-6.14q0-6.15-17.28-10l-.38-.2-1.54-.38q-9.79-2.12-13-4.42a11.47,11.47,0,0,1-5.38-6.14,18,18,0,0,1-1.92-8.83q0-9.4,6.53-14.79,6.53-5.17,19-5.18,11.7,0,18,5.38a21.33,21.33,0,0,1,6.9,15.54h-7.68a6.52,6.52,0,0,1-6.33-4,9.47,9.47,0,0,0-2.69-3.26q-3.45-2.49-9.41-2.49-5.76,0-8.26,2.11a7,7,0,0,0-2.87,6q0,5.19,11.13,7.68a33,33,0,0,0,4.81,1.15c2.3.77,4.31,1.37,6,1.82s3.1.81,4.13,1.06l5.38,2.3a16.73,16.73,0,0,1,5.95,6,18.79,18.79,0,0,1,2.11,8.82q0,10.38-6.91,16.13-6.93,5.38-19.58,5.38-13.08,0-19.59-5.56-7.09-5.58-7.68-16.52" transform="translate(0 -149.57)"/><path class="cls-4" d="M718.45,217.53V163.2H698.86v-4.79a6.86,6.86,0,0,1,6.91-6.92h45.69V163.2H732.07v54.33H718.45" transform="translate(0 -149.57)"/></g></g></svg>