<?xml version="1.0" encoding="utf-8"?>
<!-- Generator: Adobe Illustrator 23.0.3, SVG Export Plug-In . SVG Version: 6.00 Build 0)  -->
<svg version="1.1" id="Layer_1" xmlns="http://www.w3.org/2000/svg" xmlns:xlink="http://www.w3.org/1999/xlink" x="0px" y="0px"
	 viewBox="0 0 592.1 83.7" style="enable-background:new 0 0 592.1 83.7;" xml:space="preserve">
<style type="text/css">
	.st0{enable-background:new    ;}
	.st1{fill:#FFFFFF;}
	.st2{fill:none;stroke:#1D1D1B;stroke-miterlimit:10;}
</style>
<title>Asset 3</title>
<g>
	<g id="bolt_icon">
		<g class="st0">
			<path class="st1" d="M21.3,67.3c-5,0-9.5-0.2-12.4-0.7c-1.7-0.2-2.5-0.9-2.5-2.8V13.1c0-1.7,0.8-2.7,2.4-2.8
				C11.4,10,16,9.7,20.9,9.7c12.1,0,22.3,3.2,22.3,14.7v1.2c0,5.6-3,10-8.1,11.9c5.2,1.8,8.4,6.5,8.4,12.3v1.3
				C43.5,63.9,33.2,67.3,21.3,67.3z M36.3,24.4c0-7.3-6.1-8.8-15.4-8.8c-2.6,0-5.4,0.2-7.5,0.2v18.8h11.7c8.8,0,11.2-4.3,11.2-9
				V24.4z M36.6,49.9c0-5-2.5-9.7-11.5-9.7H13.4v20.9c2.5,0.1,5.2,0.3,7.9,0.3c9.4,0,15.3-2.1,15.3-10.3V49.9z"/>
			<path class="st1" d="M72.5,67.3c-11.9,0-20.6-7-20.6-23.9v-9.8c0-16.9,8.7-23.9,20.6-23.9S93,16.7,93,33.6v9.8
				C93,60.3,84.4,67.3,72.5,67.3z M86,33.6C86,20.8,80.8,16,72.5,16c-8.3,0-13.6,4.9-13.6,17.6v9.8c0,12.8,5.2,17.6,13.6,17.6
				C80.8,61,86,56.2,86,43.4V33.6z"/>
		</g>
		<g class="st0">
			<path class="st2" d="M21.3,67.3c-5,0-9.5-0.2-12.4-0.7c-1.7-0.2-2.5-0.9-2.5-2.8V13.1c0-1.7,0.8-2.7,2.4-2.8
				C11.4,10,16,9.7,20.9,9.7c12.1,0,22.3,3.2,22.3,14.7v1.2c0,5.6-3,10-8.1,11.9c5.2,1.8,8.4,6.5,8.4,12.3v1.3
				C43.5,63.9,33.2,67.3,21.3,67.3z M36.3,24.4c0-7.3-6.1-8.8-15.4-8.8c-2.6,0-5.4,0.2-7.5,0.2v18.8h11.7c8.8,0,11.2-4.3,11.2-9
				V24.4z M36.6,49.9c0-5-2.5-9.7-11.5-9.7H13.4v20.9c2.5,0.1,5.2,0.3,7.9,0.3c9.4,0,15.3-2.1,15.3-10.3V49.9z"/>
			<path class="st2" d="M72.5,67.3c-11.9,0-20.6-7-20.6-23.9v-9.8c0-16.9,8.7-23.9,20.6-23.9S93,16.7,93,33.6v9.8
				C93,60.3,84.4,67.3,72.5,67.3z M86,33.6C86,20.8,80.8,16,72.5,16c-8.3,0-13.6,4.9-13.6,17.6v9.8c0,12.8,5.2,17.6,13.6,17.6
				C80.8,61,86,56.2,86,43.4V33.6z"/>
		</g>
		<g class="st0">
			<path class="st1" d="M134.5,66.6c-2,0.3-7.7,0.7-14.8,0.7c-8.1,0-16.2-1.6-16.2-14.1V11.8c0-0.8,0.7-1.5,1.5-1.5h3.9
				c0.8,0,1.5,0.7,1.5,1.5v41.3c0,5.8,1.3,7.9,9.3,7.9h14.7c0.5,0,0.8,0.4,0.8,0.9v3.6C135.2,66,134.9,66.5,134.5,66.6z"/>
		</g>
		<g class="st0">
			<path class="st2" d="M134.5,66.6c-2,0.3-7.7,0.7-14.8,0.7c-8.1,0-16.2-1.6-16.2-14.1V11.8c0-0.8,0.7-1.5,1.5-1.5h3.9
				c0.8,0,1.5,0.7,1.5,1.5v41.3c0,5.8,1.3,7.9,9.3,7.9h14.7c0.5,0,0.8,0.4,0.8,0.9v3.6C135.2,66,134.9,66.5,134.5,66.6z"/>
		</g>
		<g class="st0">
			<path class="st1" d="M169.8,16.2H155v49c0,0.8-0.5,1.5-1.4,1.5h-4.2c-0.8,0-1.4-0.7-1.4-1.5v-49h-14.8c-0.8,0-1.5-0.4-1.5-1.2
				v-3.3c0-0.8,0.7-1.4,1.5-1.4h36.6c0.8,0,1.4,0.5,1.4,1.4V15C171.3,15.7,170.7,16.2,169.8,16.2z"/>
			<path class="st1" d="M236.3,66.7h-4.9c-0.9,0-1.4,0-2-1l-13.6-22.7c-0.2,0-0.5,0-0.7,0c-0.5,0-0.8,0-1.3,0
				c-2.5,0-4.3-0.1-8.4-0.2v22.3c0,0.8-0.5,1.5-1.4,1.5H200c-0.8,0-1.4-0.7-1.4-1.5V12c0-1.1,0.5-1.5,1.8-1.7
				c3.3-0.4,9-0.6,13.4-0.6c12,0,21.3,4,21.3,16.3v0.5c0,8.5-5,13.5-11.9,15.4L237,65.1c0.2,0.2,0.2,0.5,0.2,0.7
				C237.2,66.3,236.9,66.7,236.3,66.7z M228.3,26.1c0-7.6-4.9-10.1-14.4-10.1c-2.4,0-6.5,0-8.4,0.2V37c3.3,0.1,6.6,0.2,8.4,0.2
				c9.3,0,14.4-2.4,14.4-10.6V26.1z"/>
			<path class="st1" d="M281.9,66.7h-4.2c-0.8,0-1.4-0.7-1.4-1.5V42.7H253v22.5c0,0.8-0.5,1.5-1.4,1.5h-4.2c-0.8,0-1.4-0.8-1.4-1.5
				V25.5c0-11.6,5.4-15.7,16.3-15.7h4.4c10.9,0,16.3,4.1,16.3,15.7v39.7C283.2,66,282.6,66.7,281.9,66.7z M276.3,25.5
				c0-7.9-2.5-9.7-9.4-9.7h-4.4c-6.9,0-9.4,1.7-9.4,9.7v11.2h23.3V25.5z"/>
			<path class="st1" d="M326.4,66.3c-3.2,0.6-6.2,1-12.6,1c-9.3,0-20.1-5-20.1-23.5V33.2c0-18.6,10.7-23.5,20.1-23.5
				c4.8,0,9.4,0.7,12.8,1.2c0.7,0.1,1.2,0.3,1.2,1v3.9c0,0.5-0.2,0.8-0.9,0.8c-0.1,0-0.2,0-0.2,0c-2.7-0.2-8.4-0.7-12.8-0.7
				c-7.4,0-13.2,4.3-13.2,17.3v10.6c0,12.8,5.8,17.3,13.2,17.3c4.3,0,9.8-0.4,12.5-0.6c0.1,0,0.2,0,0.3,0c0.8,0,1.2,0.4,1.2,1.2v3.1
				C327.9,65.7,327.2,66.1,326.4,66.3z"/>
			<path class="st1" d="M367.5,66.9c-2.9,0.3-10.3,0.4-14.8,0.4c-10.6,0-16.2-4-16.2-14.1V23.9c0-10.1,5.5-14.1,16.2-14.1
				c4.5,0,11.6,0.2,14.8,0.5c0.5,0.1,0.8,0.6,0.8,1.1V15c0,0.5-0.3,0.9-0.8,0.9h-14.7c-8.1,0-9.3,2.1-9.3,7.9v10.6h23.3
				c0.8,0,1.5,0.7,1.5,1.5v2.9c0,0.8-0.7,1.5-1.5,1.5h-23.3v12.8c0,5.8,1.3,7.9,9.3,7.9h14.7c0.5,0,0.8,0.4,0.8,0.9v3.9
				C368.3,66.3,368,66.8,367.5,66.9z"/>
		</g>
		<g class="st0">
			<path class="st2" d="M169.8,16.2H155v49c0,0.8-0.5,1.5-1.4,1.5h-4.2c-0.8,0-1.4-0.7-1.4-1.5v-49h-14.8c-0.8,0-1.5-0.4-1.5-1.2
				v-3.3c0-0.8,0.7-1.4,1.5-1.4h36.6c0.8,0,1.4,0.5,1.4,1.4V15C171.3,15.7,170.7,16.2,169.8,16.2z"/>
			<path class="st2" d="M236.3,66.7h-4.9c-0.9,0-1.4,0-2-1l-13.6-22.7c-0.2,0-0.5,0-0.7,0c-0.5,0-0.8,0-1.3,0
				c-2.5,0-4.3-0.1-8.4-0.2v22.3c0,0.8-0.5,1.5-1.4,1.5H200c-0.8,0-1.4-0.7-1.4-1.5V12c0-1.1,0.5-1.5,1.8-1.7
				c3.3-0.4,9-0.6,13.4-0.6c12,0,21.3,4,21.3,16.3v0.5c0,8.5-5,13.5-11.9,15.4L237,65.1c0.2,0.2,0.2,0.5,0.2,0.7
				C237.2,66.3,236.9,66.7,236.3,66.7z M228.3,26.1c0-7.6-4.9-10.1-14.4-10.1c-2.4,0-6.5,0-8.4,0.2V37c3.3,0.1,6.6,0.2,8.4,0.2
				c9.3,0,14.4-2.4,14.4-10.6V26.1z"/>
			<path class="st2" d="M281.9,66.7h-4.2c-0.8,0-1.4-0.7-1.4-1.5V42.7H253v22.5c0,0.8-0.5,1.5-1.4,1.5h-4.2c-0.8,0-1.4-0.8-1.4-1.5
				V25.5c0-11.6,5.4-15.7,16.3-15.7h4.4c10.9,0,16.3,4.1,16.3,15.7v39.7C283.2,66,282.6,66.7,281.9,66.7z M276.3,25.5
				c0-7.9-2.5-9.7-9.4-9.7h-4.4c-6.9,0-9.4,1.7-9.4,9.7v11.2h23.3V25.5z"/>
			<path class="st2" d="M326.4,66.3c-3.2,0.6-6.2,1-12.6,1c-9.3,0-20.1-5-20.1-23.5V33.2c0-18.6,10.7-23.5,20.1-23.5
				c4.8,0,9.4,0.7,12.8,1.2c0.7,0.1,1.2,0.3,1.2,1v3.9c0,0.5-0.2,0.8-0.9,0.8c-0.1,0-0.2,0-0.2,0c-2.7-0.2-8.4-0.7-12.8-0.7
				c-7.4,0-13.2,4.3-13.2,17.3v10.6c0,12.8,5.8,17.3,13.2,17.3c4.3,0,9.8-0.4,12.5-0.6c0.1,0,0.2,0,0.3,0c0.8,0,1.2,0.4,1.2,1.2v3.1
				C327.9,65.7,327.2,66.1,326.4,66.3z"/>
			<path class="st2" d="M367.5,66.9c-2.9,0.3-10.3,0.4-14.8,0.4c-10.6,0-16.2-4-16.2-14.1V23.9c0-10.1,5.5-14.1,16.2-14.1
				c4.5,0,11.6,0.2,14.8,0.5c0.5,0.1,0.8,0.6,0.8,1.1V15c0,0.5-0.3,0.9-0.8,0.9h-14.7c-8.1,0-9.3,2.1-9.3,7.9v10.6h23.3
				c0.8,0,1.5,0.7,1.5,1.5v2.9c0,0.8-0.7,1.5-1.5,1.5h-23.3v12.8c0,5.8,1.3,7.9,9.3,7.9h14.7c0.5,0,0.8,0.4,0.8,0.9v3.9
				C368.3,66.3,368,66.8,367.5,66.9z"/>
		</g>
		<g class="st0">
			<path class="st1" d="M431.9,16.2h-14.8v49c0,0.8-0.5,1.5-1.4,1.5h-4.2c-0.8,0-1.4-0.7-1.4-1.5v-49h-14.8c-0.8,0-1.5-0.4-1.5-1.2
				v-3.3c0-0.8,0.7-1.4,1.5-1.4h36.6c0.8,0,1.4,0.5,1.4,1.4V15C433.4,15.7,432.8,16.2,431.9,16.2z"/>
		</g>
		<g class="st0">
			<path class="st2" d="M431.9,16.2h-14.8v49c0,0.8-0.5,1.5-1.4,1.5h-4.2c-0.8,0-1.4-0.7-1.4-1.5v-49h-14.8c-0.8,0-1.5-0.4-1.5-1.2
				v-3.3c0-0.8,0.7-1.4,1.5-1.4h36.6c0.8,0,1.4,0.5,1.4,1.4V15C433.4,15.7,432.8,16.2,431.9,16.2z"/>
		</g>
		<g class="st0">
			<path class="st1" d="M471.4,66.9c-2.9,0.3-10.3,0.4-14.8,0.4c-10.6,0-16.2-4-16.2-14.1V23.9c0-10.1,5.5-14.1,16.2-14.1
				c4.5,0,11.6,0.2,14.8,0.5c0.5,0.1,0.8,0.6,0.8,1.1V15c0,0.5-0.3,0.9-0.8,0.9h-14.7c-8.1,0-9.3,2.1-9.3,7.9v10.6h23.3
				c0.8,0,1.5,0.7,1.5,1.5v2.9c0,0.8-0.7,1.5-1.5,1.5h-23.3v12.8c0,5.8,1.3,7.9,9.3,7.9h14.7c0.5,0,0.8,0.4,0.8,0.9v3.9
				C472.2,66.3,471.9,66.8,471.4,66.9z"/>
			<path class="st1" d="M518,66.7h-4.2c-0.8,0-1.4-0.7-1.4-1.5V42.7h-23.3v22.5c0,0.8-0.5,1.5-1.4,1.5h-4.2c-0.8,0-1.4-0.8-1.4-1.5
				V25.5c0-11.6,5.4-15.7,16.3-15.7h4.4c10.9,0,16.3,4.1,16.3,15.7v39.7C519.4,66,518.7,66.7,518,66.7z M512.4,25.5
				c0-7.9-2.5-9.7-9.4-9.7h-4.4c-6.9,0-9.4,1.7-9.4,9.7v11.2h23.3V25.5z"/>
			<path class="st1" d="M584.6,66.7h-4.3c-0.8,0-1.4-0.7-1.4-1.5V32c0-14.2-3.6-16.1-17-16.1v49.3c0,0.8-0.5,1.5-1.4,1.5h-4.2
				c-0.8,0-1.4-0.7-1.4-1.5V15.9c-13.4,0-17,1.9-17,16.1v33.2c0,0.8-0.5,1.5-1.4,1.5h-4.3c-0.8,0-1.4-0.7-1.4-1.5V32
				c0-19.5,8-22.3,27.5-22.3s27.4,2.8,27.4,22.3v33.2C585.9,66,585.4,66.7,584.6,66.7z"/>
		</g>
		<g class="st0">
			<path class="st2" d="M471.4,66.9c-2.9,0.3-10.3,0.4-14.8,0.4c-10.6,0-16.2-4-16.2-14.1V23.9c0-10.1,5.5-14.1,16.2-14.1
				c4.5,0,11.6,0.2,14.8,0.5c0.5,0.1,0.8,0.6,0.8,1.1V15c0,0.5-0.3,0.9-0.8,0.9h-14.7c-8.1,0-9.3,2.1-9.3,7.9v10.6h23.3
				c0.8,0,1.5,0.7,1.5,1.5v2.9c0,0.8-0.7,1.5-1.5,1.5h-23.3v12.8c0,5.8,1.3,7.9,9.3,7.9h14.7c0.5,0,0.8,0.4,0.8,0.9v3.9
				C472.2,66.3,471.9,66.8,471.4,66.9z"/>
			<path class="st2" d="M518,66.7h-4.2c-0.8,0-1.4-0.7-1.4-1.5V42.7h-23.3v22.5c0,0.8-0.5,1.5-1.4,1.5h-4.2c-0.8,0-1.4-0.8-1.4-1.5
				V25.5c0-11.6,5.4-15.7,16.3-15.7h4.4c10.9,0,16.3,4.1,16.3,15.7v39.7C519.4,66,518.7,66.7,518,66.7z M512.4,25.5
				c0-7.9-2.5-9.7-9.4-9.7h-4.4c-6.9,0-9.4,1.7-9.4,9.7v11.2h23.3V25.5z"/>
			<path class="st2" d="M584.6,66.7h-4.3c-0.8,0-1.4-0.7-1.4-1.5V32c0-14.2-3.6-16.1-17-16.1v49.3c0,0.8-0.5,1.5-1.4,1.5h-4.2
				c-0.8,0-1.4-0.7-1.4-1.5V15.9c-13.4,0-17,1.9-17,16.1v33.2c0,0.8-0.5,1.5-1.4,1.5h-4.3c-0.8,0-1.4-0.7-1.4-1.5V32
				c0-19.5,8-22.3,27.5-22.3s27.4,2.8,27.4,22.3v33.2C585.9,66,585.4,66.7,584.6,66.7z"/>
		</g>
	</g>
</g>
</svg>
