<svg xmlns="http://www.w3.org/2000/svg" viewBox="0 0 477.19 45.32"><defs><style>.cls-1,.cls-3{stroke:#000;stroke-miterlimit:10;}.cls-1{stroke-width:3px;}.cls-2{fill:#f90;}.cls-3{fill:#96999b;}</style></defs><title>Asset 6</title><g id="Layer_2" data-name="Layer 2"><g id="Layer_1-2" data-name="Layer 1"><path class="cls-1" d="M2.32,40.18l.35.71v1.17l-.58.12H1.73a.21.21,0,0,1-.23-.24A6.67,6.67,0,0,1,2.32,40.18ZM24.94,13.35l.47.12a5.8,5.8,0,0,1,1.05-.12c.14.44.65.79,1.52,1.05a14.23,14.23,0,0,0,.82,3l-.11.82c.15,0,.39.51.7,1.52l.82.94-.23.94.11.82a6.43,6.43,0,0,0-.11.94l1.75.82a2.4,2.4,0,0,0-.82,1.4c0,.78-.23,1.17-.7,1.17q0,.24.24.24h.11l.35-.24H31c.22,0,.38.4.47,1.18a14.06,14.06,0,0,1-1.64,2.93c-.2.86-.4,1.29-.59,1.29H29a11.44,11.44,0,0,0-2.34-.82.91.91,0,0,0-.47.11,3,3,0,0,0-.94-.23l-2.23.7-.47.12a7.61,7.61,0,0,1-2.93-2.35c0-.15.11-.23.24-.23h5.74c0-.3-.51-2.13-1.52-5.51a6.58,6.58,0,0,1-.35-1.29.1.1,0,0,0,.11-.11c-.26-.24-.93-2.35-2-6.33l-.23-.12A32.23,32.23,0,0,0,20,21.08h.11a30.5,30.5,0,0,1-1.87,5.86.94.94,0,0,1,.12.35c-.11.55-.27.82-.47.82h-.47a3.61,3.61,0,0,0-.94.12c-1-.05-1.52-.36-1.52-.94h-.12l-.35.24c0,.29.31.69.94,1.17h.93l1.41-.12a.94.94,0,0,1,.12.35l-.12.59h.47a.79.79,0,0,1,.82.47v.23l-.47.12v.35h.12l.47-.35h.11c0,.52.94,1.26,2.82,2.23,0,.08.07.11.23.11l2.46-.7h.35a6,6,0,0,1,1.06.12,1.73,1.73,0,0,1,.7-.24,6.52,6.52,0,0,0,2.34.59V33c0,.07,0,.11.12.11,0,.22-.66.57-2,1.06-.16,0-.55-.35-1.17-1.06v.24q.39.93,1.05.93c0,1.47-.31,2.33-.94,2.58-.25,0-.56.28-.93.82H21.77l-.35-.23a1.29,1.29,0,0,1-.7.23H17l-.35-.23-.59.12-.12-.24a5.87,5.87,0,0,0-1.87.7V38c-.63.08-.94.19-.94.35v.23c.31.28.47.48.47.59h.12v-.7a6.78,6.78,0,0,1,1.4-.24c-.28,1.49-.55,2.23-.82,2.23V41c-.2,1.25-.43,1.88-.7,1.88H10.88c-.55,0-.83-.08-.83-.23a1.38,1.38,0,0,1-.7.23H4.9a6,6,0,0,1-1.06-.12,1.09,1.09,0,0,1-.58.12.94.94,0,0,0-.35-.12v-.35L3,41.59a1.88,1.88,0,0,1-.7-1.52c.36-1.49.63-2.23.82-2.23a1.91,1.91,0,0,1,1.06.35h.23V38a4,4,0,0,0-1.17-.24v-.23a37.05,37.05,0,0,1,2.11-6l.58.12h.24c.11,0,.26-.2.47-.59a.21.21,0,0,0-.24-.23H6.19c0,.31-.08.47-.24.47H5.72L6,30.93v-.12c-.23,0-.35-.08-.35-.24Q8.06,24,8.88,21.43H9A6,6,0,0,1,11.58,25a3.6,3.6,0,0,0-.24,1.29l.12,1.05A30.74,30.74,0,0,1,9.35,30c0,.11-.47.26-1.4.47C7.32,30.75,7,31,7,31v.36c0,.15.11.23.23.23l.24-.82H8a7,7,0,0,0,.93-.24c-.22.47-.49.71-.82.71v.23H8.3a1.39,1.39,0,0,0,1-1.29,3.18,3.18,0,0,1,1.17-.58,2.8,2.8,0,0,1,.24.93c-.16,0-.24.11-.24.24V31h.12c.19,0,.31-.35.35-1.05a.21.21,0,0,1-.23-.24v-.11c0-.61.51-1.39,1.52-2.35.2.32.79.51,1.76.59a.89.89,0,0,1,.35-.12v-.35a.89.89,0,0,1-.35-.12,5.63,5.63,0,0,1-.94.12c-.78,0-1.17-.51-1.17-1.52a4.28,4.28,0,0,0,.23-1.06c0-.73-1-2.1-2.93-4.1v-.12a59.15,59.15,0,0,1,2.58-6.91h.12c.39,0,.59.08.59.23a2.42,2.42,0,0,0,.46-.11c1.32.08,2.33.11,3.05.11a7.85,7.85,0,0,0,2.58,1.53c0-.14.39-.34,1.17-.59a4.46,4.46,0,0,0,1.06.24c.54-.27.82-.46.82-.59l.58.12A16.76,16.76,0,0,1,24.94,13.35Zm-19.69,24v.12c0,.16.11.23.23.23H6c0-.11-.11-.22-.35-.35ZM9.7,35.15l-.11,1.17v.11l.23.36v.11A3.81,3.81,0,0,1,8.41,38H8a6.68,6.68,0,0,0-1.06.11,1.38,1.38,0,0,0-.7-.23c0,.11.23.31.7.59a6.92,6.92,0,0,0,.94-.24l.58.12a3.79,3.79,0,0,0,1.64-1.17,5.55,5.55,0,0,1-.23-1.06,3.31,3.31,0,0,0,.12-.82Zm-3.4,4v.12c.13,0,.29-.16.47-.47v-.12C6.65,38.66,6.49,38.82,6.3,39.13Zm.94-7.62v.24h.24a1,1,0,0,1,.11-.47H7.48C7.32,31.31,7.24,31.39,7.24,31.51Zm.47,8.67a.11.11,0,0,1,.12.12c.31-.12.47-.24.47-.35l-.24-.12C8,39.83,7.84,40,7.71,40.18Zm1.41-7.26L9,33.39c.16,1.09.31,1.64.47,1.64h.12v-.12a6.35,6.35,0,0,0-.47-1.64L9.23,33v-.12Zm.23-2.35v.36h.12a.89.89,0,0,1,.35-.12.21.21,0,0,0-.23-.24Zm.35.83v.23h.35c0-.16-.07-.23-.23-.23Zm.35,6.32v.12c.24,0,.36.08.36.23l-.12.59.23.12c0-.47,0-.71.12-.71a1.18,1.18,0,0,1-.23-.58h-.12C10.13,37.52,10.05,37.6,10.05,37.72Zm0,3.87c0,.16.11.23.24.23l.12-.23v-.23h-.12C10.13,41.39,10.05,41.47,10.05,41.59Zm.24-9.26v.47h.35a.21.21,0,0,0,.24-.23l-.36-.24Zm.35-.82-.12.59c.11,0,.23-.12.36-.35v-.24Zm0,2.11H11v-.23h-.11C10.72,33.42,10.64,33.5,10.64,33.62Zm0,7.27V41h.12a.2.2,0,0,0,.23-.23v-.12h-.11Q10.64,40.7,10.64,40.89Zm.24-21.8v.12l.58.11h.12v-.23h-.24c-.07,0-.11,0-.11.12L11,19.09ZM14,32.45a4,4,0,0,0-.94-.23c-.23.07-.35.15-.35.23A4.67,4.67,0,0,1,11.46,32h-.12l.12.24v.11l-.23.35v.12l.11.24.59-.36c1.42-.07,2.32-.11,2.7-.11,0-.14.39-.3,1.17-.47V32c0-.16-.08-.23-.24-.23h-.11A3.55,3.55,0,0,1,14,32.45Zm-2.7,5.16h.36v-.24h-.12Q11.34,37.42,11.34,37.61ZM15.68,3.15h4l.82.24a4.46,4.46,0,0,1,1.06-.24h.7a.11.11,0,0,1,.12.12l.23-.12h.12l.47.59L24,3.5c.58.3.89.54.94.71V5.38c0,.08,0,.12.11.12a3.22,3.22,0,0,1-.58.82v.47a2.5,2.5,0,0,0,.58,1q0,.66-.93,1.17v.35a16.14,16.14,0,0,0,.47,2.93,4.06,4.06,0,0,0-1.76,1.06,2.39,2.39,0,0,0-.82.23l-.24-.11a2.82,2.82,0,0,1-1.17.46L20,13.82c0,.11-.43.26-1.29.47A20.17,20.17,0,0,1,16.38,13a.91.91,0,0,0-.47-.12H14.27a4.78,4.78,0,0,1-1-.23c-.31.06-.47.14-.47.23-.36-.16-.55-.31-.59-.47q2-6,2.47-6.44l-.12-.24A11.54,11.54,0,0,1,15.68,3.15Zm-3.52,34.1v.24h.94a.21.21,0,0,0-.23-.24Zm1.06-18.16c0,.13.27.28.82.47h.35v-.12Zm.7,10.55-.7,1.4h.35a1.86,1.86,0,0,1,.47-.82v-.58Zm-.23-.94v.12a.79.79,0,0,1,.11.35h.12V28.7Zm.82-6.91-.24.35c0,.15.11.23.24.23h.12a.21.21,0,0,0,.23-.23V21.9A1,1,0,0,1,14.51,21.79ZM15.91,5a1.28,1.28,0,0,1-.46.82l.23.12.47-.82Zm-.46,15.12v.46h.23v-.23A.2.2,0,0,0,15.45,20.15Zm.7.82c.09.21.48.49,1.17.82h.12v-.12a5.37,5.37,0,0,1-1.17-.7Zm.35,4.21h.12c.23,0,.47-.23.7-.7H17.2C17.09,24.48,16.86,24.72,16.5,25.18Zm.12-7.5a.86.86,0,0,1,.11.36h.36v-.36Zm.35-13v.11h.23a3.06,3.06,0,0,1,1.41-.47V4.21h-.47A4.24,4.24,0,0,0,17,4.68ZM17.32,34a6.76,6.76,0,0,1,.12.71,6.24,6.24,0,0,1-.35,1.64A1.66,1.66,0,0,0,17.67,35c-.08-.56-.12-.88-.12-.94.4-.2.59-.36.59-.47V33.5A.79.79,0,0,0,17.32,34Zm.23-2.11.36.24c0-.47.19-.7.58-.7v-.24h-.11A1.19,1.19,0,0,0,17.55,31.86Zm.24-8.08v.12H18v-.36C17.87,23.57,17.79,23.65,17.79,23.78ZM17.91,22l.11.59h.24V22Zm0,10.66V33c0,.15.11.23.23.23v-.35A.21.21,0,0,0,17.91,32.68Zm.11-8V25h.12a.21.21,0,0,0,.24-.23Zm.71-20.63v.12l.58.11h.24V4.09Zm.11,17.46v.12h.36a.21.21,0,0,0,.23-.24v-.11h-.35C18.92,21.35,18.84,21.43,18.84,21.55Zm0,9.38h.71a.21.21,0,0,0,.23-.24h-.7Q18.84,30.74,18.84,30.93ZM23.3,5v.23H24V4.91h-.12Zm.82,15.58v.12h.23a.21.21,0,0,0,.24-.23v-.12h-.24C24.2,20.41,24.12,20.49,24.12,20.61ZM25.29,3.15h.12a5.55,5.55,0,0,1,.93.12,3.45,3.45,0,0,1,.82-.12c.1.39.22.59.36.59a1,1,0,0,0,.11-.47h.71c.31,0,.5.47.58,1.41-.08,0-.12,0-.12.11l-.23-.11-.7.11-.59-.47h-.23c0,.43.31.7.93.83A6,6,0,0,1,29,5a9.63,9.63,0,0,1,1.05,2.69c-.11,0-.3.2-.58.59v.94a4.47,4.47,0,0,1-.82,2h.23a5.42,5.42,0,0,0,.82-2.81.67.67,0,0,1,.59-.24Q33.49,16.73,34,18.62v.12a6.25,6.25,0,0,1-3.05.7,7.08,7.08,0,0,1-1.4-4,4.5,4.5,0,0,1-.59-1.53.9.9,0,0,0,.12-.46c0-.19-.43-.47-1.29-.82,0-.11-.23-.35-.7-.71a1.91,1.91,0,0,0-1.06.35h-.11c-.63,0-.94-.78-.94-2.34a1.43,1.43,0,0,1-.12-.7c.09,0,.41-.32.94-.94V8.07a10.33,10.33,0,0,0-.71-1.52V6.43a4.68,4.68,0,0,1,1.41-2,.94.94,0,0,0,.47.12V4.21c-.55,0-.82-.24-.82-.71h-.59a.2.2,0,0,1-.23-.23Zm.23.59c.32.11.47.23.47.35v.35c0,.11-.11.23-.35.35h-.23a.68.68,0,0,0-.36-.58A.66.66,0,0,1,25.52,3.74Zm-.47,15.94h.36a.21.21,0,0,0,.23-.24v-.12h-.23Q25.25,19.32,25.05,19.68Zm0,1.17V21h.12c2.66-.47,4-.86,4-1.18H29C27.62,20.14,26.29,20.49,25.05,20.85Zm1.06-6.45v.12l.59-.12v-.23h-.36C26.19,14.2,26.11,14.28,26.11,14.4Zm.7-6.91h.35c.11,0,.23-.12.36-.35V6.9H27.4C27.29,6.9,27.09,7.1,26.81,7.49Zm.71,13.59-.12.24.23.11.12-.23Zm3,14.3c0,.2.63.63,1.88,1.29h.23l.24-.12v.24c0,.07,0,.11-.12.11.12.32.24.47.35.47a3.62,3.62,0,0,0,1.17-.47l.82.12a3.57,3.57,0,0,0,1.29-.47,3.29,3.29,0,0,0,1.29.35h.47c.08,0,.12,0,.12-.11s.11,0,.11.11l1.41-.11h.35A4.51,4.51,0,0,1,40.88,39,.1.1,0,0,0,41,38.9q.46,0,1.88,4.8l-.24.12a7.23,7.23,0,0,1-1.4-.12,7.42,7.42,0,0,1-1.41.12,4.71,4.71,0,0,0-.47-1.41L40.76,40l.12-.82h-.24c-.11,0-.3.51-.59,1.52a3.41,3.41,0,0,0-.93,1.53v.23a6.53,6.53,0,0,1,.11,1.17l-.82.24H36.89l-.47-.35a1.31,1.31,0,0,1-.82.35h-.7a6,6,0,0,1-1.17-.12,4.13,4.13,0,0,1-1.06.12H32.2c-.07,0-.11,0-.11-.12l-.24.12h-1.4q-.33,0-1.76-5.16h-.82a.21.21,0,0,1-.24-.23v-.12c.63,0,.94-.27.94-.82l-.12-.24c.38-1.25.81-1.87,1.29-1.87ZM28.92,20.5v.11c.16,0,.24-.07.24-.23v-.12Q28.92,20.31,28.92,20.5Zm5.39-.94q.28,0,1.29,3.51l-.12.24a17.77,17.77,0,0,1,1.88,4.45,8.7,8.7,0,0,1,.35,1.06,1.41,1.41,0,0,1-.94.23c0,.16.39.27,1.18.35.62,1.66,1.13,3.1,1.52,4.34a2.29,2.29,0,0,1-1.41.82,11.53,11.53,0,0,1-2.22-.47c0,.11-.24.27-.71.47l-1.4-.12a.79.79,0,0,1-.82.47h-.12a8.16,8.16,0,0,0-1.52-1.17.91.91,0,0,0-.47.12,1.81,1.81,0,0,0-.71-.24V33.5l.47-.46-.23-.36a10.09,10.09,0,0,1,2.34-4.8l-.12-.82v-.82c-.31,0-.46-.39-.46-1.17a3.33,3.33,0,0,1,.7-1.17v-.36C31.62,23,31,22.57,31,22.25a4,4,0,0,1-.12-1.05c.13,0,.44-.39.94-1.17A6.17,6.17,0,0,0,34.31,19.56ZM30.91,32.8v.35h.24V32.8Zm2-5.15v.11l.58.12h.24c0-.16-.08-.23-.24-.23Zm0,4,.23.12a.21.21,0,0,0,.24-.24V31.4h-.24C33,31.43,32.91,31.5,32.91,31.63Zm.7-2.11-.12.23h.35A.2.2,0,0,0,33.61,29.52Zm.94-5.27-.12.23.23.12h.47C35.13,24.46,34.94,24.34,34.55,24.25Zm.58,3.51V28a5.62,5.62,0,0,1,1.41.82V28.7a6,6,0,0,0-1.17-.94Zm0,2.7v.11h.24a.2.2,0,0,0,.23-.23v-.12h-.23Q35.13,30.27,35.13,30.46Zm.59.82c0,.15.11.23.23.23h.12V31H36C35.8,31.07,35.72,31.15,35.72,31.28Zm.23-.71v.24h.35v-.24ZM38,41v.36h.11a.21.21,0,0,0,.24-.24V41Zm1.64-6.91.11.23-.23.12h-.12v-.12C39.38,34.17,39.46,34.09,39.59,34.09Z"/><path class="cls-1" d="M44.06,15.22c.27.47.54.71.82.71,1.32-.16,2.06-.24,2.23-.24.55.19.82.35.82.47a9.75,9.75,0,0,0-.35,1.17v.12A9.61,9.61,0,0,1,49.69,22c.33,0,.6.82.82,2.46v.12l-.24.12h-.7a1.76,1.76,0,0,0-1.52,1.17v.35a1.06,1.06,0,0,1,.58.35v-.12l-.11-.82,1.28-.58H50a16.63,16.63,0,0,1,2.46.23.89.89,0,0,1,.35-.12l.24.36V26c0,.4,0,1-.12,1.76h.12L53,28a1,1,0,0,0,.12.47,1.41,1.41,0,0,1-1.41.7.21.21,0,0,0-.23-.24L50,29.17v.23h.12c.17,0,.6,0,1.29-.11a1.91,1.91,0,0,0,.7.35l1.29-.71-.12-.58h.23A7.09,7.09,0,0,1,54,30.22a.84.84,0,0,1-.35.12v.23h.24l.35-.23.23.35v.12l-.11.23a11.94,11.94,0,0,1,2.22,1.88,10.29,10.29,0,0,0,3.75,1.17l.7-.12h1.06l.23-.11.12.23v.23c-.53,0-.88.4-1.05,1.18a1.64,1.64,0,0,1,.35.93,12.34,12.34,0,0,0-1.76.71,3.58,3.58,0,0,1-1.17-.24c-.06,0-.65.2-1.76.59l-1.52-.24c-.47.11-.71.23-.71.36.16,0,.36.15.59.46h.12c.06-.39.18-.58.35-.58h.23v.23l.24-.11h.35l.35.23h.23a14.91,14.91,0,0,1,3.29-.7c0-.17.43-.29,1.29-.35a16.77,16.77,0,0,0,.82,2.57c-.11.32-.23.47-.36.47a19.2,19.2,0,0,0,1.53,2.46L64,43a16.25,16.25,0,0,1-3.16.47.92.92,0,0,1-.12-.36h-.47c0,.32-.07.47-.23.47h-.82q-5.58-.34-5.86-.93l.12-.24h-.12l-.47.24q-5.6-2-6.56-4a.11.11,0,0,0-.12.12A15.38,15.38,0,0,1,41,30.22c-.11,0-.27-.62-.47-1.87a1.09,1.09,0,0,1,.58-.12l-.7-.47v-.58a.79.79,0,0,0,.82-.47.21.21,0,0,0-.23-.24H40.9l-.59.12c0-.08,0-.12-.11-.12s0-1-.12-2.81q.33-7.38,1.4-7.38a3.09,3.09,0,0,1,2.35-1.06Zm14.42-13v.11l.23-.11h2.46a8.79,8.79,0,0,1,1.29.11c.08,0,.12,0,.12-.11,3.12.43,4.69.86,4.69,1.28.31.11.46.23.46.36V4c-.23,0-.35,0-.35.12A.84.84,0,0,0,67,4c-.94,0-1.48.82-1.64,2.46a5.59,5.59,0,0,0-.7,1.18.1.1,0,0,0,.11.11,10.23,10.23,0,0,1-.23,1.53.91.91,0,0,1,.12.47c-.46.62-.73.93-.82.93h-.35a10.87,10.87,0,0,1-3.64-2h-.11a6.24,6.24,0,0,0,3.39,2.58c0,.16,0,.23.12.23-.11.47-.23.71-.35.71a8.36,8.36,0,0,0-2.58-.47q-5.06,0-6.8,6.09a29.91,29.91,0,0,0-.7,5,.94.94,0,0,1,.12.47v.82c0,.11-.12.23-.35.35H51.21c-.23,0-.47-.82-.7-2.46-.27,0-.46-.27-.59-.82a.94.94,0,0,0,.12-.47V20.5l-2-3.64a2.89,2.89,0,0,0,.47-1.17,3.94,3.94,0,0,1-2-1.4h-.11l.11.82-.23.11h-.12a1.29,1.29,0,0,1-.7-.23l-.47.23a4.06,4.06,0,0,1-1.41-.82h-.23a.11.11,0,0,1-.12.12c0-.23-.08-.35-.23-.35a6.27,6.27,0,0,1-1.53,1.17c0-.08,0-.12-.11-.12q.56-3,4.8-7.73A19.27,19.27,0,0,1,56,2.57l.11.23c-.15,0-.23.11-.23.24l.23.11h.12L56.48,3a.87.87,0,0,1,.24.58H57c.94-.31,1.41-.62,1.41-.94-.31,0-.47-.07-.47-.23ZM41.84,21.67v.12c0,.15.11.23.23.23a.2.2,0,0,0,.23-.23v-.12Zm0,6.09V28h.46v-.24Zm2.22-14.53h.71A.21.21,0,0,0,45,13l-.23-.12C44.3,13,44.06,13.07,44.06,13.23Zm.24,16.29h.11l.71-.12v-.23H45C44.53,29.25,44.3,29.36,44.3,29.52ZM50.74,8.78h-.58c-.39-.27-.59-.42-.59-.47l-.23.12h-.82a1,1,0,0,0-.47.11l-.24-.11-.58.11a1.41,1.41,0,0,0-.71-.23v.23c.47,0,.71.2.71.59s-.24.47-.47.47a6.8,6.8,0,0,0,.12.7c-.32.86-.63,1.29-.94,1.29v.35c.47,0,.7.2.7.59v.12a2.32,2.32,0,0,0-1,2.1v.12a6.28,6.28,0,0,1,2.69-2,6,6,0,0,1,2.46-1.29c0-1.8.63-2.69,1.88-2.69a9.13,9.13,0,0,1,3.16-1.53,1.92,1.92,0,0,0,.94.35,5.13,5.13,0,0,0,1.41-.23l.58.12L59,7.49a2.07,2.07,0,0,0,.82.35l1-.12c0,.21.7.68,2.11,1.41V9C61.74,7.84,61,7.25,60.82,7.25a1.29,1.29,0,0,1-1.17-.46l-.59.11h-.58c-.08,0-.12,0-.12-.11L57,7.25h-.47V7c0-.14.2-.26.59-.35L57,5.85V5.61a4.31,4.31,0,0,1,.35-1.05,1,1,0,0,1-.11-.35A8.56,8.56,0,0,0,55.9,6.67c-.66,0-1.83.55-3.52,1.64Zm-5.15,19.8v.24c.23,0,.35.08.35.23v.24c-.24,0-.35.07-.35.23a1,1,0,0,1,.7.47v-.12l-.12-.58.24-.12h.23l.47.35h.23V29.4A2.47,2.47,0,0,0,45.59,28.58Zm.35,8.09-.12.58v.59a.2.2,0,0,0,.23-.23v-.94ZM46.29,35l-.12.58v.71c.17,0,.29-.43.35-1.29ZM47.46,8.78c.41.08.64.12.7.12a6.76,6.76,0,0,1,.71-.12l.7.12V8.78c.78.36,1.17.59,1.17.7v.35c0,1.1-.9,1.88-2.69,2.35,0,.22-.35.41-1.06.58a4.46,4.46,0,0,1-.23-1.29,6.35,6.35,0,0,0,.7-1.87.21.21,0,0,0,.24-.24L47.46,9Zm-.23-1.06a1.08,1.08,0,0,1,.11.35h.12V7.72Zm.47,21.8c0,.11.23.3.7.59h.23A.94.94,0,0,0,49.1,30a.94.94,0,0,0,.47.12q0-.24.12-.24a.84.84,0,0,1-.12-.35c-.62.05-.94.13-.94.23A1.94,1.94,0,0,0,47.7,29.52Zm.7-22.38.58.11h.12c.13,0,.28-.15.47-.46a.11.11,0,0,1-.12-.12C48.75,6.87,48.4,7,48.4,7.14Zm.47,26.13v.12h.23c.55-.39.82-.74.82-1.06h-.23C49.59,32.33,49.32,32.65,48.87,33.27Zm.82-18.4v.24l.82-.24v-.12a.21.21,0,0,0-.24-.23H50C49.93,14.52,49.81,14.64,49.69,14.87Zm.23-7.73v.35H50c.16,0,.23-.08.23-.24L50,7.14ZM50.63,6v.11h.58V5.85A.21.21,0,0,0,51,5.61C50.87,5.61,50.75,5.73,50.63,6Zm.93,24.37c0,.39-.27.78-.82,1.17.08.24.31.35.71.35a.1.1,0,0,1,.11-.11l.12.23a.89.89,0,0,1-.35.12v.35c0,.16.12.23.35.23a1.38,1.38,0,0,1,.7-.23c0,.16.39.31,1.17.47a.92.92,0,0,1,.36-.12v-.12c-.08-.23-.32-.35-.71-.35h-.35c0-.39-.27-.58-.82-.58V32a.84.84,0,0,0-.35-.12v-.11h.23v-.12c-.31,0-.46-.12-.46-.35a4.69,4.69,0,0,0,.35-.94Zm-.23-4.8v.11q0,.54,1.05,1.17h.24A5.38,5.38,0,0,1,51.33,25.54Zm.94-20.28v.12h.58V5.15Zm.35.82c.08,0,.11,0,.11.12a.63.63,0,0,0,.47-.47H53C52.86,5.73,52.74,5.85,52.62,6.08ZM53,31v.24c.11,0,.23-.12.35-.35A1,1,0,0,1,53,31Zm0,6.33v.12c.31-.13.47-.24.47-.35H53.2C53.05,37.17,53,37.25,53,37.37Zm.58-6a.87.87,0,0,1-.11.35l.23.11c.16,0,.24-.07.24-.23V31.4Zm0,4.8v.23h.24V36C53.63,36,53.55,36.07,53.55,36.2Zm.12-1.05v.35h.12a.84.84,0,0,1,.12-.35ZM54,5.26v.12h.24c.17,0,.29-.2.35-.59h-.12C54.37,4.79,54.21,5,54,5.26ZM55.66,39.6c0,.3-.31.53-.93.7,0,.16-.16.39-.47.7v.12h.23a.69.69,0,0,0,.47-.7h.59c.23-.08.35-.31.35-.7Zm-.58-3.75V36h.35c.16,0,.23-.08.23-.24v-.12h-.35C55.16,35.65,55.08,35.72,55.08,35.85Zm.47-31.06v.12H56V4.79Zm.58,30.36v.11h.24A.21.21,0,0,0,56.6,35l-.23-.12Q56.13,35,56.13,35.15Zm0,4.33q0,.24.24.24a.21.21,0,0,0,.23-.24Zm5.63,0c-.58.7-.93,1.06-1.06,1.06A5.06,5.06,0,0,1,59,40v.12L58.71,40h-.23a3.39,3.39,0,0,1-.94.35.94.94,0,0,0-.47-.12h-.23c0,.16.11.24.23.24h.59a7.12,7.12,0,0,0,1.17-.24c0,.11.12.23.35.36l.23-.12a7.88,7.88,0,0,0,1.76.35c.22-.62.53-.94.94-.94V39.6A.84.84,0,0,1,61.76,39.48Zm-3-29.88v.23h.35V9.6Zm.12,26.6v.12a1.33,1.33,0,0,0,.82-.35h.12a1.29,1.29,0,0,1,.82.35h.35c0-.17-.43-.37-1.29-.59C59.1,35.84,58.83,36,58.83,36.2Zm.23-30.82V5.5h.12c.11,0,.23-.12.35-.35V5h-.12C59.3,5,59.19,5.15,59.06,5.38Zm1.76,36.91v.12h.12a.84.84,0,0,1,.35-.12v-.23h-.24C60.9,42.09,60.82,42.17,60.82,42.29ZM61.05,6v.11l.59.12V5.85Zm.71.82V6.9H62a.21.21,0,0,0,.24-.23V6.55H62C61.84,6.58,61.76,6.66,61.76,6.79Zm.47,17.81c0,.11.27.38.82.82v.23l.58-.11a7.85,7.85,0,0,1,1.17,1.87,9.31,9.31,0,0,0,1.65,1.41l-.12.23.12.24a.87.87,0,0,1-.47.23l-.59-.35-.47.35H64a1.41,1.41,0,0,1-.7-.23,1.38,1.38,0,0,1-.7.23h-.24c-.17,0-.29-.43-.35-1.29a.11.11,0,0,1,.12-.12L62,27.29V24.83C62,24.68,62.1,24.6,62.23,24.6Zm4.92,6.33a3.13,3.13,0,0,0,.47.93,9.89,9.89,0,0,0,1.87-.35,1.94,1.94,0,0,1,1.64.82v.12l-.35.47v.23l.7,1.17-.11.24.11.7a10.46,10.46,0,0,1-1.75,2.35c-.63.07-.94.19-.94.35h1a6.87,6.87,0,0,1,1.29-1.64A1.83,1.83,0,0,1,72,35a.94.94,0,0,0,.35.12l.24-.12c.5,0,.89.31,1.17.94.31,0,.47.09.47.23l.23-.12h.12c.08,0,.24.2.47.59a16.79,16.79,0,0,1-.94,3.87,7.27,7.27,0,0,1-1.87.82v.11a2.42,2.42,0,0,0,1.87-.58h.47c2,.62,2.93,1.17,2.93,1.64l-.23.12H75.12a5.9,5.9,0,0,1-1.06-.12,1.33,1.33,0,0,1-.7.12v-.12l-.23.12H71.6l-.23-.12a2.54,2.54,0,0,1,.35-.82v-.12H71.6a.84.84,0,0,1-.35.12,13.59,13.59,0,0,1-.35-2.58h-.24a13,13,0,0,1-4.21,2.93c0,.2-.67.44-2,.7a3.38,3.38,0,0,0-1.17-2,2.54,2.54,0,0,0-.35-.82v-.12c.2-.78.44-1.17.7-1.17A5.67,5.67,0,0,1,66,38.19c0-.11-.12-.22-.35-.35l-2.35.47h-.12a6.56,6.56,0,0,1-1-3.28q.55,0,1.29-1.41Q64.95,33.32,67.15,30.93Zm-4-10h10.9c.32,0,.63.23.94.7.11-.47.23-.7.35-.7h2.81c.18,0,.41.82.71,2.46l-.71,1.87a3.25,3.25,0,0,1,1.53,2.81v1.18c0,.11-.12.22-.35.35a.92.92,0,0,0-.36-.12l-.11.23c.15,0,.23.11.23.24v.35a6.47,6.47,0,0,0-.47,2.23,5,5,0,0,1-2.11.58A3.26,3.26,0,0,0,75.7,33a10.05,10.05,0,0,1-1,2c0,.47-.12.7-.35.7-.36-.16-.56-.31-.59-.47v-.35c0-.16.11-.23.24-.23l-.12-.24q1.29-1,1.29-1.17l-.24-.12c-.23.08-.35.16-.35.24a.84.84,0,0,0-.35-.12c-.63.14-.94.3-.94.47v.12l.47.46c0,.24-.66.36-2,.36A6.45,6.45,0,0,0,71,32.8v-.12a12.64,12.64,0,0,0,1.52.47h.12q0-.23-1.29-1.17,0-1.29-2.7-1.29a1.31,1.31,0,0,1-.7.24h-.12c-.23-.08-.35-.32-.35-.71,0-.06,0-.29.12-.7-.47,0-.71-.2-.71-.59a3.06,3.06,0,0,0-.82-1.4c.14-.31.81-.63,2-.94a20.27,20.27,0,0,1,4-1.29c.41.08.64.12.7.12l.12-.24v-.11h-.12a17.47,17.47,0,0,0-6.91,2.22,9.52,9.52,0,0,0-3.28-3.16c0-.16,0-.23-.12-.23A5.45,5.45,0,0,1,63.16,21Zm-.23.58.12.24v.46a.21.21,0,0,1-.24.24H62.7v-.7C62.73,21.63,62.8,21.55,62.93,21.55Zm1.17,17.7v.23c.11,0,.23-.12.35-.35V39h-.11Q64.1,39.06,64.1,39.25ZM69.38,4.32a15.73,15.73,0,0,1,8.9,8,16.63,16.63,0,0,1,1.52,5l-.23.12H76.64l-.47-.59c-.12,0-.28.16-.47.47a.79.79,0,0,0-.35-.11,1.38,1.38,0,0,1-.7.23H72.42a4.31,4.31,0,0,1-1-.35l-.47.12a3,3,0,0,0-2-1.06,34.19,34.19,0,0,0-4.34-2.81v-.12C64.57,12.76,65,12,66,11a8.8,8.8,0,0,1,1-4.1A4.62,4.62,0,0,0,67.27,6a.92.92,0,0,1-.12-.36C68.63,5.61,69.38,5.18,69.38,4.32Zm-3,33.87v.24h.23c.47-.3.71-.5.71-.59H67A2,2,0,0,1,66.33,38.19Zm.35-23.08h.12a7.59,7.59,0,0,1,2.46,1.52c.62,0,1,.19,1.17.59a.21.21,0,0,1-.23.23h-2c-.48,0-.91-.63-1.29-1.88C66.76,15.57,66.68,15.42,66.68,15.11ZM71.25,39.6l.23.12.12-.24v-.12h-.12C71.33,39.4,71.25,39.47,71.25,39.6Zm1-2.81c0,.15.11.23.24.23h.12v-.23Zm.36-6.33v.23h.11a.21.21,0,0,0,.24-.23Zm.58,11.25v.47h.24v-.47Zm6.21-9.14h.12l.12.58v8.32a.21.21,0,0,1-.24.24.84.84,0,0,0-.35-.12,3.23,3.23,0,0,1,.59.82l-.35.24h-.59c-.25,0-.87-.47-1.87-1.41l-2.11-.82v-.35l.93-3.17a4.82,4.82,0,0,1-.58-1.4v-.24c.83-1.09,1.33-1.64,1.52-1.64h1.41l.47.35v-.11a.92.92,0,0,1-.12-.36Q79.45,33,79.45,32.57ZM75.23,25l.59.23V25a.89.89,0,0,1-.12-.35C75.39,24.71,75.23,24.82,75.23,25Zm.71.47v.35h.23v-.12A.21.21,0,0,0,75.94,25.42Zm.23-10.9.24.12h.11v-.35h-.11C76.25,14.32,76.17,14.4,76.17,14.52Zm.47,8.32a5.51,5.51,0,0,1,.12.94A2.94,2.94,0,0,0,76.29,25h.23c.33-.86.61-1.29.82-1.29v-.23C77.22,23.43,77,23.23,76.64,22.84Zm.7,6.56v.24h.12a3,3,0,0,0,.47-.12.94.94,0,0,0,.47.12V29.4Zm0,11.14v.23h.47v-.12Zm.12-14.42h.12c.11,0,.22-.12.35-.35v-.12C77.8,25.65,77.65,25.81,77.46,26.12Zm.82,15v.12c0,.16.12.23.35.23h.12v-.11A.83.83,0,0,1,78.28,41.12ZM79.1,21h.24c.11,0,.22.11.35.35a1.94,1.94,0,0,1-.24.7,6.31,6.31,0,0,1,.24,1.64v2.11c0,.16-.08.23-.24.23a2.42,2.42,0,0,1-.58-1.17A5.59,5.59,0,0,0,79.34,23l-.59-1.76Z"/><path class="cls-1" d="M80,3c0,.23.19.39.59.46l.11.24a.93.93,0,0,0-.11.47c.07,0,.31-.35.7-1.06A16.18,16.18,0,0,0,83,3l.7.11A19.52,19.52,0,0,1,85.78,3h.59a8.79,8.79,0,0,1,1.29.11L87.89,3c.08,0,.12,0,.12.11L89.41,3h4.11c.14,0,.25.19.35.58A4.22,4.22,0,0,1,95.51,3h4.8l.71.11A1.1,1.1,0,0,1,101.6,3c.13,0,.6,0,1.41.11l.23-.11a6.82,6.82,0,0,1,1.64.58v.24c-.23,0-.35,0-.35.11a1,1,0,0,0-.35-.11c-1.09,0-1.64.78-1.64,2.34a4.51,4.51,0,0,0-.82,3.05.91.91,0,0,1,.12.47c-.47.31-.71.58-.71.82h-.47a14.47,14.47,0,0,1-2.81-1.29c-.39-.47-.74-.71-1-.71a5.57,5.57,0,0,0,2.58,2.11,3,3,0,0,1,1.05.71c-.19.62-.34.93-.47.93H92.58v5.39h5.51v.12c0,.16-.67.43-2,.82a21.58,21.58,0,0,0-3.28,3.63,12.74,12.74,0,0,0-2.22,1.88,2.92,2.92,0,0,1-1.29.23h-.71c-.46,0-.7-.43-.7-1.29s-.3-1.4-.7-1.4l-.12-.59.12-.58a21.7,21.7,0,0,0-2-3.52v-.35a1.69,1.69,0,0,0,.35-1.06v-.11c-.66,0-1.36-.51-2.11-1.53V13.7a18.84,18.84,0,0,1,2.81-1.76c1.17-.59,1.76-.94,1.76-1V9.6q.13-.66,2.34-1.29.36-.68,2.58-1.29a2,2,0,0,0,.94.35h.23a7.38,7.38,0,0,0,1.17-.23l.59.11.23-.11a2.13,2.13,0,0,0,.82.35L98,7.37A12.07,12.07,0,0,0,100.08,9v.24h.23q0-.64-2.34-2.46c-.7,0-1.06-.12-1.06-.36l-1.17.12a.89.89,0,0,1-.35-.12,1.78,1.78,0,0,1-.7.24V6.55a2,2,0,0,1-.94.35h-.12V6.67c0-.2.16-.32.47-.35V5.38A.11.11,0,0,0,94,5.26l.36-.7V4.09H94c0,.47-.15.7-.46.7l.11.24c0,.84-.74,1.43-2.22,1.76l-1.29.7c-.07.25-.81.56-2.23.94h-.35c-.39,0-.63-.16-.7-.47l-1.76.23a.94.94,0,0,0-.35-.12.94.94,0,0,1-.35.12A1.93,1.93,0,0,0,83.67,8v.23c.39,0,.59.13.59.35v.12c0,.39-.12.59-.35.59v.23c0,.08,0,.12.11.12a3.27,3.27,0,0,1-.93,1.87v.12h.11a.94.94,0,0,1,.35-.12,1.88,1.88,0,0,1,.24.94q-.89,0-1.29,2.58l-.47.12a4.28,4.28,0,0,0-1.52-.82,1.08,1.08,0,0,1-.35.11l.23-.35h-.12l-.58.12V6.9l.11-.7a1.26,1.26,0,0,1-.11-.59V4.56c0-.08,0-.12.11-.12l-.11-.23V3.39C79.69,3.28,79.8,3.16,80,3Zm1.41,11.83c.2.41.43.64.7.7a17.27,17.27,0,0,1,2.23-.23,2.47,2.47,0,0,0,.93.35,12.76,12.76,0,0,0-.47,1.41,10.39,10.39,0,0,1,2.35,4.69c.2,0,.44.82.7,2.46l-.23.11H87l-.82.12a.2.2,0,0,0-.23-.23h-.12l.24.35v.12a1.67,1.67,0,0,0-.59,1.05c0,.13.16.28.47.47H86l-.12-.82a2.83,2.83,0,0,1,1.29-.7h1.4a1.67,1.67,0,0,0,1.29,1.75H90v-.11q-1.17-.48-1.17-1.29v-.24H89a1.09,1.09,0,0,1,.58.12c1.47,0,2.37-.31,2.7-.94.07-.44.66-.86,1.75-1.29a2.09,2.09,0,0,1,1.18-1.87,9.28,9.28,0,0,1,2-1.76A7.42,7.42,0,0,0,99,18.5h.24c.11,0,.22.12.35.36a8.55,8.55,0,0,0-.23,1.75c.1,0,.22.12.35.36,0,1.4-.59,2.1-1.76,2.1-.78.11-1.17.31-1.17.59H97a18,18,0,0,1,2.35-.47c.12,1.17.43,1.76.93,1.76,0,.23.08.35.24.35a.91.91,0,0,1,.47-.12,7.07,7.07,0,0,1,.93,1.64l-.23.12H96.56a.81.81,0,0,0-.47-.23,1.38,1.38,0,0,1-.7.23H92.81v3.28c0,.11-.11.23-.35.35a2,2,0,0,1,.35.94v.12l-.11.7c.1.55.26.82.46.82A9,9,0,0,1,94.45,33h.24l.7.11.24-.11a.1.1,0,0,1,.11.11l.59-.11h3.75c0,.51-.35,1-1.06,1.4l-.23.47A6.43,6.43,0,0,0,99.14,36l-1.76.82-1.52-.24a.11.11,0,0,1-.12.12v-.12a6.14,6.14,0,0,1-1.17.59l-1.52-.24a8.65,8.65,0,0,1-1.17.24v.23H92l.59-.12a3,3,0,0,1,.23.82h.12v-.35a.84.84,0,0,1-.12-.35,1.41,1.41,0,0,1,.71-.23c0,.15,0,.23.11.23l.24-.12a1.31,1.31,0,0,0,.7.24h.12a13.94,13.94,0,0,1,3.28-.7q0-.24,1.29-.36a4.65,4.65,0,0,1,.35,1.18.84.84,0,0,0-.12.35,2.41,2.41,0,0,1,.47,1.29v.11a.89.89,0,0,0-.35.12l1.64,2.46v.12l-.59.12-.82-.12-.58.12c-.47,0-.71-.12-.71-.36a6.19,6.19,0,0,1-1.75.36h-.24a5.08,5.08,0,0,1-1.29-.12,9.83,9.83,0,0,1-1.52.12H91.17l-.35-.24a6.92,6.92,0,0,0-.94.24h-.47c-.54,0-.86,0-.93-.12a9,9,0,0,1-1.29.12H85.08A4.13,4.13,0,0,1,84,42.06a6,6,0,0,1-1.17.12H80.27c-.11,0-.22-.12-.35-.36V19.91A9,9,0,0,1,80,18.62a1.91,1.91,0,0,1-.12-.94V15.57c0-.39.1-.58.24-.58Q81.18,14.87,81.45,14.87ZM80.63,40.3v.35a.21.21,0,0,0,.23-.23V40.3ZM81,6.67V7h.47c0-.11-.12-.23-.36-.35Zm.47,6.21h.7a.21.21,0,0,0,.23-.23v-.12h-.23C81.68,12.57,81.45,12.69,81.45,12.88Zm.11,16.29h.12l.82-.12v-.23h-.23C81.8,28.86,81.56,29,81.56,29.17Zm.12,10.19v.12a.2.2,0,0,0,.23-.23v-.12C81.76,39.16,81.68,39.24,81.68,39.36Zm1.76-25.31c.2,0,.36.35.47,1.06h-.59c-.11,0-.23-.12-.35-.36v-.11C83.17,14.25,83.33,14.05,83.44,14.05ZM83,28.23v.12c0,.15.12.23.35.23v.35c-.23,0-.35.08-.35.24.31,0,.47.12.47.35h.11c0-.47.08-.7.24-.7H84l.47.35h.35A2.79,2.79,0,0,0,83,28.23Zm.23,8.2v1.18h.12l.12-.82v-.36Zm.24-1.17.11.71h.12l.12-.82a.11.11,0,0,1-.12-.12.21.21,0,0,0,.24-.24v-.23C83.75,34.56,83.59,34.79,83.44,35.26Zm0,3.05v.35h.47v-.12a.21.21,0,0,0-.24-.23ZM85,8.43l.24.11a6.69,6.69,0,0,0,1-.11,1,1,0,0,0,.47.11L87,8.43c.77.32,1.16.6,1.18.82a2.13,2.13,0,0,1-1.88,2.22,8,8,0,0,1-1.87.94L84,11.24a6.24,6.24,0,0,0,.71-1.88c.11,0,.22-.11.35-.35l-.24-.35Zm0,20.74c0,.23.35.43,1.06.58a2.42,2.42,0,0,0,.46-.11,1,1,0,0,0,.47.11V29.4l-.11-.23c-.55,0-.82.12-.82.23a2,2,0,0,0-.94-.23ZM86.13,6.55h-.47v.24l.59.11h.23c.13,0,.29-.15.47-.47a.1.1,0,0,1-.11-.11A1.41,1.41,0,0,1,86.13,6.55Zm.12,26.37V33h.12c.11,0,.38-.28.82-.82V32.1H87C86.81,32.1,86.58,32.37,86.25,32.92Zm.47-4.34v.35a1,1,0,0,1,.35-.11V28.7A.89.89,0,0,1,86.72,28.58Zm.58-14.41-.23.35v.23l.82-.23v-.23Zm-.11,17.58h.47a.21.21,0,0,0-.24-.24C87.27,31.54,87.19,31.62,87.19,31.75Zm.11-25v.35h.12a.21.21,0,0,0,.24-.24l-.24-.11Zm2.82,19.8a3,3,0,0,1,.23,1.29v.35c0,.16-.43.39-1.29.7,0-.2-.15-.32-.47-.35a3.9,3.9,0,0,1-1.17.24v.23h.12l1.52-.12c.13.32.24.47.35.47,0-.2.47-.43,1.41-.7a12.66,12.66,0,0,0-.35-2.11ZM88,5.61v.12h.35l.23-.12a1,1,0,0,1-.11-.35h-.12C88.25,5.26,88.13,5.38,88,5.61ZM89,30a7.13,7.13,0,0,1-.71,1.29,1,1,0,0,0,.71.23c0,.11-.12.23-.36.35a.94.94,0,0,1,.12.47h.12a1.38,1.38,0,0,0,.7-.23,5.31,5.31,0,0,0,1.41.47h.35v-.12c0-.25-.39-.45-1.17-.59v-.23c.31,0,.47-.08.47-.23h-.12l-.47.11c-.78-.19-1.17-.34-1.17-.47a8,8,0,0,1,.23-.93V30Zm.82-25.2V5h.35V4.79Zm.23.94a.11.11,0,0,1,.12.12.84.84,0,0,1,.35-.12V5.38h-.12C90.24,5.38,90.13,5.5,90,5.73Zm.35,25.08h.59a.52.52,0,0,1,.58-.59v-.35C91.13,29.87,90.74,30.18,90.35,30.81Zm0,6.21v.12c.31-.13.47-.24.47-.35h-.23C90.43,36.82,90.35,36.9,90.35,37Zm.47-5.62.23.11a1.22,1.22,0,0,0,.24-.58h-.12C91.06,30.93,91,31.08,90.82,31.4Zm.82-27-.35.71h.23A.76.76,0,0,0,92,4.44Zm0,36.21v.12h.12l1.4-1.05v-.24A2,2,0,0,0,91.64,40.65Zm.12-10.08v.24h.47v-.24Zm.7,4.93.24.11a1,1,0,0,1,.35-.11v-.24H92.7Q92.46,35.31,92.46,35.5Zm.59,5.86v.35h.11a.21.21,0,0,0,.24-.24v-.11Zm.35-6.57c0,.16.11.24.23.24a.21.21,0,0,0,.24-.24v-.23h-.24C93.48,34.59,93.4,34.67,93.4,34.79Zm.12,4.34c0,.16.11.23.23.23s.23-.07.23-.23Zm1,.82a.89.89,0,0,0-.35-.12v.24h.47a7.81,7.81,0,0,0,1.52-.24l.24.35.7-.11V40a1.67,1.67,0,0,1-.82-.35v.12l-.24-.12h-.23A2.21,2.21,0,0,1,94.57,40Zm.12-1.41v.12c0,.16.11.24.23.24l.12-.24v-.12Zm.35-15v.36a4.19,4.19,0,0,1,1,.23l.59-.47c-.16-.31-.27-.47-.35-.47A2.67,2.67,0,0,1,95,23.54Zm.59-19v.12h.23c.16,0,.23-.08.23-.24V4.21H96C95.87,4.21,95.75,4.32,95.63,4.56ZM96,36v.11h.47c.06-.31.37-.47.93-.47,0-.15-.11-.23-.35-.23C96.33,35.55,96,35.75,96,36Zm.7-10.32a2.07,2.07,0,0,1-.35.82h.12c.12,0,.24-.23.35-.7v-.12Zm.7,14.42c.08.23.32.35.71.35h.46c.16-.63.47-.94.94-.94v-.23c-.15,0-.23,0-.23-.12-.19,0-.5.31-.94.94Zm.24-34.92v.11h.58V5Zm.11,30.58V36h.47v-.24ZM98.2,5.85v.23L98.79,6V5.85h-.35a.11.11,0,0,1-.12.12A.11.11,0,0,0,98.2,5.85ZM101.48,33h6.33c.71,0,1.06.62,1.06,1.87-.13,0-.28.16-.47.47v.23c.53-.62.84-.93.94-.93a1,1,0,0,0,.35.11l.23-.11c.56,0,.88.31.94.93a1.31,1.31,0,0,1,.7.24.94.94,0,0,1,.47-.12.74.74,0,0,0,.35.59c-.48,2.89-1.07,4.33-1.75,4.33a9.15,9.15,0,0,1-1.06.35v.12h.12l.7-.12h.24l.23.12c0-.11.19-.3.59-.58h.23c.62,0,.94.23.94.7v.58c0,.11-.12.23-.35.36l-.94-.12a.94.94,0,0,1-.47.12.21.21,0,0,0-.23-.24,1.34,1.34,0,0,1-.71.24h-1v-.47l.35-.59H109a1.81,1.81,0,0,1-1.87,1.06h-.7a.11.11,0,0,1-.12-.12l-.24.12H102.3q-.8,0-1.17-1.41a1.27,1.27,0,0,1-.82-1.29c.19-.86.54-1.29,1.06-1.29,0-.19.66-.3,2-.35v-.23a3,3,0,0,0-.47-.12,14.83,14.83,0,0,1-2.58.47L99.38,35c0-.13.31-.44.93-.94Q100.31,33.21,101.48,33Zm-.93-15.82h8.08l.59,1.17v5.39c0,.7-.63,1-1.88,1a40.49,40.49,0,0,0-4.1,1.53c-1.25-1.88-2.22-2.82-2.93-2.82a1.38,1.38,0,0,1-.23-.7v-.7c.23-1,.35-1.57.35-1.64v-.35a1.41,1.41,0,0,0-.23-.71c0-.08.11-.7.35-1.87Zm.93,21.44v.59h.12a.21.21,0,0,1,.24-.24v-.35ZM107.23,3h4.57c.23,0,.43.62.58,1.87a4,4,0,0,0-.93-.47h-.59v.12c.92,0,1.51.7,1.76,2.11v5.27c0,.11-.12.23-.35.35h-1.76c-.08,0-.12,0-.12-.11l-.23.11h-7.62l-.59-.11v-.12a12.14,12.14,0,0,1,1.41-2V9.83a6.3,6.3,0,0,1,1-3.63,1.88,1.88,0,0,1,.24-.94.91.91,0,0,1-.12-.47c1.41-.15,2.11-.39,2.11-.7V3.15Zm-3.28,35h.11c.16,0,.24-.07.24-.23h-.12C104,37.87,104,38,104,38.07Zm4.45-12.89h.35c.16,0,.23.11.23.24v1.17c0,.11-.11.23-.35.35h-4.22a.21.21,0,0,1-.23-.23,22.54,22.54,0,0,1,3.4-1.29A1.23,1.23,0,0,0,108.4,25.18ZM105.94,3c.15,0,.23.11.23.23l-.23.12a.21.21,0,0,1-.24-.24Zm.47,34.57a1.6,1.6,0,0,1,.93.23.89.89,0,0,1,.12-.35l-.23-.12h-.59C106.48,37.4,106.41,37.48,106.41,37.61Zm2-1.76c-.25.62-.49.94-.7.94V37a5.21,5.21,0,0,0,1-.94.21.21,0,0,0-.23-.23ZM109,33h1.53c.36.54.59.82.7.82h.12a4.76,4.76,0,0,0,1.4-.71l.12.24a6.33,6.33,0,0,1-.94,2c-.23,0-.46-.23-.7-.7l.24-.47-.24-.12c0,.23-.62.35-1.87.35l-.12-.23.12-.59a.87.87,0,0,0-.47-.23A.87.87,0,0,0,109,33Zm-.11,6v.35H109c.16,0,.24-.07.24-.23V39Zm.93-2.58v.12h.47v-.12Zm2.93,2.47h.12v.7l-.12.58h-.11c-.16,0-.24-.07-.24-.23v-.12C112.38,39.25,112.5,38.94,112.73,38.9Z"/><path class="cls-1" d="M130.71,18.74h.07l.82.23a5.66,5.66,0,0,1,2.58-.82c1.72.35,2.58.66,2.58.94L137,19q2.46.38,2.46,1.41a7.82,7.82,0,0,1,.24.94v.35a.11.11,0,0,1-.12.12,2.35,2.35,0,0,1,.47,1.28v.47c.25,0,.6.36,1.05,1.06a1.86,1.86,0,0,1-.23.7,9,9,0,0,1,.12,1.29l-.12.59,1.76.93a2.89,2.89,0,0,0-.94,2.23.74.74,0,0,1-.59.35q0,.24.24.24h.11l.47-.36a1.72,1.72,0,0,1,.47,1.18,18.36,18.36,0,0,1-1.87,3.51,1.44,1.44,0,0,1-.35.94l.11.82c0,.3-.7.61-2.11.94l-1-.94v.12a2.48,2.48,0,0,0,1,1.17q0,2.13-1,2.46c-.25,0-.56.55-.94,1.64a8.88,8.88,0,0,1-4.45,1.06,7.26,7.26,0,0,1-1.88-1.18H129c-.15,0-.23.11-.23.24H130c.47.39.7.7.7.94l-.23.11h-.35q-5.51,0-5.51-.82v-.35c0-.16.51-.31,1.52-.47v.24h.12c.16,0,.23-.12.23-.36a3.46,3.46,0,0,0,1.06.83h.59a.21.21,0,0,0,.23-.24,3.6,3.6,0,0,1-1.88-.7l.47-.59h-.23l-1.52.7a1.05,1.05,0,0,0-.36-.11,1.29,1.29,0,0,1-.58.23c-.08,0-.12.2-.12.59a.89.89,0,0,0,.35.12v.11a.21.21,0,0,1-.23.24c-1.49-.27-2.23-.5-2.23-.71l.12-.23H122l-.7.12c-.47-.21-.7-.36-.7-.47s0-.12.11-.12a.83.83,0,0,1-.11-.35h-.12c0,.31-.12.47-.35.47a15,15,0,0,1-5.39-4.1,2.09,2.09,0,0,0,.93-1.64c.36-.55.6-.82.71-.82v.23h.82c.23-.08.35-.31.35-.7h-.24l-.58.58a1.09,1.09,0,0,1-.12-.58l-.23.11h-.24l-.82-.93v-.24a.84.84,0,0,0,.12-.35,1,1,0,0,0-.59-.12c0,.24-.15.35-.46.35v.12a.89.89,0,0,1,.93.82l.35.47V35l-.35.47h.12l-.12.23.12.59q-.47.93-1.05.93a9.86,9.86,0,0,1-.83-1.17v-.35h.24V35.5l-.24.11h-.11c-.47,0-1-1.48-1.53-4.45a1.23,1.23,0,0,1-.11-.59l.23-.11h.82c0,.23.08.35.24.35h.23c.05-.31.16-.47.35-.47h1.17a.11.11,0,0,1,.12.12l.24-.12H122c.11,0,.23.12.35.35v.24a5.67,5.67,0,0,1-3.16,3.28c-.86.26-1.29.5-1.29.7V35l.12.58h.23a.79.79,0,0,1-.11-.35c0-.37.42-.61,1.28-.7q0-.24.24-.24h.12v.12a1.44,1.44,0,0,1-1.18.82v.24h.12c1-.32,1.52-.78,1.52-1.41a2.37,2.37,0,0,1,1.18-.59l.23.36v.46l-.23.36v.11h.35l.11-.7a1.38,1.38,0,0,1-.23-.7c0-.52.51-1.26,1.52-2.23l.59.47h.35a.11.11,0,0,0,.12-.12q.23,0,1.29,1.53a8.15,8.15,0,0,0,4.8,1.52,15,15,0,0,0,2.93,2l2.93-.82a3.38,3.38,0,0,0,.82.12l.82-.12a10.84,10.84,0,0,0,2,.47,5.2,5.2,0,0,0-3.39-1.05.11.11,0,0,0-.12-.12,3.7,3.7,0,0,1-2.23.58c0,.16-.26.28-.7.36-1.2-.82-1.83-1.32-1.88-1.53v-.12c2.35-.35,3.52-1.17,3.52-2.46V31.4q0-2.58-9.49-4.34a.11.11,0,0,0-.12-.12l.12-.23v-.12c0-.16-.08-.23-.24-.23l-.47.46c-2.59-.57-4.11-1.21-4.54-1.89-.32-.14-.79-.37-1.43-.68V23.9l.58.11c0-.15-.46-.27-1.4-.35-2.74-2.33-4.1-4.48-4.1-6.44-.08,0-.16-.28-.24-.82a3.39,3.39,0,0,1,.71-.94c-.55-.06-.83-.34-.83-.82a.94.94,0,0,0,.12-.35h.24a5.62,5.62,0,0,0,.82.82l-.12.23v.12c.61,0,1.19.51,1.76,1.52l.47.35H117V17.1l-1.52-1.88a.84.84,0,0,0,.12-.35H115c-.86-.58-1.29-1-1.29-1.4l.47-2.35h.24l.35.24h.11c-.31-.32-.46-.55-.46-.71a10.32,10.32,0,0,1,4.45-5.39,19.36,19.36,0,0,1,10-2.93.94.94,0,0,1,.47.12,14.46,14.46,0,0,1,1.64-.12h1.4a1.85,1.85,0,0,1,.94.24.94.94,0,0,1,.47-.12c.28,0,.48.51.59,1.52.62,0,1.09.63,1.4,1.88.25,0,.41.55.47,1.64l-.47.35h-.58a.21.21,0,0,1-.24-.23.92.92,0,0,1,.12-.36,9.69,9.69,0,0,1-.35-2.34h-.24a.3.3,0,0,1-.35.35.94.94,0,0,0,.12.47v.35c.09,0,.29.24.59.71v.82l-.94.7A7.87,7.87,0,0,0,135.7,8c.55.37.82.72.82,1V10l.12.23c-.09,0-.29.24-.59.71v.7l.59.7v.12c0,.41-.27.76-.82,1.06-.08.85-.2,1.28-.35,1.28h-.12q-.24,0-1.17-2.1a6.38,6.38,0,0,0-3.28-1.18h-2c-2,0-2.93.71-2.93,2.11q0,2.65,7.85,4.22c0,.08-.43.27-1.29.59v.11l-.82-.11h-.24A3.32,3.32,0,0,1,130.71,18.74ZM114.26,31v.24a5.25,5.25,0,0,0,1.29,1.4v-.11A4.13,4.13,0,0,0,114.26,31Zm.82-21.32L115,10v.12h.47C115.43,10,115.31,9.84,115.08,9.72Zm.23,1.4-.11.24c.15,0,.23.11.23.23v.12a5.83,5.83,0,0,0-.23.94v.11h.11c0-.29.43-.76,1.29-1.4l-.47-.12c0,.11-.11.23-.35.35h-.23C115.55,11.28,115.47,11.12,115.31,11.12ZM116.25,31v.12c.39.34.59.54.59.59v.35l-.24.35v.12H117V31.51C117,31.39,116.72,31.23,116.25,31Zm.23,2.11c0,.19.28.31.82.35C117.3,33.32,117,33.2,116.48,33.15ZM119.06,9a.79.79,0,0,0-.35-.11,3.48,3.48,0,0,1-1.29.46,8,8,0,0,1-.58,1.29h-.12v.24h.35c.36-1.1,1-1.64,1.76-1.64a5,5,0,0,0,1.29-.35l.58.11c0-.08-.19-.23-.58-.47Zm-2-1.17V8h.47V7.49h-.12C117.31,7.49,117.2,7.61,117.07,7.84Zm2.67,10.69.19-.24a4.14,4.14,0,0,1-.75.1,6.26,6.26,0,0,1-1.64-1.17,1,1,0,0,1-.35.11v.12l1.64,1.17ZM118.24,6a4,4,0,0,1-.7,1.4h.12q.18,0,1-1.17V6.08A1,1,0,0,1,118.24,6Zm.59-.36h.23c.16,0,.24-.07.24-.23V5.26C119,5.37,118.83,5.49,118.83,5.61ZM119,35.73l-.12.59v.11h.23l.12-.7Zm.86-11.48c0-.07-.1-.14-.16-.24v.24Zm.71-6.31.3,0h.47l.23.12c0-.1.35-.33,1.06-.71a1.92,1.92,0,0,0,.94.35c.15,0,.23,0,.23-.11l2.81.23a.94.94,0,0,1,.35-.12,6.67,6.67,0,0,0,2.46,1.53c.38-.17.68-.3.9-.38a23.43,23.43,0,0,1-2.07-1.15,1.31,1.31,0,0,0-.82-.35l-.23.12a1,1,0,0,0-.94,0,5,5,0,0,0-1.29-.23l-.7.11a1.31,1.31,0,0,0-.59-.23v-.7a1.11,1.11,0,0,1,.12-.59l-.12-.7A6.51,6.51,0,0,0,124,13.7v-.82a1.38,1.38,0,0,0,.47-.94v-.12h-.11c0,.33-.24.68-.71,1.06l.12.82a6.17,6.17,0,0,1-.35,1.05l.12,1.41c-.1,0-.25.31-.47.94A17.55,17.55,0,0,0,120.52,17.94Zm.07,4.17V22h0A.16.16,0,0,1,120.59,22.11Zm0,15.85v.11c.29,1.25.53,1.88.7,1.88l-.12.59.12.58h.12c0-.17,0-.6.11-1.29-.31,0-.54-.74-.7-2.22a1.2,1.2,0,0,0,.23-.59C120.85,37,120.69,37.33,120.59,38Zm.46-28.83v.12a1.05,1.05,0,0,1,.36.11h.11V9.25a.89.89,0,0,1-.35-.12Zm.59,28.24H122l.59-.12V37c-.24,0-.35-.08-.35-.23v-.12l.23-.35v-.24h-.12C122.23,36.1,122,36.53,121.64,37.37ZM122,9.6h.12l1-.12V9.13h-.11C122.34,9.35,122,9.5,122,9.6Zm.47,14.06v.12l.47.12.12-.24Zm2.11,13a.21.21,0,0,1-.23.23,9,9,0,0,0-1.29-.11,5.78,5.78,0,0,1-.47,1.17h.11c.24-.55.94-.82,2.11-.82.39,0,.59-.08.59-.24A1.49,1.49,0,0,1,124.57,36.67Zm-1.52,5-.12.23C123.71,41.94,123.75,41.86,123.05,41.71Zm1.17-11.37h.58c.11,0,.23.12.36.35v.47q-.36,0-.36.12c-.62-.24-.93-.47-.93-.71Zm-.12-6.91v.23h.35a.2.2,0,0,0-.23-.23Zm.59.11c0,.13.27.28.82.47h.11V23.9A3,3,0,0,0,124.69,23.54Zm0,11.61c.15,0,.23.1.23.23l-.12.23h.12c.14,0,.38-.27.7-.82v-.23C125,34.86,124.69,35.05,124.69,35.15Zm.7-1.88v.12l.12.7h.11v-.35a1,1,0,0,1-.11-.47Zm.23-22.73v.35h.12l.35-.24h.59v-.23h-.12Zm0,26.6h.12c1.1-.28,1.64-.52,1.64-.71a.21.21,0,0,0-.23-.23H127ZM126,24c0,.16.11.24.23.24h.12V24Zm.58-16.87v.35a7.22,7.22,0,0,0,.94,1V8.31a2.42,2.42,0,0,1-.7-1.41Q126.56,6.94,126.56,7.14Zm.82,2.34a1.41,1.41,0,0,1-.35.94v.12h.12c.09,0,.37-.32.82-.94ZM127,24.6v.58h.24v-.35A.21.21,0,0,0,127,24.6Zm.94,1v.12a1.06,1.06,0,0,1,.58.35h.12V26c0-.14-.19-.25-.58-.35Zm.35-3.4v.36h.35v-.36Zm.35,18.52v.12h.12a4.63,4.63,0,0,0,.47-1.17v-.24C129,39.48,128.84,39.91,128.67,40.77Zm.12-31.52H129a3.67,3.67,0,0,1,1.41-.47.94.94,0,0,0,.47.12.84.84,0,0,1,.35-.12V8.66h-.59C129.41,8.71,128.79,8.9,128.79,9.25Zm.12,29.41A1,1,0,0,1,129,39h.12l.23-.82h-.11C129.07,38.19,129,38.35,128.91,38.66Zm.23-34.92v.12h.23a.21.21,0,0,0,.24-.24V3.39h-.12C129.38,3.39,129.27,3.5,129.14,3.74Zm0,32.58v.23a.84.84,0,0,1,.35.12,1.15,1.15,0,0,1,.59-.94v-.12h-.24C129.73,35.61,129.5,35.85,129.14,36.32Zm.35-9.73.12.23v.12l-.12.24.24.11.11-.23v-.47Zm0,10.55v.35c0,.16.11.23.24.23v-.35A.21.21,0,0,0,129.49,37.14Zm.7-1.88v.24h.59l.59-.12v-.12Zm.47-9.49-.23.35v.12l.59-.12C131,26,130.9,25.9,130.66,25.77Zm.12-21v.47H131l.11-.58V4.56H131C130.86,4.59,130.78,4.67,130.78,4.79Zm1.06,2.82V8c.93-.17,1.4-.37,1.4-.59h-.12Zm.23,16.75-.12.24.24.12.11-.24ZM133.48,7v.12a1.18,1.18,0,0,0,.7-.59h-.12C133.7,6.71,133.51,6.86,133.48,7Zm.11,19.57h.24c.15,0,.27-.27.35-.82h-.12C133.91,25.77,133.75,26,133.59,26.59ZM134.77,2.8h.46a10.61,10.61,0,0,1,4.46,1.41v.11h-.24v.24l1.06-.12a14.82,14.82,0,0,1,2.69,2.11v.12a8.8,8.8,0,0,0-2.34,2.46,1.2,1.2,0,0,1-.59.23L140,9.25a1,1,0,0,1-.47.11,2.27,2.27,0,0,1-.7-.46h-.12v.46l.82.24h.35c.55,0,.82-.08.82-.24l.94.71h.12a.21.21,0,0,0,.23-.24V9.72c-.2,0-.44-.24-.7-.71a4.14,4.14,0,0,1,2.46-2c1.8,2.31,2.69,3.91,2.69,4.8l-.82.24a4.34,4.34,0,0,1-1-.7h-.47a.94.94,0,0,1-.12.35,7.47,7.47,0,0,0,2.11.58l.47-.11a5.69,5.69,0,0,1,.59,2.46l-.24.11a3.31,3.31,0,0,1-.82-.11,9.81,9.81,0,0,1-1.52.11h-.12c-.08,0-.12,0-.12-.11l-.23.11c-.08,0-.12,0-.12-.11l-.23.11h-2.35l-.35-.23a2.61,2.61,0,0,0,.24-.82l-.24-.12a1.19,1.19,0,0,1-.58,1.17h-.35c-.32,0-.47,0-.47-.11l-.82.11h-2a.74.74,0,0,1-.46-.7,3.68,3.68,0,0,0,.93-1.52v-.24a2.14,2.14,0,0,1-.7-1.17c.47-1.4,1.09-2.11,1.88-2.11V8.9c-.55-.27-.83-.5-.83-.71V8h-.46c-.47,0-.71-.16-.71-.47a1.24,1.24,0,0,0,.24-.59.21.21,0,0,1-.24-.23V6.08l.12-.23c-.2,0-.4-.2-.59-.59.55-.14.82-.29.82-.47h-.82l-.23.12c0-.28-.43-.91-1.29-1.87Q134.57,2.8,134.77,2.8Zm.23,22-.35.59h.23c.11,0,.23-.12.35-.35S135.16,24.83,135,24.83ZM134.88,9.6v.23h.59a.21.21,0,0,0,.23-.23l-.11-.24A1.81,1.81,0,0,1,134.88,9.6Zm.82,15.58v.12h.24a.21.21,0,0,0,.23-.23v-.24h-.12C135.94,24.83,135.83,25,135.7,25.18Zm.82-.93h.24l.58-.12v-.35H137C136.87,23.78,136.71,23.93,136.52,24.25Zm0,1.29v.11h.12c2-.5,3.38-.89,4.22-1.17v-.12h-.12A13.35,13.35,0,0,0,136.52,25.54Zm.82-17.23.24.47c-.1.39-.21.58-.35.58s-.27-.23-.47-.7V8.43ZM137,6.9l.24.12h.35c.12,0,.28-.16.47-.47V6.43c-.16,0-.24-.11-.24-.35h-.23A1,1,0,0,0,137,6.9Zm4.34,31.29a13.06,13.06,0,0,0,2.46,1.41,12.62,12.62,0,0,1-5.27,2.81l-.12-.23c.09-.71.37-1.06.82-1.06s.47-.24.47-.35v-.23a.91.91,0,0,0-.12-.47c.45-1.17.8-1.76,1.05-1.76C141.09,38.31,141.33,38.27,141.33,38.19Zm-2.81-26.25v.12h.11c.13,0,.28-.16.47-.47v-.23H139C138.87,11.36,138.72,11.55,138.52,11.94ZM139,7.72l-.11.24v.11c0,.16.11.24.23.24h.12V8A.21.21,0,0,0,139,7.72Zm.12,17.93-.12.24.24.11.12-.23ZM139.1,6c.08,0,.12,0,.12.11l.23-.11h.82V5.5C139.49,5.65,139.1,5.81,139.1,6Zm.59,1.64v.23H140V7.61Zm1.4,5.27v.23c.16,0,.24-.07.24-.23v-.23C141.17,12.68,141.09,12.75,141.09,12.88Zm.12,7.27h.12a13,13,0,0,1,4.33,2.92,4.34,4.34,0,0,1-3,.94,7.58,7.58,0,0,1-1.41-2.81Zm4.92,3.63c.55,0,1.21,1.33,2,4l.24,1.53a.94.94,0,0,1-.12.35,3.31,3.31,0,0,1,.12.82c0,1.64-.24,2.46-.7,2.46v.23h.23v.24q0,2.37-3.52,5.86h-.11a3.69,3.69,0,0,0-2.46-1.06v-.35a.46.46,0,0,0,.35-.23l-.24-.47a9.39,9.39,0,0,1,2.58-4.81h.35v-.11c-.47,0-.7-.12-.7-.36V31.4c0-.4.12-.59.35-.59v-.12c-.47,0-.7-.19-.7-.58l-.12-.47a3.5,3.5,0,0,1,.7-1.17v-.36c0-.12-.54-.43-1.64-.93a2.51,2.51,0,0,0-.23-.82,3.44,3.44,0,0,1,1.05-1.76.11.11,0,0,0,.12-.12l.59.12A3.42,3.42,0,0,0,146.13,23.78Zm-4-14.18v.23h.35a.2.2,0,0,0,.23-.23c0-.16-.07-.24-.23-.24h-.12C142.23,9.4,142.15,9.47,142.15,9.6Zm.23,27.77v.12c0,.16.11.23.24.23h.11v-.35Zm.94-27.77v.12c0,.15.11.23.23.23l.24-.35Zm0,.7v.47l.47.12v-.24c0-.11-.12-.22-.35-.35Zm.94-.23v.11c0,.16.11.24.23.24h.35v-.35Zm.82,22.15c0,.15.11.23.23.23h.24c0-.16-.08-.23-.24-.23Zm1.64,0v.11c0,.11.19.27.58.47h.12v-.12c-.23-.2-.35-.36-.35-.46Zm.82-4.93-.35.71a.79.79,0,0,1,.11.35h.24a4.07,4.07,0,0,1,.23-1.06Z"/><path class="cls-2" d="M2.32,40.18l.35.71v1.17l-.58.12H1.73a.21.21,0,0,1-.23-.24A6.67,6.67,0,0,1,2.32,40.18ZM24.94,13.35l.47.12a5.8,5.8,0,0,1,1.05-.12c.14.44.65.79,1.52,1.05a14.23,14.23,0,0,0,.82,3l-.11.82c.15,0,.39.51.7,1.52l.82.94-.23.94.11.82a6.43,6.43,0,0,0-.11.94l1.75.82a2.4,2.4,0,0,0-.82,1.4c0,.78-.23,1.17-.7,1.17q0,.24.24.24h.11l.35-.24H31c.22,0,.38.4.47,1.18a14.06,14.06,0,0,1-1.64,2.93c-.2.86-.4,1.29-.59,1.29H29a11.44,11.44,0,0,0-2.34-.82.91.91,0,0,0-.47.11,3,3,0,0,0-.94-.23l-2.23.7-.47.12a7.61,7.61,0,0,1-2.93-2.35c0-.15.11-.23.24-.23h5.74c0-.3-.51-2.13-1.52-5.51a6.58,6.58,0,0,1-.35-1.29.1.1,0,0,0,.11-.11c-.26-.24-.93-2.35-2-6.33l-.23-.12A32.23,32.23,0,0,0,20,21.08h.11a30.5,30.5,0,0,1-1.87,5.86.94.94,0,0,1,.12.35c-.11.55-.27.82-.47.82h-.47a3.61,3.61,0,0,0-.94.12c-1-.05-1.52-.36-1.52-.94h-.12l-.35.24c0,.29.31.69.94,1.17h.93l1.41-.12a.94.94,0,0,1,.12.35l-.12.59h.47a.79.79,0,0,1,.82.47v.23l-.47.12v.35h.12l.47-.35h.11c0,.52.94,1.26,2.82,2.23,0,.08.07.11.23.11l2.46-.7h.35a6,6,0,0,1,1.06.12,1.73,1.73,0,0,1,.7-.24,6.52,6.52,0,0,0,2.34.59V33c0,.07,0,.11.12.11,0,.22-.66.57-2,1.06-.16,0-.55-.35-1.17-1.06v.24q.39.93,1.05.93c0,1.47-.31,2.33-.94,2.58-.25,0-.56.28-.93.82H21.77l-.35-.23a1.29,1.29,0,0,1-.7.23H17l-.35-.23-.59.12-.12-.24a5.87,5.87,0,0,0-1.87.7V38c-.63.08-.94.19-.94.35v.23c.31.28.47.48.47.59h.12v-.7a6.78,6.78,0,0,1,1.4-.24c-.28,1.49-.55,2.23-.82,2.23V41c-.2,1.25-.43,1.88-.7,1.88H10.88c-.55,0-.83-.08-.83-.23a1.38,1.38,0,0,1-.7.23H4.9a6,6,0,0,1-1.06-.12,1.09,1.09,0,0,1-.58.12.94.94,0,0,0-.35-.12v-.35L3,41.59a1.88,1.88,0,0,1-.7-1.52c.36-1.49.63-2.23.82-2.23a1.91,1.91,0,0,1,1.06.35h.23V38a4,4,0,0,0-1.17-.24v-.23a37.05,37.05,0,0,1,2.11-6l.58.12h.24c.11,0,.26-.2.47-.59a.21.21,0,0,0-.24-.23H6.19c0,.31-.08.47-.24.47H5.72L6,30.93v-.12c-.23,0-.35-.08-.35-.24Q8.06,24,8.88,21.43H9A6,6,0,0,1,11.58,25a3.6,3.6,0,0,0-.24,1.29l.12,1.05A30.74,30.74,0,0,1,9.35,30c0,.11-.47.26-1.4.47C7.32,30.75,7,31,7,31v.36c0,.15.11.23.23.23l.24-.82H8a7,7,0,0,0,.93-.24c-.22.47-.49.71-.82.71v.23H8.3a1.39,1.39,0,0,0,1-1.29,3.18,3.18,0,0,1,1.17-.58,2.8,2.8,0,0,1,.24.93c-.16,0-.24.11-.24.24V31h.12c.19,0,.31-.35.35-1.05a.21.21,0,0,1-.23-.24v-.11c0-.61.51-1.39,1.52-2.35.2.32.79.51,1.76.59a.89.89,0,0,1,.35-.12v-.35a.89.89,0,0,1-.35-.12,5.63,5.63,0,0,1-.94.12c-.78,0-1.17-.51-1.17-1.52a4.28,4.28,0,0,0,.23-1.06c0-.73-1-2.1-2.93-4.1v-.12a59.15,59.15,0,0,1,2.58-6.91h.12c.39,0,.59.08.59.23a2.42,2.42,0,0,0,.46-.11c1.32.08,2.33.11,3.05.11a7.85,7.85,0,0,0,2.58,1.53c0-.14.39-.34,1.17-.59a4.46,4.46,0,0,0,1.06.24c.54-.27.82-.46.82-.59l.58.12A16.76,16.76,0,0,1,24.94,13.35Zm-19.69,24v.12c0,.16.11.23.23.23H6c0-.11-.11-.22-.35-.35ZM9.7,35.15l-.11,1.17v.11l.23.36v.11A3.81,3.81,0,0,1,8.41,38H8a6.68,6.68,0,0,0-1.06.11,1.38,1.38,0,0,0-.7-.23c0,.11.23.31.7.59a6.92,6.92,0,0,0,.94-.24l.58.12a3.79,3.79,0,0,0,1.64-1.17,5.55,5.55,0,0,1-.23-1.06,3.31,3.31,0,0,0,.12-.82Zm-3.4,4v.12c.13,0,.29-.16.47-.47v-.12C6.65,38.66,6.49,38.82,6.3,39.13Zm.94-7.62v.24h.24a1,1,0,0,1,.11-.47H7.48C7.32,31.31,7.24,31.39,7.24,31.51Zm.47,8.67a.11.11,0,0,1,.12.12c.31-.12.47-.24.47-.35l-.24-.12C8,39.83,7.84,40,7.71,40.18Zm1.41-7.26L9,33.39c.16,1.09.31,1.64.47,1.64h.12v-.12a6.35,6.35,0,0,0-.47-1.64L9.23,33v-.12Zm.23-2.35v.36h.12a.89.89,0,0,1,.35-.12.21.21,0,0,0-.23-.24Zm.35.83v.23h.35c0-.16-.07-.23-.23-.23Zm.35,6.32v.12c.24,0,.36.08.36.23l-.12.59.23.12c0-.47,0-.71.12-.71a1.18,1.18,0,0,1-.23-.58h-.12C10.13,37.52,10.05,37.6,10.05,37.72Zm0,3.87c0,.16.11.23.24.23l.12-.23v-.23h-.12C10.13,41.39,10.05,41.47,10.05,41.59Zm.24-9.26v.47h.35a.21.21,0,0,0,.24-.23l-.36-.24Zm.35-.82-.12.59c.11,0,.23-.12.36-.35v-.24Zm0,2.11H11v-.23h-.11C10.72,33.42,10.64,33.5,10.64,33.62Zm0,7.27V41h.12a.2.2,0,0,0,.23-.23v-.12h-.11Q10.64,40.7,10.64,40.89Zm.24-21.8v.12l.58.11h.12v-.23h-.24c-.07,0-.11,0-.11.12L11,19.09ZM14,32.45a4,4,0,0,0-.94-.23c-.23.07-.35.15-.35.23A4.67,4.67,0,0,1,11.46,32h-.12l.12.24v.11l-.23.35v.12l.11.24.59-.36c1.42-.07,2.32-.11,2.7-.11,0-.14.39-.3,1.17-.47V32c0-.16-.08-.23-.24-.23h-.11A3.55,3.55,0,0,1,14,32.45Zm-2.7,5.16h.36v-.24h-.12Q11.34,37.42,11.34,37.61ZM15.68,3.15h4l.82.24a4.46,4.46,0,0,1,1.06-.24h.7a.11.11,0,0,1,.12.12l.23-.12h.12l.47.59L24,3.5c.58.3.89.54.94.71V5.38c0,.08,0,.12.11.12a3.22,3.22,0,0,1-.58.82v.47a2.5,2.5,0,0,0,.58,1q0,.66-.93,1.17v.35a16.14,16.14,0,0,0,.47,2.93,4.06,4.06,0,0,0-1.76,1.06,2.39,2.39,0,0,0-.82.23l-.24-.11a2.82,2.82,0,0,1-1.17.46L20,13.82c0,.11-.43.26-1.29.47A20.17,20.17,0,0,1,16.38,13a.91.91,0,0,0-.47-.12H14.27a4.78,4.78,0,0,1-1-.23c-.31.06-.47.14-.47.23-.36-.16-.55-.31-.59-.47q2-6,2.47-6.44l-.12-.24A11.54,11.54,0,0,1,15.68,3.15Zm-3.52,34.1v.24h.94a.21.21,0,0,0-.23-.24Zm1.06-18.16c0,.13.27.28.82.47h.35v-.12Zm.7,10.55-.7,1.4h.35a1.86,1.86,0,0,1,.47-.82v-.58Zm-.23-.94v.12a.79.79,0,0,1,.11.35h.12V28.7Zm.82-6.91-.24.35c0,.15.11.23.24.23h.12a.21.21,0,0,0,.23-.23V21.9A1,1,0,0,1,14.51,21.79ZM15.91,5a1.28,1.28,0,0,1-.46.82l.23.12.47-.82Zm-.46,15.12v.46h.23v-.23A.2.2,0,0,0,15.45,20.15Zm.7.82c.09.21.48.49,1.17.82h.12v-.12a5.37,5.37,0,0,1-1.17-.7Zm.35,4.21h.12c.23,0,.47-.23.7-.7H17.2C17.09,24.48,16.86,24.72,16.5,25.18Zm.12-7.5a.86.86,0,0,1,.11.36h.36v-.36Zm.35-13v.11h.23a3.06,3.06,0,0,1,1.41-.47V4.21h-.47A4.24,4.24,0,0,0,17,4.68ZM17.32,34a6.76,6.76,0,0,1,.12.71,6.24,6.24,0,0,1-.35,1.64A1.66,1.66,0,0,0,17.67,35c-.08-.56-.12-.88-.12-.94.4-.2.59-.36.59-.47V33.5A.79.79,0,0,0,17.32,34Zm.23-2.11.36.24c0-.47.19-.7.58-.7v-.24h-.11A1.19,1.19,0,0,0,17.55,31.86Zm.24-8.08v.12H18v-.36C17.87,23.57,17.79,23.65,17.79,23.78ZM17.91,22l.11.59h.24V22Zm0,10.66V33c0,.15.11.23.23.23v-.35A.21.21,0,0,0,17.91,32.68Zm.11-8V25h.12a.21.21,0,0,0,.24-.23Zm.71-20.63v.12l.58.11h.24V4.09Zm.11,17.46v.12h.36a.21.21,0,0,0,.23-.24v-.11h-.35C18.92,21.35,18.84,21.43,18.84,21.55Zm0,9.38h.71a.21.21,0,0,0,.23-.24h-.7Q18.84,30.74,18.84,30.93ZM23.3,5v.23H24V4.91h-.12Zm.82,15.58v.12h.23a.21.21,0,0,0,.24-.23v-.12h-.24C24.2,20.41,24.12,20.49,24.12,20.61ZM25.29,3.15h.12a5.55,5.55,0,0,1,.93.12,3.45,3.45,0,0,1,.82-.12c.1.39.22.59.36.59a1,1,0,0,0,.11-.47h.71c.31,0,.5.47.58,1.41-.08,0-.12,0-.12.11l-.23-.11-.7.11-.59-.47h-.23c0,.43.31.7.93.83A6,6,0,0,1,29,5a9.63,9.63,0,0,1,1.05,2.69c-.11,0-.3.2-.58.59v.94a4.47,4.47,0,0,1-.82,2h.23a5.42,5.42,0,0,0,.82-2.81.67.67,0,0,1,.59-.24Q33.49,16.73,34,18.62v.12a6.25,6.25,0,0,1-3.05.7,7.08,7.08,0,0,1-1.4-4,4.5,4.5,0,0,1-.59-1.53.9.9,0,0,0,.12-.46c0-.19-.43-.47-1.29-.82,0-.11-.23-.35-.7-.71a1.91,1.91,0,0,0-1.06.35h-.11c-.63,0-.94-.78-.94-2.34a1.43,1.43,0,0,1-.12-.7c.09,0,.41-.32.94-.94V8.07a10.33,10.33,0,0,0-.71-1.52V6.43a4.68,4.68,0,0,1,1.41-2,.94.94,0,0,0,.47.12V4.21c-.55,0-.82-.24-.82-.71h-.59a.2.2,0,0,1-.23-.23Zm.23.59c.32.11.47.23.47.35v.35c0,.11-.11.23-.35.35h-.23a.68.68,0,0,0-.36-.58A.66.66,0,0,1,25.52,3.74Zm-.47,15.94h.36a.21.21,0,0,0,.23-.24v-.12h-.23Q25.25,19.32,25.05,19.68Zm0,1.17V21h.12c2.66-.47,4-.86,4-1.18H29C27.62,20.14,26.29,20.49,25.05,20.85Zm1.06-6.45v.12l.59-.12v-.23h-.36C26.19,14.2,26.11,14.28,26.11,14.4Zm.7-6.91h.35c.11,0,.23-.12.36-.35V6.9H27.4C27.29,6.9,27.09,7.1,26.81,7.49Zm.71,13.59-.12.24.23.11.12-.23Zm3,14.3c0,.2.63.63,1.88,1.29h.23l.24-.12v.24c0,.07,0,.11-.12.11.12.32.24.47.35.47a3.62,3.62,0,0,0,1.17-.47l.82.12a3.57,3.57,0,0,0,1.29-.47,3.29,3.29,0,0,0,1.29.35h.47c.08,0,.12,0,.12-.11s.11,0,.11.11l1.41-.11h.35A4.51,4.51,0,0,1,40.88,39,.1.1,0,0,0,41,38.9q.46,0,1.88,4.8l-.24.12a7.23,7.23,0,0,1-1.4-.12,7.42,7.42,0,0,1-1.41.12,4.71,4.71,0,0,0-.47-1.41L40.76,40l.12-.82h-.24c-.11,0-.3.51-.59,1.52a3.41,3.41,0,0,0-.93,1.53v.23a6.53,6.53,0,0,1,.11,1.17l-.82.24H36.89l-.47-.35a1.31,1.31,0,0,1-.82.35h-.7a6,6,0,0,1-1.17-.12,4.13,4.13,0,0,1-1.06.12H32.2c-.07,0-.11,0-.11-.12l-.24.12h-1.4q-.33,0-1.76-5.16h-.82a.21.21,0,0,1-.24-.23v-.12c.63,0,.94-.27.94-.82l-.12-.24c.38-1.25.81-1.87,1.29-1.87ZM28.92,20.5v.11c.16,0,.24-.07.24-.23v-.12Q28.92,20.31,28.92,20.5Zm5.39-.94q.28,0,1.29,3.51l-.12.24a17.77,17.77,0,0,1,1.88,4.45,8.7,8.7,0,0,1,.35,1.06,1.41,1.41,0,0,1-.94.23c0,.16.39.27,1.18.35.62,1.66,1.13,3.1,1.52,4.34a2.29,2.29,0,0,1-1.41.82,11.53,11.53,0,0,1-2.22-.47c0,.11-.24.27-.71.47l-1.4-.12a.79.79,0,0,1-.82.47h-.12a8.16,8.16,0,0,0-1.52-1.17.91.91,0,0,0-.47.12,1.81,1.81,0,0,0-.71-.24V33.5l.47-.46-.23-.36a10.09,10.09,0,0,1,2.34-4.8l-.12-.82v-.82c-.31,0-.46-.39-.46-1.17a3.33,3.33,0,0,1,.7-1.17v-.36C31.62,23,31,22.57,31,22.25a4,4,0,0,1-.12-1.05c.13,0,.44-.39.94-1.17A6.17,6.17,0,0,0,34.31,19.56ZM30.91,32.8v.35h.24V32.8Zm2-5.15v.11l.58.12h.24c0-.16-.08-.23-.24-.23Zm0,4,.23.12a.21.21,0,0,0,.24-.24V31.4h-.24C33,31.43,32.91,31.5,32.91,31.63Zm.7-2.11-.12.23h.35A.2.2,0,0,0,33.61,29.52Zm.94-5.27-.12.23.23.12h.47C35.13,24.46,34.94,24.34,34.55,24.25Zm.58,3.51V28a5.62,5.62,0,0,1,1.41.82V28.7a6,6,0,0,0-1.17-.94Zm0,2.7v.11h.24a.2.2,0,0,0,.23-.23v-.12h-.23Q35.13,30.27,35.13,30.46Zm.59.82c0,.15.11.23.23.23h.12V31H36C35.8,31.07,35.72,31.15,35.72,31.28Zm.23-.71v.24h.35v-.24ZM38,41v.36h.11a.21.21,0,0,0,.24-.24V41Zm1.64-6.91.11.23-.23.12h-.12v-.12C39.38,34.17,39.46,34.09,39.59,34.09Z"/><path class="cls-2" d="M44.06,15.22c.27.47.54.71.82.71,1.32-.16,2.06-.24,2.23-.24.55.19.82.35.82.47a9.75,9.75,0,0,0-.35,1.17v.12A9.61,9.61,0,0,1,49.69,22c.33,0,.6.82.82,2.46v.12l-.24.12h-.7a1.76,1.76,0,0,0-1.52,1.17v.35a1.06,1.06,0,0,1,.58.35v-.12l-.11-.82,1.28-.58H50a16.63,16.63,0,0,1,2.46.23.89.89,0,0,1,.35-.12l.24.36V26c0,.4,0,1-.12,1.76h.12L53,28a1,1,0,0,0,.12.47,1.41,1.41,0,0,1-1.41.7.21.21,0,0,0-.23-.24L50,29.17v.23h.12c.17,0,.6,0,1.29-.11a1.91,1.91,0,0,0,.7.35l1.29-.71-.12-.58h.23A7.09,7.09,0,0,1,54,30.22a.84.84,0,0,1-.35.12v.23h.24l.35-.23.23.35v.12l-.11.23a11.94,11.94,0,0,1,2.22,1.88,10.29,10.29,0,0,0,3.75,1.17l.7-.12h1.06l.23-.11.12.23v.23c-.53,0-.88.4-1.05,1.18a1.64,1.64,0,0,1,.35.93,12.34,12.34,0,0,0-1.76.71,3.58,3.58,0,0,1-1.17-.24c-.06,0-.65.2-1.76.59l-1.52-.24c-.47.11-.71.23-.71.36.16,0,.36.15.59.46h.12c.06-.39.18-.58.35-.58h.23v.23l.24-.11h.35l.35.23h.23a14.91,14.91,0,0,1,3.29-.7c0-.17.43-.29,1.29-.35a16.77,16.77,0,0,0,.82,2.57c-.11.32-.23.47-.36.47a19.2,19.2,0,0,0,1.53,2.46L64,43a16.25,16.25,0,0,1-3.16.47.92.92,0,0,1-.12-.36h-.47c0,.32-.07.47-.23.47h-.82q-5.58-.34-5.86-.93l.12-.24h-.12l-.47.24q-5.6-2-6.56-4a.11.11,0,0,0-.12.12A15.38,15.38,0,0,1,41,30.22c-.11,0-.27-.62-.47-1.87a1.09,1.09,0,0,1,.58-.12l-.7-.47v-.58a.79.79,0,0,0,.82-.47.21.21,0,0,0-.23-.24H40.9l-.59.12c0-.08,0-.12-.11-.12s0-1-.12-2.81q.33-7.38,1.4-7.38a3.09,3.09,0,0,1,2.35-1.06Zm14.42-13v.11l.23-.11h2.46a8.79,8.79,0,0,1,1.29.11c.08,0,.12,0,.12-.11,3.12.43,4.69.86,4.69,1.28.31.11.46.23.46.36V4c-.23,0-.35,0-.35.12A.84.84,0,0,0,67,4c-.94,0-1.48.82-1.64,2.46a5.59,5.59,0,0,0-.7,1.18.1.1,0,0,0,.11.11,10.23,10.23,0,0,1-.23,1.53.91.91,0,0,1,.12.47c-.46.62-.73.93-.82.93h-.35a10.87,10.87,0,0,1-3.64-2h-.11a6.24,6.24,0,0,0,3.39,2.58c0,.16,0,.23.12.23-.11.47-.23.71-.35.71a8.36,8.36,0,0,0-2.58-.47q-5.06,0-6.8,6.09a29.91,29.91,0,0,0-.7,5,.94.94,0,0,1,.12.47v.82c0,.11-.12.23-.35.35H51.21c-.23,0-.47-.82-.7-2.46-.27,0-.46-.27-.59-.82a.94.94,0,0,0,.12-.47V20.5l-2-3.64a2.89,2.89,0,0,0,.47-1.17,3.94,3.94,0,0,1-2-1.4h-.11l.11.82-.23.11h-.12a1.29,1.29,0,0,1-.7-.23l-.47.23a4.06,4.06,0,0,1-1.41-.82h-.23a.11.11,0,0,1-.12.12c0-.23-.08-.35-.23-.35a6.27,6.27,0,0,1-1.53,1.17c0-.08,0-.12-.11-.12q.56-3,4.8-7.73A19.27,19.27,0,0,1,56,2.57l.11.23c-.15,0-.23.11-.23.24l.23.11h.12L56.48,3a.87.87,0,0,1,.24.58H57c.94-.31,1.41-.62,1.41-.94-.31,0-.47-.07-.47-.23ZM41.84,21.67v.12c0,.15.11.23.23.23a.2.2,0,0,0,.23-.23v-.12Zm0,6.09V28h.46v-.24Zm2.22-14.53h.71A.21.21,0,0,0,45,13l-.23-.12C44.3,13,44.06,13.07,44.06,13.23Zm.24,16.29h.11l.71-.12v-.23H45C44.53,29.25,44.3,29.36,44.3,29.52ZM50.74,8.78h-.58c-.39-.27-.59-.42-.59-.47l-.23.12h-.82a1,1,0,0,0-.47.11l-.24-.11-.58.11a1.41,1.41,0,0,0-.71-.23v.23c.47,0,.71.2.71.59s-.24.47-.47.47a6.8,6.8,0,0,0,.12.7c-.32.86-.63,1.29-.94,1.29v.35c.47,0,.7.2.7.59v.12a2.32,2.32,0,0,0-1,2.1v.12a6.28,6.28,0,0,1,2.69-2,6,6,0,0,1,2.46-1.29c0-1.8.63-2.69,1.88-2.69a9.13,9.13,0,0,1,3.16-1.53,1.92,1.92,0,0,0,.94.35,5.13,5.13,0,0,0,1.41-.23l.58.12L59,7.49a2.07,2.07,0,0,0,.82.35l1-.12c0,.21.7.68,2.11,1.41V9C61.74,7.84,61,7.25,60.82,7.25a1.29,1.29,0,0,1-1.17-.46l-.59.11h-.58c-.08,0-.12,0-.12-.11L57,7.25h-.47V7c0-.14.2-.26.59-.35L57,5.85V5.61a4.31,4.31,0,0,1,.35-1.05,1,1,0,0,1-.11-.35A8.56,8.56,0,0,0,55.9,6.67c-.66,0-1.83.55-3.52,1.64Zm-5.15,19.8v.24c.23,0,.35.08.35.23v.24c-.24,0-.35.07-.35.23a1,1,0,0,1,.7.47v-.12l-.12-.58.24-.12h.23l.47.35h.23V29.4A2.47,2.47,0,0,0,45.59,28.58Zm.35,8.09-.12.58v.59a.2.2,0,0,0,.23-.23v-.94ZM46.29,35l-.12.58v.71c.17,0,.29-.43.35-1.29ZM47.46,8.78c.41.08.64.12.7.12a6.76,6.76,0,0,1,.71-.12l.7.12V8.78c.78.36,1.17.59,1.17.7v.35c0,1.1-.9,1.88-2.69,2.35,0,.22-.35.41-1.06.58a4.46,4.46,0,0,1-.23-1.29,6.35,6.35,0,0,0,.7-1.87.21.21,0,0,0,.24-.24L47.46,9Zm-.23-1.06a1.08,1.08,0,0,1,.11.35h.12V7.72Zm.47,21.8c0,.11.23.3.7.59h.23A.94.94,0,0,0,49.1,30a.94.94,0,0,0,.47.12q0-.24.12-.24a.84.84,0,0,1-.12-.35c-.62.05-.94.13-.94.23A1.94,1.94,0,0,0,47.7,29.52Zm.7-22.38.58.11h.12c.13,0,.28-.15.47-.46a.11.11,0,0,1-.12-.12C48.75,6.87,48.4,7,48.4,7.14Zm.47,26.13v.12h.23c.55-.39.82-.74.82-1.06h-.23C49.59,32.33,49.32,32.65,48.87,33.27Zm.82-18.4v.24l.82-.24v-.12a.21.21,0,0,0-.24-.23H50C49.93,14.52,49.81,14.64,49.69,14.87Zm.23-7.73v.35H50c.16,0,.23-.08.23-.24L50,7.14ZM50.63,6v.11h.58V5.85A.21.21,0,0,0,51,5.61C50.87,5.61,50.75,5.73,50.63,6Zm.93,24.37c0,.39-.27.78-.82,1.17.08.24.31.35.71.35a.1.1,0,0,1,.11-.11l.12.23a.89.89,0,0,1-.35.12v.35c0,.16.12.23.35.23a1.38,1.38,0,0,1,.7-.23c0,.16.39.31,1.17.47a.92.92,0,0,1,.36-.12v-.12c-.08-.23-.32-.35-.71-.35h-.35c0-.39-.27-.58-.82-.58V32a.84.84,0,0,0-.35-.12v-.11h.23v-.12c-.31,0-.46-.12-.46-.35a4.69,4.69,0,0,0,.35-.94Zm-.23-4.8v.11q0,.54,1.05,1.17h.24A5.38,5.38,0,0,1,51.33,25.54Zm.94-20.28v.12h.58V5.15Zm.35.82c.08,0,.11,0,.11.12a.63.63,0,0,0,.47-.47H53C52.86,5.73,52.74,5.85,52.62,6.08ZM53,31v.24c.11,0,.23-.12.35-.35A1,1,0,0,1,53,31Zm0,6.33v.12c.31-.13.47-.24.47-.35H53.2C53.05,37.17,53,37.25,53,37.37Zm.58-6a.87.87,0,0,1-.11.35l.23.11c.16,0,.24-.07.24-.23V31.4Zm0,4.8v.23h.24V36C53.63,36,53.55,36.07,53.55,36.2Zm.12-1.05v.35h.12a.84.84,0,0,1,.12-.35ZM54,5.26v.12h.24c.17,0,.29-.2.35-.59h-.12C54.37,4.79,54.21,5,54,5.26ZM55.66,39.6c0,.3-.31.53-.93.7,0,.16-.16.39-.47.7v.12h.23a.69.69,0,0,0,.47-.7h.59c.23-.08.35-.31.35-.7Zm-.58-3.75V36h.35c.16,0,.23-.08.23-.24v-.12h-.35C55.16,35.65,55.08,35.72,55.08,35.85Zm.47-31.06v.12H56V4.79Zm.58,30.36v.11h.24A.21.21,0,0,0,56.6,35l-.23-.12Q56.13,35,56.13,35.15Zm0,4.33q0,.24.24.24a.21.21,0,0,0,.23-.24Zm5.63,0c-.58.7-.93,1.06-1.06,1.06A5.06,5.06,0,0,1,59,40v.12L58.71,40h-.23a3.39,3.39,0,0,1-.94.35.94.94,0,0,0-.47-.12h-.23c0,.16.11.24.23.24h.59a7.12,7.12,0,0,0,1.17-.24c0,.11.12.23.35.36l.23-.12a7.88,7.88,0,0,0,1.76.35c.22-.62.53-.94.94-.94V39.6A.84.84,0,0,1,61.76,39.48Zm-3-29.88v.23h.35V9.6Zm.12,26.6v.12a1.33,1.33,0,0,0,.82-.35h.12a1.29,1.29,0,0,1,.82.35h.35c0-.17-.43-.37-1.29-.59C59.1,35.84,58.83,36,58.83,36.2Zm.23-30.82V5.5h.12c.11,0,.23-.12.35-.35V5h-.12C59.3,5,59.19,5.15,59.06,5.38Zm1.76,36.91v.12h.12a.84.84,0,0,1,.35-.12v-.23h-.24C60.9,42.09,60.82,42.17,60.82,42.29ZM61.05,6v.11l.59.12V5.85Zm.71.82V6.9H62a.21.21,0,0,0,.24-.23V6.55H62C61.84,6.58,61.76,6.66,61.76,6.79Zm.47,17.81c0,.11.27.38.82.82v.23l.58-.11a7.85,7.85,0,0,1,1.17,1.87,9.31,9.31,0,0,0,1.65,1.41l-.12.23.12.24a.87.87,0,0,1-.47.23l-.59-.35-.47.35H64a1.41,1.41,0,0,1-.7-.23,1.38,1.38,0,0,1-.7.23h-.24c-.17,0-.29-.43-.35-1.29a.11.11,0,0,1,.12-.12L62,27.29V24.83C62,24.68,62.1,24.6,62.23,24.6Zm4.92,6.33a3.13,3.13,0,0,0,.47.93,9.89,9.89,0,0,0,1.87-.35,1.94,1.94,0,0,1,1.64.82v.12l-.35.47v.23l.7,1.17-.11.24.11.7a10.46,10.46,0,0,1-1.75,2.35c-.63.07-.94.19-.94.35h1a6.87,6.87,0,0,1,1.29-1.64A1.83,1.83,0,0,1,72,35a.94.94,0,0,0,.35.12l.24-.12c.5,0,.89.31,1.17.94.31,0,.47.09.47.23l.23-.12h.12c.08,0,.24.2.47.59a16.79,16.79,0,0,1-.94,3.87,7.27,7.27,0,0,1-1.87.82v.11a2.42,2.42,0,0,0,1.87-.58h.47c2,.62,2.93,1.17,2.93,1.64l-.23.12H75.12a5.9,5.9,0,0,1-1.06-.12,1.33,1.33,0,0,1-.7.12v-.12l-.23.12H71.6l-.23-.12a2.54,2.54,0,0,1,.35-.82v-.12H71.6a.84.84,0,0,1-.35.12,13.59,13.59,0,0,1-.35-2.58h-.24a13,13,0,0,1-4.21,2.93c0,.2-.67.44-2,.7a3.38,3.38,0,0,0-1.17-2,2.54,2.54,0,0,0-.35-.82v-.12c.2-.78.44-1.17.7-1.17A5.67,5.67,0,0,1,66,38.19c0-.11-.12-.22-.35-.35l-2.35.47h-.12a6.56,6.56,0,0,1-1-3.28q.55,0,1.29-1.41Q64.95,33.32,67.15,30.93Zm-4-10h10.9c.32,0,.63.23.94.7.11-.47.23-.7.35-.7h2.81c.18,0,.41.82.71,2.46l-.71,1.87a3.25,3.25,0,0,1,1.53,2.81v1.18c0,.11-.12.22-.35.35a.92.92,0,0,0-.36-.12l-.11.23c.15,0,.23.11.23.24v.35a6.47,6.47,0,0,0-.47,2.23,5,5,0,0,1-2.11.58A3.26,3.26,0,0,0,75.7,33a10.05,10.05,0,0,1-1,2c0,.47-.12.7-.35.7-.36-.16-.56-.31-.59-.47v-.35c0-.16.11-.23.24-.23l-.12-.24q1.29-1,1.29-1.17l-.24-.12c-.23.08-.35.16-.35.24a.84.84,0,0,0-.35-.12c-.63.14-.94.3-.94.47v.12l.47.46c0,.24-.66.36-2,.36A6.45,6.45,0,0,0,71,32.8v-.12a12.64,12.64,0,0,0,1.52.47h.12q0-.23-1.29-1.17,0-1.29-2.7-1.29a1.31,1.31,0,0,1-.7.24h-.12c-.23-.08-.35-.32-.35-.71,0-.06,0-.29.12-.7-.47,0-.71-.2-.71-.59a3.06,3.06,0,0,0-.82-1.4c.14-.31.81-.63,2-.94a20.27,20.27,0,0,1,4-1.29c.41.08.64.12.7.12l.12-.24v-.11h-.12a17.47,17.47,0,0,0-6.91,2.22,9.52,9.52,0,0,0-3.28-3.16c0-.16,0-.23-.12-.23A5.45,5.45,0,0,1,63.16,21Zm-.23.58.12.24v.46a.21.21,0,0,1-.24.24H62.7v-.7C62.73,21.63,62.8,21.55,62.93,21.55Zm1.17,17.7v.23c.11,0,.23-.12.35-.35V39h-.11Q64.1,39.06,64.1,39.25ZM69.38,4.32a15.73,15.73,0,0,1,8.9,8,16.63,16.63,0,0,1,1.52,5l-.23.12H76.64l-.47-.59c-.12,0-.28.16-.47.47a.79.79,0,0,0-.35-.11,1.38,1.38,0,0,1-.7.23H72.42a4.31,4.31,0,0,1-1-.35l-.47.12a3,3,0,0,0-2-1.06,34.19,34.19,0,0,0-4.34-2.81v-.12C64.57,12.76,65,12,66,11a8.8,8.8,0,0,1,1-4.1A4.62,4.62,0,0,0,67.27,6a.92.92,0,0,1-.12-.36C68.63,5.61,69.38,5.18,69.38,4.32Zm-3,33.87v.24h.23c.47-.3.71-.5.71-.59H67A2,2,0,0,1,66.33,38.19Zm.35-23.08h.12a7.59,7.59,0,0,1,2.46,1.52c.62,0,1,.19,1.17.59a.21.21,0,0,1-.23.23h-2c-.48,0-.91-.63-1.29-1.88C66.76,15.57,66.68,15.42,66.68,15.11ZM71.25,39.6l.23.12.12-.24v-.12h-.12C71.33,39.4,71.25,39.47,71.25,39.6Zm1-2.81c0,.15.11.23.24.23h.12v-.23Zm.36-6.33v.23h.11a.21.21,0,0,0,.24-.23Zm.58,11.25v.47h.24v-.47Zm6.21-9.14h.12l.12.58v8.32a.21.21,0,0,1-.24.24.84.84,0,0,0-.35-.12,3.23,3.23,0,0,1,.59.82l-.35.24h-.59c-.25,0-.87-.47-1.87-1.41l-2.11-.82v-.35l.93-3.17a4.82,4.82,0,0,1-.58-1.4v-.24c.83-1.09,1.33-1.64,1.52-1.64h1.41l.47.35v-.11a.92.92,0,0,1-.12-.36Q79.45,33,79.45,32.57ZM75.23,25l.59.23V25a.89.89,0,0,1-.12-.35C75.39,24.71,75.23,24.82,75.23,25Zm.71.47v.35h.23v-.12A.21.21,0,0,0,75.94,25.42Zm.23-10.9.24.12h.11v-.35h-.11C76.25,14.32,76.17,14.4,76.17,14.52Zm.47,8.32a5.51,5.51,0,0,1,.12.94A2.94,2.94,0,0,0,76.29,25h.23c.33-.86.61-1.29.82-1.29v-.23C77.22,23.43,77,23.23,76.64,22.84Zm.7,6.56v.24h.12a3,3,0,0,0,.47-.12.94.94,0,0,0,.47.12V29.4Zm0,11.14v.23h.47v-.12Zm.12-14.42h.12c.11,0,.22-.12.35-.35v-.12C77.8,25.65,77.65,25.81,77.46,26.12Zm.82,15v.12c0,.16.12.23.35.23h.12v-.11A.83.83,0,0,1,78.28,41.12ZM79.1,21h.24c.11,0,.22.11.35.35a1.94,1.94,0,0,1-.24.7,6.31,6.31,0,0,1,.24,1.64v2.11c0,.16-.08.23-.24.23a2.42,2.42,0,0,1-.58-1.17A5.59,5.59,0,0,0,79.34,23l-.59-1.76Z"/><path class="cls-2" d="M80,3c0,.23.19.39.59.46l.11.24a.93.93,0,0,0-.11.47c.07,0,.31-.35.7-1.06A16.18,16.18,0,0,0,83,3l.7.11A19.52,19.52,0,0,1,85.78,3h.59a8.79,8.79,0,0,1,1.29.11L87.89,3c.08,0,.12,0,.12.11L89.41,3h4.11c.14,0,.25.19.35.58A4.22,4.22,0,0,1,95.51,3h4.8l.71.11A1.1,1.1,0,0,1,101.6,3c.13,0,.6,0,1.41.11l.23-.11a6.82,6.82,0,0,1,1.64.58v.24c-.23,0-.35,0-.35.11a1,1,0,0,0-.35-.11c-1.09,0-1.64.78-1.64,2.34a4.51,4.51,0,0,0-.82,3.05.91.91,0,0,1,.12.47c-.47.31-.71.58-.71.82h-.47a14.47,14.47,0,0,1-2.81-1.29c-.39-.47-.74-.71-1-.71a5.57,5.57,0,0,0,2.58,2.11,3,3,0,0,1,1.05.71c-.19.62-.34.93-.47.93H92.58v5.39h5.51v.12c0,.16-.67.43-2,.82a21.58,21.58,0,0,0-3.28,3.63,12.74,12.74,0,0,0-2.22,1.88,2.92,2.92,0,0,1-1.29.23h-.71c-.46,0-.7-.43-.7-1.29s-.3-1.4-.7-1.4l-.12-.59.12-.58a21.7,21.7,0,0,0-2-3.52v-.35a1.69,1.69,0,0,0,.35-1.06v-.11c-.66,0-1.36-.51-2.11-1.53V13.7a18.84,18.84,0,0,1,2.81-1.76c1.17-.59,1.76-.94,1.76-1V9.6q.13-.66,2.34-1.29.36-.68,2.58-1.29a2,2,0,0,0,.94.35h.23a7.38,7.38,0,0,0,1.17-.23l.59.11.23-.11a2.13,2.13,0,0,0,.82.35L98,7.37A12.07,12.07,0,0,0,100.08,9v.24h.23q0-.64-2.34-2.46c-.7,0-1.06-.12-1.06-.36l-1.17.12a.89.89,0,0,1-.35-.12,1.78,1.78,0,0,1-.7.24V6.55a2,2,0,0,1-.94.35h-.12V6.67c0-.2.16-.32.47-.35V5.38A.11.11,0,0,0,94,5.26l.36-.7V4.09H94c0,.47-.15.7-.46.7l.11.24c0,.84-.74,1.43-2.22,1.76l-1.29.7c-.07.25-.81.56-2.23.94h-.35c-.39,0-.63-.16-.7-.47l-1.76.23a.94.94,0,0,0-.35-.12.94.94,0,0,1-.35.12A1.93,1.93,0,0,0,83.67,8v.23c.39,0,.59.13.59.35v.12c0,.39-.12.59-.35.59v.23c0,.08,0,.12.11.12a3.27,3.27,0,0,1-.93,1.87v.12h.11a.94.94,0,0,1,.35-.12,1.88,1.88,0,0,1,.24.94q-.89,0-1.29,2.58l-.47.12a4.28,4.28,0,0,0-1.52-.82,1.08,1.08,0,0,1-.35.11l.23-.35h-.12l-.58.12V6.9l.11-.7a1.26,1.26,0,0,1-.11-.59V4.56c0-.08,0-.12.11-.12l-.11-.23V3.39C79.69,3.28,79.8,3.16,80,3Zm1.41,11.83c.2.41.43.64.7.7a17.27,17.27,0,0,1,2.23-.23,2.47,2.47,0,0,0,.93.35,12.76,12.76,0,0,0-.47,1.41,10.39,10.39,0,0,1,2.35,4.69c.2,0,.44.82.7,2.46l-.23.11H87l-.82.12a.2.2,0,0,0-.23-.23h-.12l.24.35v.12a1.67,1.67,0,0,0-.59,1.05c0,.13.16.28.47.47H86l-.12-.82a2.83,2.83,0,0,1,1.29-.7h1.4a1.67,1.67,0,0,0,1.29,1.75H90v-.11q-1.17-.48-1.17-1.29v-.24H89a1.09,1.09,0,0,1,.58.12c1.47,0,2.37-.31,2.7-.94.07-.44.66-.86,1.75-1.29a2.09,2.09,0,0,1,1.18-1.87,9.28,9.28,0,0,1,2-1.76A7.42,7.42,0,0,0,99,18.5h.24c.11,0,.22.12.35.36a8.55,8.55,0,0,0-.23,1.75c.1,0,.22.12.35.36,0,1.4-.59,2.1-1.76,2.1-.78.11-1.17.31-1.17.59H97a18,18,0,0,1,2.35-.47c.12,1.17.43,1.76.93,1.76,0,.23.08.35.24.35a.91.91,0,0,1,.47-.12,7.07,7.07,0,0,1,.93,1.64l-.23.12H96.56a.81.81,0,0,0-.47-.23,1.38,1.38,0,0,1-.7.23H92.81v3.28c0,.11-.11.23-.35.35a2,2,0,0,1,.35.94v.12l-.11.7c.1.55.26.82.46.82A9,9,0,0,1,94.45,33h.24l.7.11.24-.11a.1.1,0,0,1,.11.11l.59-.11h3.75c0,.51-.35,1-1.06,1.4l-.23.47A6.43,6.43,0,0,0,99.14,36l-1.76.82-1.52-.24a.11.11,0,0,1-.12.12v-.12a6.14,6.14,0,0,1-1.17.59l-1.52-.24a8.65,8.65,0,0,1-1.17.24v.23H92l.59-.12a3,3,0,0,1,.23.82h.12v-.35a.84.84,0,0,1-.12-.35,1.41,1.41,0,0,1,.71-.23c0,.15,0,.23.11.23l.24-.12a1.31,1.31,0,0,0,.7.24h.12a13.94,13.94,0,0,1,3.28-.7q0-.24,1.29-.36a4.65,4.65,0,0,1,.35,1.18.84.84,0,0,0-.12.35,2.41,2.41,0,0,1,.47,1.29v.11a.89.89,0,0,0-.35.12l1.64,2.46v.12l-.59.12-.82-.12-.58.12c-.47,0-.71-.12-.71-.36a6.19,6.19,0,0,1-1.75.36h-.24a5.08,5.08,0,0,1-1.29-.12,9.83,9.83,0,0,1-1.52.12H91.17l-.35-.24a6.92,6.92,0,0,0-.94.24h-.47c-.54,0-.86,0-.93-.12a9,9,0,0,1-1.29.12H85.08A4.13,4.13,0,0,1,84,42.06a6,6,0,0,1-1.17.12H80.27c-.11,0-.22-.12-.35-.36V19.91A9,9,0,0,1,80,18.62a1.91,1.91,0,0,1-.12-.94V15.57c0-.39.1-.58.24-.58Q81.18,14.87,81.45,14.87ZM80.63,40.3v.35a.21.21,0,0,0,.23-.23V40.3ZM81,6.67V7h.47c0-.11-.12-.23-.36-.35Zm.47,6.21h.7a.21.21,0,0,0,.23-.23v-.12h-.23C81.68,12.57,81.45,12.69,81.45,12.88Zm.11,16.29h.12l.82-.12v-.23h-.23C81.8,28.86,81.56,29,81.56,29.17Zm.12,10.19v.12a.2.2,0,0,0,.23-.23v-.12C81.76,39.16,81.68,39.24,81.68,39.36Zm1.76-25.31c.2,0,.36.35.47,1.06h-.59c-.11,0-.23-.12-.35-.36v-.11C83.17,14.25,83.33,14.05,83.44,14.05ZM83,28.23v.12c0,.15.12.23.35.23v.35c-.23,0-.35.08-.35.24.31,0,.47.12.47.35h.11c0-.47.08-.7.24-.7H84l.47.35h.35A2.79,2.79,0,0,0,83,28.23Zm.23,8.2v1.18h.12l.12-.82v-.36Zm.24-1.17.11.71h.12l.12-.82a.11.11,0,0,1-.12-.12.21.21,0,0,0,.24-.24v-.23C83.75,34.56,83.59,34.79,83.44,35.26Zm0,3.05v.35h.47v-.12a.21.21,0,0,0-.24-.23ZM85,8.43l.24.11a6.69,6.69,0,0,0,1-.11,1,1,0,0,0,.47.11L87,8.43c.77.32,1.16.6,1.18.82a2.13,2.13,0,0,1-1.88,2.22,8,8,0,0,1-1.87.94L84,11.24a6.24,6.24,0,0,0,.71-1.88c.11,0,.22-.11.35-.35l-.24-.35Zm0,20.74c0,.23.35.43,1.06.58a2.42,2.42,0,0,0,.46-.11,1,1,0,0,0,.47.11V29.4l-.11-.23c-.55,0-.82.12-.82.23a2,2,0,0,0-.94-.23ZM86.13,6.55h-.47v.24l.59.11h.23c.13,0,.29-.15.47-.47a.1.1,0,0,1-.11-.11A1.41,1.41,0,0,1,86.13,6.55Zm.12,26.37V33h.12c.11,0,.38-.28.82-.82V32.1H87C86.81,32.1,86.58,32.37,86.25,32.92Zm.47-4.34v.35a1,1,0,0,1,.35-.11V28.7A.89.89,0,0,1,86.72,28.58Zm.58-14.41-.23.35v.23l.82-.23v-.23Zm-.11,17.58h.47a.21.21,0,0,0-.24-.24C87.27,31.54,87.19,31.62,87.19,31.75Zm.11-25v.35h.12a.21.21,0,0,0,.24-.24l-.24-.11Zm2.82,19.8a3,3,0,0,1,.23,1.29v.35c0,.16-.43.39-1.29.7,0-.2-.15-.32-.47-.35a3.9,3.9,0,0,1-1.17.24v.23h.12l1.52-.12c.13.32.24.47.35.47,0-.2.47-.43,1.41-.7a12.66,12.66,0,0,0-.35-2.11ZM88,5.61v.12h.35l.23-.12a1,1,0,0,1-.11-.35h-.12C88.25,5.26,88.13,5.38,88,5.61ZM89,30a7.13,7.13,0,0,1-.71,1.29,1,1,0,0,0,.71.23c0,.11-.12.23-.36.35a.94.94,0,0,1,.12.47h.12a1.38,1.38,0,0,0,.7-.23,5.31,5.31,0,0,0,1.41.47h.35v-.12c0-.25-.39-.45-1.17-.59v-.23c.31,0,.47-.08.47-.23h-.12l-.47.11c-.78-.19-1.17-.34-1.17-.47a8,8,0,0,1,.23-.93V30Zm.82-25.2V5h.35V4.79Zm.23.94a.11.11,0,0,1,.12.12.84.84,0,0,1,.35-.12V5.38h-.12C90.24,5.38,90.13,5.5,90,5.73Zm.35,25.08h.59a.52.52,0,0,1,.58-.59v-.35C91.13,29.87,90.74,30.18,90.35,30.81Zm0,6.21v.12c.31-.13.47-.24.47-.35h-.23C90.43,36.82,90.35,36.9,90.35,37Zm.47-5.62.23.11a1.22,1.22,0,0,0,.24-.58h-.12C91.06,30.93,91,31.08,90.82,31.4Zm.82-27-.35.71h.23A.76.76,0,0,0,92,4.44Zm0,36.21v.12h.12l1.4-1.05v-.24A2,2,0,0,0,91.64,40.65Zm.12-10.08v.24h.47v-.24Zm.7,4.93.24.11a1,1,0,0,1,.35-.11v-.24H92.7Q92.46,35.31,92.46,35.5Zm.59,5.86v.35h.11a.21.21,0,0,0,.24-.24v-.11Zm.35-6.57c0,.16.11.24.23.24a.21.21,0,0,0,.24-.24v-.23h-.24C93.48,34.59,93.4,34.67,93.4,34.79Zm.12,4.34c0,.16.11.23.23.23s.23-.07.23-.23Zm1,.82a.89.89,0,0,0-.35-.12v.24h.47a7.81,7.81,0,0,0,1.52-.24l.24.35.7-.11V40a1.67,1.67,0,0,1-.82-.35v.12l-.24-.12h-.23A2.21,2.21,0,0,1,94.57,40Zm.12-1.41v.12c0,.16.11.24.23.24l.12-.24v-.12Zm.35-15v.36a4.19,4.19,0,0,1,1,.23l.59-.47c-.16-.31-.27-.47-.35-.47A2.67,2.67,0,0,1,95,23.54Zm.59-19v.12h.23c.16,0,.23-.08.23-.24V4.21H96C95.87,4.21,95.75,4.32,95.63,4.56ZM96,36v.11h.47c.06-.31.37-.47.93-.47,0-.15-.11-.23-.35-.23C96.33,35.55,96,35.75,96,36Zm.7-10.32a2.07,2.07,0,0,1-.35.82h.12c.12,0,.24-.23.35-.7v-.12Zm.7,14.42c.08.23.32.35.71.35h.46c.16-.63.47-.94.94-.94v-.23c-.15,0-.23,0-.23-.12-.19,0-.5.31-.94.94Zm.24-34.92v.11h.58V5Zm.11,30.58V36h.47v-.24ZM98.2,5.85v.23L98.79,6V5.85h-.35a.11.11,0,0,1-.12.12A.11.11,0,0,0,98.2,5.85ZM101.48,33h6.33c.71,0,1.06.62,1.06,1.87-.13,0-.28.16-.47.47v.23c.53-.62.84-.93.94-.93a1,1,0,0,0,.35.11l.23-.11c.56,0,.88.31.94.93a1.31,1.31,0,0,1,.7.24.94.94,0,0,1,.47-.12.74.74,0,0,0,.35.59c-.48,2.89-1.07,4.33-1.75,4.33a9.15,9.15,0,0,1-1.06.35v.12h.12l.7-.12h.24l.23.12c0-.11.19-.3.59-.58h.23c.62,0,.94.23.94.7v.58c0,.11-.12.23-.35.36l-.94-.12a.94.94,0,0,1-.47.12.21.21,0,0,0-.23-.24,1.34,1.34,0,0,1-.71.24h-1v-.47l.35-.59H109a1.81,1.81,0,0,1-1.87,1.06h-.7a.11.11,0,0,1-.12-.12l-.24.12H102.3q-.8,0-1.17-1.41a1.27,1.27,0,0,1-.82-1.29c.19-.86.54-1.29,1.06-1.29,0-.19.66-.3,2-.35v-.23a3,3,0,0,0-.47-.12,14.83,14.83,0,0,1-2.58.47L99.38,35c0-.13.31-.44.93-.94Q100.31,33.21,101.48,33Zm-.93-15.82h8.08l.59,1.17v5.39c0,.7-.63,1-1.88,1a40.49,40.49,0,0,0-4.1,1.53c-1.25-1.88-2.22-2.82-2.93-2.82a1.38,1.38,0,0,1-.23-.7v-.7c.23-1,.35-1.57.35-1.64v-.35a1.41,1.41,0,0,0-.23-.71c0-.08.11-.7.35-1.87Zm.93,21.44v.59h.12a.21.21,0,0,1,.24-.24v-.35ZM107.23,3h4.57c.23,0,.43.62.58,1.87a4,4,0,0,0-.93-.47h-.59v.12c.92,0,1.51.7,1.76,2.11v5.27c0,.11-.12.23-.35.35h-1.76c-.08,0-.12,0-.12-.11l-.23.11h-7.62l-.59-.11v-.12a12.14,12.14,0,0,1,1.41-2V9.83a6.3,6.3,0,0,1,1-3.63,1.88,1.88,0,0,1,.24-.94.91.91,0,0,1-.12-.47c1.41-.15,2.11-.39,2.11-.7V3.15Zm-3.28,35h.11c.16,0,.24-.07.24-.23h-.12C104,37.87,104,38,104,38.07Zm4.45-12.89h.35c.16,0,.23.11.23.24v1.17c0,.11-.11.23-.35.35h-4.22a.21.21,0,0,1-.23-.23,22.54,22.54,0,0,1,3.4-1.29A1.23,1.23,0,0,0,108.4,25.18ZM105.94,3c.15,0,.23.11.23.23l-.23.12a.21.21,0,0,1-.24-.24Zm.47,34.57a1.6,1.6,0,0,1,.93.23.89.89,0,0,1,.12-.35l-.23-.12h-.59C106.48,37.4,106.41,37.48,106.41,37.61Zm2-1.76c-.25.62-.49.94-.7.94V37a5.21,5.21,0,0,0,1-.94.21.21,0,0,0-.23-.23ZM109,33h1.53c.36.54.59.82.7.82h.12a4.76,4.76,0,0,0,1.4-.71l.12.24a6.33,6.33,0,0,1-.94,2c-.23,0-.46-.23-.7-.7l.24-.47-.24-.12c0,.23-.62.35-1.87.35l-.12-.23.12-.59a.87.87,0,0,0-.47-.23A.87.87,0,0,0,109,33Zm-.11,6v.35H109c.16,0,.24-.07.24-.23V39Zm.93-2.58v.12h.47v-.12Zm2.93,2.47h.12v.7l-.12.58h-.11c-.16,0-.24-.07-.24-.23v-.12C112.38,39.25,112.5,38.94,112.73,38.9Z"/><path class="cls-2" d="M130.71,18.74h.07l.82.23a5.66,5.66,0,0,1,2.58-.82c1.72.35,2.58.66,2.58.94L137,19q2.46.38,2.46,1.41a7.82,7.82,0,0,1,.24.94v.35a.11.11,0,0,1-.12.12,2.35,2.35,0,0,1,.47,1.28v.47c.25,0,.6.36,1.05,1.06a1.86,1.86,0,0,1-.23.7,9,9,0,0,1,.12,1.29l-.12.59,1.76.93a2.89,2.89,0,0,0-.94,2.23.74.74,0,0,1-.59.35q0,.24.24.24h.11l.47-.36a1.72,1.72,0,0,1,.47,1.18,18.36,18.36,0,0,1-1.87,3.51,1.44,1.44,0,0,1-.35.94l.11.82c0,.3-.7.61-2.11.94l-1-.94v.12a2.48,2.48,0,0,0,1,1.17q0,2.13-1,2.46c-.25,0-.56.55-.94,1.64a8.88,8.88,0,0,1-4.45,1.06,7.26,7.26,0,0,1-1.88-1.18H129c-.15,0-.23.11-.23.24H130c.47.39.7.7.7.94l-.23.11h-.35q-5.51,0-5.51-.82v-.35c0-.16.51-.31,1.52-.47v.24h.12c.16,0,.23-.12.23-.36a3.46,3.46,0,0,0,1.06.83h.59a.21.21,0,0,0,.23-.24,3.6,3.6,0,0,1-1.88-.7l.47-.59h-.23l-1.52.7a1.05,1.05,0,0,0-.36-.11,1.29,1.29,0,0,1-.58.23c-.08,0-.12.2-.12.59a.89.89,0,0,0,.35.12v.11a.21.21,0,0,1-.23.24c-1.49-.27-2.23-.5-2.23-.71l.12-.23H122l-.7.12c-.47-.21-.7-.36-.7-.47s0-.12.11-.12a.83.83,0,0,1-.11-.35h-.12c0,.31-.12.47-.35.47a15,15,0,0,1-5.39-4.1,2.09,2.09,0,0,0,.93-1.64c.36-.55.6-.82.71-.82v.23h.82c.23-.08.35-.31.35-.7h-.24l-.58.58a1.09,1.09,0,0,1-.12-.58l-.23.11h-.24l-.82-.93v-.24a.84.84,0,0,0,.12-.35,1,1,0,0,0-.59-.12c0,.24-.15.35-.46.35v.12a.89.89,0,0,1,.93.82l.35.47V35l-.35.47h.12l-.12.23.12.59q-.47.93-1.05.93a9.86,9.86,0,0,1-.83-1.17v-.35h.24V35.5l-.24.11h-.11c-.47,0-1-1.48-1.53-4.45a1.23,1.23,0,0,1-.11-.59l.23-.11h.82c0,.23.08.35.24.35h.23c.05-.31.16-.47.35-.47h1.17a.11.11,0,0,1,.12.12l.24-.12H122c.11,0,.23.12.35.35v.24a5.67,5.67,0,0,1-3.16,3.28c-.86.26-1.29.5-1.29.7V35l.12.58h.23a.79.79,0,0,1-.11-.35c0-.37.42-.61,1.28-.7q0-.24.24-.24h.12v.12a1.44,1.44,0,0,1-1.18.82v.24h.12c1-.32,1.52-.78,1.52-1.41a2.37,2.37,0,0,1,1.18-.59l.23.36v.46l-.23.36v.11h.35l.11-.7a1.38,1.38,0,0,1-.23-.7c0-.52.51-1.26,1.52-2.23l.59.47h.35a.11.11,0,0,0,.12-.12q.23,0,1.29,1.53a8.15,8.15,0,0,0,4.8,1.52,15,15,0,0,0,2.93,2l2.93-.82a3.38,3.38,0,0,0,.82.12l.82-.12a10.84,10.84,0,0,0,2,.47,5.2,5.2,0,0,0-3.39-1.05.11.11,0,0,0-.12-.12,3.7,3.7,0,0,1-2.23.58c0,.16-.26.28-.7.36-1.2-.82-1.83-1.32-1.88-1.53v-.12c2.35-.35,3.52-1.17,3.52-2.46V31.4q0-2.58-9.49-4.34a.11.11,0,0,0-.12-.12l.12-.23v-.12c0-.16-.08-.23-.24-.23l-.47.46c-2.59-.57-4.11-1.21-4.54-1.89-.32-.14-.79-.37-1.43-.68V23.9l.58.11c0-.15-.46-.27-1.4-.35-2.74-2.33-4.1-4.48-4.1-6.44-.08,0-.16-.28-.24-.82a3.39,3.39,0,0,1,.71-.94c-.55-.06-.83-.34-.83-.82a.94.94,0,0,0,.12-.35h.24a5.62,5.62,0,0,0,.82.82l-.12.23v.12c.61,0,1.19.51,1.76,1.52l.47.35H117V17.1l-1.52-1.88a.84.84,0,0,0,.12-.35H115c-.86-.58-1.29-1-1.29-1.4l.47-2.35h.24l.35.24h.11c-.31-.32-.46-.55-.46-.71a10.32,10.32,0,0,1,4.45-5.39,19.36,19.36,0,0,1,10-2.93.94.94,0,0,1,.47.12,14.46,14.46,0,0,1,1.64-.12h1.4a1.85,1.85,0,0,1,.94.24.94.94,0,0,1,.47-.12c.28,0,.48.51.59,1.52.62,0,1.09.63,1.4,1.88.25,0,.41.55.47,1.64l-.47.35h-.58a.21.21,0,0,1-.24-.23.92.92,0,0,1,.12-.36,9.69,9.69,0,0,1-.35-2.34h-.24a.3.3,0,0,1-.35.35.94.94,0,0,0,.12.47v.35c.09,0,.29.24.59.71v.82l-.94.7A7.87,7.87,0,0,0,135.7,8c.55.37.82.72.82,1V10l.12.23c-.09,0-.29.24-.59.71v.7l.59.7v.12c0,.41-.27.76-.82,1.06-.08.85-.2,1.28-.35,1.28h-.12q-.24,0-1.17-2.1a6.38,6.38,0,0,0-3.28-1.18h-2c-2,0-2.93.71-2.93,2.11q0,2.65,7.85,4.22c0,.08-.43.27-1.29.59v.11l-.82-.11h-.24A3.32,3.32,0,0,1,130.71,18.74ZM114.26,31v.24a5.25,5.25,0,0,0,1.29,1.4v-.11A4.13,4.13,0,0,0,114.26,31Zm.82-21.32L115,10v.12h.47C115.43,10,115.31,9.84,115.08,9.72Zm.23,1.4-.11.24c.15,0,.23.11.23.23v.12a5.83,5.83,0,0,0-.23.94v.11h.11c0-.29.43-.76,1.29-1.4l-.47-.12c0,.11-.11.23-.35.35h-.23C115.55,11.28,115.47,11.12,115.31,11.12ZM116.25,31v.12c.39.34.59.54.59.59v.35l-.24.35v.12H117V31.51C117,31.39,116.72,31.23,116.25,31Zm.23,2.11c0,.19.28.31.82.35C117.3,33.32,117,33.2,116.48,33.15ZM119.06,9a.79.79,0,0,0-.35-.11,3.48,3.48,0,0,1-1.29.46,8,8,0,0,1-.58,1.29h-.12v.24h.35c.36-1.1,1-1.64,1.76-1.64a5,5,0,0,0,1.29-.35l.58.11c0-.08-.19-.23-.58-.47Zm-2-1.17V8h.47V7.49h-.12C117.31,7.49,117.2,7.61,117.07,7.84Zm2.67,10.69.19-.24a4.14,4.14,0,0,1-.75.1,6.26,6.26,0,0,1-1.64-1.17,1,1,0,0,1-.35.11v.12l1.64,1.17ZM118.24,6a4,4,0,0,1-.7,1.4h.12q.18,0,1-1.17V6.08A1,1,0,0,1,118.24,6Zm.59-.36h.23c.16,0,.24-.07.24-.23V5.26C119,5.37,118.83,5.49,118.83,5.61ZM119,35.73l-.12.59v.11h.23l.12-.7Zm.86-11.48c0-.07-.1-.14-.16-.24v.24Zm.71-6.31.3,0h.47l.23.12c0-.1.35-.33,1.06-.71a1.92,1.92,0,0,0,.94.35c.15,0,.23,0,.23-.11l2.81.23a.94.94,0,0,1,.35-.12,6.67,6.67,0,0,0,2.46,1.53c.38-.17.68-.3.9-.38a23.43,23.43,0,0,1-2.07-1.15,1.31,1.31,0,0,0-.82-.35l-.23.12a1,1,0,0,0-.94,0,5,5,0,0,0-1.29-.23l-.7.11a1.31,1.31,0,0,0-.59-.23v-.7a1.11,1.11,0,0,1,.12-.59l-.12-.7A6.51,6.51,0,0,0,124,13.7v-.82a1.38,1.38,0,0,0,.47-.94v-.12h-.11c0,.33-.24.68-.71,1.06l.12.82a6.17,6.17,0,0,1-.35,1.05l.12,1.41c-.1,0-.25.31-.47.94A17.55,17.55,0,0,0,120.52,17.94Zm.07,4.17V22h0A.16.16,0,0,1,120.59,22.11Zm0,15.85v.11c.29,1.25.53,1.88.7,1.88l-.12.59.12.58h.12c0-.17,0-.6.11-1.29-.31,0-.54-.74-.7-2.22a1.2,1.2,0,0,0,.23-.59C120.85,37,120.69,37.33,120.59,38Zm.46-28.83v.12a1.05,1.05,0,0,1,.36.11h.11V9.25a.89.89,0,0,1-.35-.12Zm.59,28.24H122l.59-.12V37c-.24,0-.35-.08-.35-.23v-.12l.23-.35v-.24h-.12C122.23,36.1,122,36.53,121.64,37.37ZM122,9.6h.12l1-.12V9.13h-.11C122.34,9.35,122,9.5,122,9.6Zm.47,14.06v.12l.47.12.12-.24Zm2.11,13a.21.21,0,0,1-.23.23,9,9,0,0,0-1.29-.11,5.78,5.78,0,0,1-.47,1.17h.11c.24-.55.94-.82,2.11-.82.39,0,.59-.08.59-.24A1.49,1.49,0,0,1,124.57,36.67Zm-1.52,5-.12.23C123.71,41.94,123.75,41.86,123.05,41.71Zm1.17-11.37h.58c.11,0,.23.12.36.35v.47q-.36,0-.36.12c-.62-.24-.93-.47-.93-.71Zm-.12-6.91v.23h.35a.2.2,0,0,0-.23-.23Zm.59.11c0,.13.27.28.82.47h.11V23.9A3,3,0,0,0,124.69,23.54Zm0,11.61c.15,0,.23.1.23.23l-.12.23h.12c.14,0,.38-.27.7-.82v-.23C125,34.86,124.69,35.05,124.69,35.15Zm.7-1.88v.12l.12.7h.11v-.35a1,1,0,0,1-.11-.47Zm.23-22.73v.35h.12l.35-.24h.59v-.23h-.12Zm0,26.6h.12c1.1-.28,1.64-.52,1.64-.71a.21.21,0,0,0-.23-.23H127ZM126,24c0,.16.11.24.23.24h.12V24Zm.58-16.87v.35a7.22,7.22,0,0,0,.94,1V8.31a2.42,2.42,0,0,1-.7-1.41Q126.56,6.94,126.56,7.14Zm.82,2.34a1.41,1.41,0,0,1-.35.94v.12h.12c.09,0,.37-.32.82-.94ZM127,24.6v.58h.24v-.35A.21.21,0,0,0,127,24.6Zm.94,1v.12a1.06,1.06,0,0,1,.58.35h.12V26c0-.14-.19-.25-.58-.35Zm.35-3.4v.36h.35v-.36Zm.35,18.52v.12h.12a4.63,4.63,0,0,0,.47-1.17v-.24C129,39.48,128.84,39.91,128.67,40.77Zm.12-31.52H129a3.67,3.67,0,0,1,1.41-.47.94.94,0,0,0,.47.12.84.84,0,0,1,.35-.12V8.66h-.59C129.41,8.71,128.79,8.9,128.79,9.25Zm.12,29.41A1,1,0,0,1,129,39h.12l.23-.82h-.11C129.07,38.19,129,38.35,128.91,38.66Zm.23-34.92v.12h.23a.21.21,0,0,0,.24-.24V3.39h-.12C129.38,3.39,129.27,3.5,129.14,3.74Zm0,32.58v.23a.84.84,0,0,1,.35.12,1.15,1.15,0,0,1,.59-.94v-.12h-.24C129.73,35.61,129.5,35.85,129.14,36.32Zm.35-9.73.12.23v.12l-.12.24.24.11.11-.23v-.47Zm0,10.55v.35c0,.16.11.23.24.23v-.35A.21.21,0,0,0,129.49,37.14Zm.7-1.88v.24h.59l.59-.12v-.12Zm.47-9.49-.23.35v.12l.59-.12C131,26,130.9,25.9,130.66,25.77Zm.12-21v.47H131l.11-.58V4.56H131C130.86,4.59,130.78,4.67,130.78,4.79Zm1.06,2.82V8c.93-.17,1.4-.37,1.4-.59h-.12Zm.23,16.75-.12.24.24.12.11-.24ZM133.48,7v.12a1.18,1.18,0,0,0,.7-.59h-.12C133.7,6.71,133.51,6.86,133.48,7Zm.11,19.57h.24c.15,0,.27-.27.35-.82h-.12C133.91,25.77,133.75,26,133.59,26.59ZM134.77,2.8h.46a10.61,10.61,0,0,1,4.46,1.41v.11h-.24v.24l1.06-.12a14.82,14.82,0,0,1,2.69,2.11v.12a8.8,8.8,0,0,0-2.34,2.46,1.2,1.2,0,0,1-.59.23L140,9.25a1,1,0,0,1-.47.11,2.27,2.27,0,0,1-.7-.46h-.12v.46l.82.24h.35c.55,0,.82-.08.82-.24l.94.71h.12a.21.21,0,0,0,.23-.24V9.72c-.2,0-.44-.24-.7-.71a4.14,4.14,0,0,1,2.46-2c1.8,2.31,2.69,3.91,2.69,4.8l-.82.24a4.34,4.34,0,0,1-1-.7h-.47a.94.94,0,0,1-.12.35,7.47,7.47,0,0,0,2.11.58l.47-.11a5.69,5.69,0,0,1,.59,2.46l-.24.11a3.31,3.31,0,0,1-.82-.11,9.81,9.81,0,0,1-1.52.11h-.12c-.08,0-.12,0-.12-.11l-.23.11c-.08,0-.12,0-.12-.11l-.23.11h-2.35l-.35-.23a2.61,2.61,0,0,0,.24-.82l-.24-.12a1.19,1.19,0,0,1-.58,1.17h-.35c-.32,0-.47,0-.47-.11l-.82.11h-2a.74.74,0,0,1-.46-.7,3.68,3.68,0,0,0,.93-1.52v-.24a2.14,2.14,0,0,1-.7-1.17c.47-1.4,1.09-2.11,1.88-2.11V8.9c-.55-.27-.83-.5-.83-.71V8h-.46c-.47,0-.71-.16-.71-.47a1.24,1.24,0,0,0,.24-.59.21.21,0,0,1-.24-.23V6.08l.12-.23c-.2,0-.4-.2-.59-.59.55-.14.82-.29.82-.47h-.82l-.23.12c0-.28-.43-.91-1.29-1.87Q134.57,2.8,134.77,2.8Zm.23,22-.35.59h.23c.11,0,.23-.12.35-.35S135.16,24.83,135,24.83ZM134.88,9.6v.23h.59a.21.21,0,0,0,.23-.23l-.11-.24A1.81,1.81,0,0,1,134.88,9.6Zm.82,15.58v.12h.24a.21.21,0,0,0,.23-.23v-.24h-.12C135.94,24.83,135.83,25,135.7,25.18Zm.82-.93h.24l.58-.12v-.35H137C136.87,23.78,136.71,23.93,136.52,24.25Zm0,1.29v.11h.12c2-.5,3.38-.89,4.22-1.17v-.12h-.12A13.35,13.35,0,0,0,136.52,25.54Zm.82-17.23.24.47c-.1.39-.21.58-.35.58s-.27-.23-.47-.7V8.43ZM137,6.9l.24.12h.35c.12,0,.28-.16.47-.47V6.43c-.16,0-.24-.11-.24-.35h-.23A1,1,0,0,0,137,6.9Zm4.34,31.29a13.06,13.06,0,0,0,2.46,1.41,12.62,12.62,0,0,1-5.27,2.81l-.12-.23c.09-.71.37-1.06.82-1.06s.47-.24.47-.35v-.23a.91.91,0,0,0-.12-.47c.45-1.17.8-1.76,1.05-1.76C141.09,38.31,141.33,38.27,141.33,38.19Zm-2.81-26.25v.12h.11c.13,0,.28-.16.47-.47v-.23H139C138.87,11.36,138.72,11.55,138.52,11.94ZM139,7.72l-.11.24v.11c0,.16.11.24.23.24h.12V8A.21.21,0,0,0,139,7.72Zm.12,17.93-.12.24.24.11.12-.23ZM139.1,6c.08,0,.12,0,.12.11l.23-.11h.82V5.5C139.49,5.65,139.1,5.81,139.1,6Zm.59,1.64v.23H140V7.61Zm1.4,5.27v.23c.16,0,.24-.07.24-.23v-.23C141.17,12.68,141.09,12.75,141.09,12.88Zm.12,7.27h.12a13,13,0,0,1,4.33,2.92,4.34,4.34,0,0,1-3,.94,7.58,7.58,0,0,1-1.41-2.81Zm4.92,3.63c.55,0,1.21,1.33,2,4l.24,1.53a.94.94,0,0,1-.12.35,3.31,3.31,0,0,1,.12.82c0,1.64-.24,2.46-.7,2.46v.23h.23v.24q0,2.37-3.52,5.86h-.11a3.69,3.69,0,0,0-2.46-1.06v-.35a.46.46,0,0,0,.35-.23l-.24-.47a9.39,9.39,0,0,1,2.58-4.81h.35v-.11c-.47,0-.7-.12-.7-.36V31.4c0-.4.12-.59.35-.59v-.12c-.47,0-.7-.19-.7-.58l-.12-.47a3.5,3.5,0,0,1,.7-1.17v-.36c0-.12-.54-.43-1.64-.93a2.51,2.51,0,0,0-.23-.82,3.44,3.44,0,0,1,1.05-1.76.11.11,0,0,0,.12-.12l.59.12A3.42,3.42,0,0,0,146.13,23.78Zm-4-14.18v.23h.35a.2.2,0,0,0,.23-.23c0-.16-.07-.24-.23-.24h-.12C142.23,9.4,142.15,9.47,142.15,9.6Zm.23,27.77v.12c0,.16.11.23.24.23h.11v-.35Zm.94-27.77v.12c0,.15.11.23.23.23l.24-.35Zm0,.7v.47l.47.12v-.24c0-.11-.12-.22-.35-.35Zm.94-.23v.11c0,.16.11.24.23.24h.35v-.35Zm.82,22.15c0,.15.11.23.23.23h.24c0-.16-.08-.23-.24-.23Zm1.64,0v.11c0,.11.19.27.58.47h.12v-.12c-.23-.2-.35-.36-.35-.46Zm.82-4.93-.35.71a.79.79,0,0,1,.11.35h.24a4.07,4.07,0,0,1,.23-1.06Z"/><path class="cls-3" d="M180.89,42.72H177.7c-.6,0-.9,0-1.3-.62L167.48,28h-1.3c-1.65,0-2.84-.05-5.49-.14v14a.92.92,0,0,1-.89.95h-2.7a.93.93,0,0,1-.89-.95V8.55c0-.66.3-1,1.19-1,2.15-.24,5.89-.38,8.78-.38,7.88,0,14,2.51,14,10.2v.33c0,5.32-3.29,8.45-7.83,9.59l9.08,14.42a.77.77,0,0,1,.15.43A.62.62,0,0,1,180.89,42.72Zm-5.24-25.39c0-4.75-3.24-6.31-9.47-6.31-1.55,0-4.29,0-5.49.14v13c2.2.05,4.34.1,5.49.1,6.13,0,9.47-1.47,9.47-6.6Z"/><path class="cls-3" d="M208.42,42.72h-2.75a.93.93,0,0,1-.9-.95V27.72H189.52V41.77a.93.93,0,0,1-.9.95h-2.74a1,1,0,0,1-.9-.95V17c0-7.26,3.54-9.82,10.72-9.82h2.89c7.13,0,10.72,2.56,10.72,9.82V41.77A1,1,0,0,1,208.42,42.72ZM204.77,17c0-4.93-1.64-6-6.18-6H195.7c-4.54,0-6.18,1.1-6.18,6v7h15.25Z"/><path class="cls-3" d="M235.24,42.43a41.11,41.11,0,0,1-8.27.62c-6.14,0-13.17-3.13-13.17-14.66v-6.6c0-11.63,7-14.66,13.17-14.66a55.17,55.17,0,0,1,8.37.76c.45,0,.8.19.8.61v2.42c0,.29-.1.53-.6.53h-.15C233.6,11.3,229.91,11,227,11c-4.89,0-8.68,2.7-8.68,10.77v6.6c0,8,3.79,10.77,8.68,10.77,2.84,0,6.43-.24,8.22-.38h.2c.55,0,.8.24.8.76v2C236.24,42.05,235.79,42.34,235.24,42.43Z"/><path class="cls-3" d="M243.62,42.72h-2.74a.93.93,0,0,1-.9-.95V8.36a.88.88,0,0,1,.9-.9h2.74a.88.88,0,0,1,.9.9V41.77A.93.93,0,0,1,243.62,42.72Z"/><path class="cls-3" d="M275.13,42.72h-2.79a.89.89,0,0,1-.85-.95v-21c0-8.25-3-9.91-9.17-9.91-2.15,0-6.13.19-7.38.28V41.77a.93.93,0,0,1-.9.95H251.3a.9.9,0,0,1-.9-.95V9.31c0-1.19.4-1.52,1.4-1.66a100.85,100.85,0,0,1,10.62-.57c9,0,13.61,3.23,13.61,13.71v21A.93.93,0,0,1,275.13,42.72Z"/><path class="cls-3" d="M302.86,42.34a59.59,59.59,0,0,1-9.92.71c-6.24,0-12.92-3.89-12.92-14.76V21.93c0-11.53,7-14.8,13.36-14.8a61.25,61.25,0,0,1,9.48.66c.45,0,.85.24.85.71v2.38c0,.33-.2.47-.65.47h-.2c-2.94-.24-5.24-.33-9.48-.33-4.63,0-8.82,2.37-8.82,10.91v6.36c0,7.83,3.74,10.92,8.38,10.92,3,0,5.08-.19,6.28-.29V25.35a.9.9,0,0,1,.9-1h2.69a1,1,0,0,1,.95,1V41.29A1,1,0,0,1,302.86,42.34Z"/><path class="cls-3" d="M339.41,42.62a86.83,86.83,0,0,1-9.72.43c-5.34,0-10.63-1-10.63-8.83V8.41a1,1,0,0,1,1-1h2.54a1,1,0,0,1,1,1V34.22c0,3.61.85,4.94,6.14,4.94h9.62a.52.52,0,0,1,.55.57V42A.67.67,0,0,1,339.41,42.62Z"/><path class="cls-3" d="M362.65,42.81c-1.9.19-6.79.24-9.73.24-7,0-10.62-2.51-10.62-8.83V16c0-6.31,3.64-8.82,10.62-8.82,2.94,0,7.63.09,9.73.28a.68.68,0,0,1,.5.67v2.37a.52.52,0,0,1-.55.57H353c-5.28,0-6.13,1.33-6.13,4.93v6.6h15.31a1,1,0,0,1,1,.95v1.8a1,1,0,0,1-1,.95H346.84v8c0,3.61.85,4.94,6.13,4.94h9.63a.52.52,0,0,1,.55.57v2.42A.67.67,0,0,1,362.65,42.81Z"/><path class="cls-3" d="M390.82,42.72h-2.74a.93.93,0,0,1-.9-.95V27.72H371.92V41.77a.93.93,0,0,1-.9.95h-2.74a1,1,0,0,1-.9-.95V17c0-7.26,3.54-9.82,10.72-9.82H381c7.13,0,10.72,2.56,10.72,9.82V41.77A1,1,0,0,1,390.82,42.72ZM387.18,17c0-4.93-1.65-6-6.18-6h-2.9c-4.53,0-6.18,1.1-6.18,6v7h15.26Z"/><path class="cls-3" d="M418.94,42.34a59.49,59.49,0,0,1-9.92.71c-6.23,0-12.91-3.89-12.91-14.76V21.93c0-11.53,7-14.8,13.36-14.8a61,61,0,0,1,9.47.66c.45,0,.85.24.85.71v2.38c0,.33-.2.47-.65.47h-.2c-2.94-.24-5.23-.33-9.47-.33-4.64,0-8.83,2.37-8.83,10.91v6.36c0,7.83,3.74,10.92,8.38,10.92,3,0,5.09-.19,6.28-.29V25.35a.9.9,0,0,1,.9-1h2.69a1,1,0,0,1,.95,1V41.29A1,1,0,0,1,418.94,42.34Z"/><path class="cls-3" d="M449.06,42.53a100.85,100.85,0,0,1-10.62.57c-9,0-13.61-3.23-13.61-13.72v-21a.92.92,0,0,1,.9-1h2.79a.89.89,0,0,1,.85,1v21c0,8.26,3,9.92,9.17,9.92,2.15,0,6.13-.19,7.38-.28V8.41a.92.92,0,0,1,.9-1h2.74a.9.9,0,0,1,.9,1V41C450.46,42.2,450.06,42.39,449.06,42.53Z"/><path class="cls-3" d="M476.19,42.81c-1.9.19-6.78.24-9.73.24-7,0-10.62-2.51-10.62-8.83V16c0-6.31,3.64-8.82,10.62-8.82,3,0,7.63.09,9.73.28a.68.68,0,0,1,.5.67v2.37a.52.52,0,0,1-.55.57h-9.63c-5.28,0-6.13,1.33-6.13,4.93v6.6h15.31a1,1,0,0,1,1,.95v1.8a1,1,0,0,1-1,.95H460.38v8c0,3.61.85,4.94,6.13,4.94h9.63a.52.52,0,0,1,.55.57v2.42A.67.67,0,0,1,476.19,42.81Z"/></g></g></svg>