<svg xmlns="http://www.w3.org/2000/svg" viewBox="0 0 299.82 73.78"><defs><style>.cls-1{fill:#f90;}.cls-1,.cls-2{stroke:#000;stroke-miterlimit:10;}.cls-2{fill:#96999b;}</style></defs><title>Asset 5</title><g id="Layer_2" data-name="Layer 2"><g id="Layer_1-2" data-name="Layer 1"><path class="cls-1" d="M12.57,27a2.22,2.22,0,0,0,1.22.68,55.91,55.91,0,0,0,8,.55,43.37,43.37,0,0,0,8-.79l-2.55,8.88a76.62,76.62,0,0,1-20,.43A6.46,6.46,0,0,1,3.54,35.3a8,8,0,0,1-2.13-3,12.67,12.67,0,0,1-.87-3.84,15.45,15.45,0,0,1,.2-3.89c.25-1.35.57-2.88,1-4.61a52.59,52.59,0,0,1,1.46-5.26,46.64,46.64,0,0,1,2.09-5.2A21.32,21.32,0,0,1,8.1,4.94a13.69,13.69,0,0,1,3.77-3.19,9.55,9.55,0,0,1,4.8-1.2H37.89L35.3,9.14H19.41a2.46,2.46,0,0,0-1.35.41,2.87,2.87,0,0,0-1,1A38.52,38.52,0,0,0,13.84,18a39.47,39.47,0,0,0-1.68,7.89A1.35,1.35,0,0,0,12.57,27Z"/><path class="cls-1" d="M52.19,26.28H45.57L42.49,36.45H32.13L42.93.69H61a14.3,14.3,0,0,1,3.65.48,10.12,10.12,0,0,1,3.26,1.49A8.19,8.19,0,0,1,70.29,5.2a7,7,0,0,1,.91,3.6,20.21,20.21,0,0,1-.79,5.57A18.62,18.62,0,0,1,68,19.51a21.13,21.13,0,0,1-2.62,3.29,13.12,13.12,0,0,1-3.33,2.52l3.65,11.13H55.65Zm.86-7.35a10.81,10.81,0,0,0,2.24-.19,5.21,5.21,0,0,0,1.48-.53,3.85,3.85,0,0,0,1-.79l.84-.94a8.74,8.74,0,0,0,1.71-2.68,8.43,8.43,0,0,0,.6-3.17,3.72,3.72,0,0,0-.22-1.2,3.83,3.83,0,0,0-.6-1.13,3.08,3.08,0,0,0-.94-.82A2.48,2.48,0,0,0,58,7.17H51.33L47.77,18.93Z"/><path class="cls-1" d="M80.32.69H91L80.22,36.45H69.37Z"/><path class="cls-1" d="M123.33,9.14H114.4l-8.26,27.31H95.29l8.36-27.31a45.77,45.77,0,0,0-6.08.17,14.78,14.78,0,0,0-3.79.84,7.3,7.3,0,0,0-2.33,1.39,17.39,17.39,0,0,0-1.63,1.78.55.55,0,0,1-.6.19c-.24-.07-.33-.21-.26-.43A61.75,61.75,0,0,1,92.08,7.7a16.24,16.24,0,0,1,3.57-4,14.07,14.07,0,0,1,4.85-2.42,24.27,24.27,0,0,1,7-.77V.64h18.43Z"/><path class="cls-1" d="M151.41,21.43H137.87c-.16.73-.35,1.47-.58,2.21a14.44,14.44,0,0,0-.48,2.2,1.61,1.61,0,0,0,.44,1.3,1.88,1.88,0,0,0,1.19.72,45.12,45.12,0,0,0,8.21.5,50.94,50.94,0,0,0,8.12-.88l-2.55,8.88a77,77,0,0,1-20.06.43,6.46,6.46,0,0,1-3.68-1.49,8,8,0,0,1-2.13-3,12.08,12.08,0,0,1-.84-3.84,15.9,15.9,0,0,1,.22-3.89,62.62,62.62,0,0,1,1.75-7.18A61.85,61.85,0,0,1,130,10.48a10,10,0,0,1-1.41.39,13.8,13.8,0,0,0-1.54.38,8.34,8.34,0,0,0-1.63.7,6.77,6.77,0,0,0-1.7,1.37.44.44,0,0,1-.24.14.55.55,0,0,1-.53,0,.25.25,0,0,1-.14-.4A30.19,30.19,0,0,1,126.13,8a20.75,20.75,0,0,1,4.16-4,18.17,18.17,0,0,1,5.11-2.57,20,20,0,0,1,6.21-.91h20.64l-2.59,8.59H144.4a2.21,2.21,0,0,0-1.59.6,6.09,6.09,0,0,0-1.08,1.46,18.27,18.27,0,0,0-.81,1.8,7.14,7.14,0,0,1-.84,1.61c.29,0,.63,0,1-.07s1,0,1.94,0,2.22,0,3.87,0,3.84,0,6.6,0Z"/><path class="cls-1" d="M177.76,26.28h-6.63l-3.07,10.17H157.69L168.49.69h18.1a14.36,14.36,0,0,1,3.65.48,10.22,10.22,0,0,1,3.26,1.49,8.16,8.16,0,0,1,2.35,2.54,6.93,6.93,0,0,1,.91,3.6,19.83,19.83,0,0,1-.79,5.57,18.89,18.89,0,0,1-2.37,5.14A21.13,21.13,0,0,1,191,22.8a13.17,13.17,0,0,1-3.34,2.52l3.65,11.13H181.21Zm.86-7.35a10.64,10.64,0,0,0,2.23-.19,5.28,5.28,0,0,0,1.49-.53,3.85,3.85,0,0,0,1-.79l.84-.94a8.9,8.9,0,0,0,1.7-2.68,8.43,8.43,0,0,0,.6-3.17,3.7,3.7,0,0,0-.21-1.2,4.36,4.36,0,0,0-.6-1.13,3.08,3.08,0,0,0-.94-.82,2.54,2.54,0,0,0-1.22-.31h-6.63l-3.55,11.76Z"/><path class="cls-1" d="M205.88.69h10.71l-10.8,35.76H194.94Z"/><path class="cls-1" d="M231.61.55,223.88,26a2.14,2.14,0,0,0,0,1.63,2.72,2.72,0,0,0,1,1.13,5.37,5.37,0,0,0,1.68.69,20.49,20.49,0,0,0,2,.39c.73-.07,1.44-.16,2.11-.29a8.93,8.93,0,0,0,1.92-.6,5.79,5.79,0,0,0,1.63-1.08,5.93,5.93,0,0,0,1.25-1.73L243.28.55a.27.27,0,0,1,.19-.05h10.8l-8.88,29.23a11,11,0,0,1-3.77,4.11,18.14,18.14,0,0,1-5,2.16,27.5,27.5,0,0,1-5.38.84c-1.81.09-3.45.14-4.92.14-1.09,0-2.21,0-3.36-.07a21.88,21.88,0,0,1-3.31-.39,13.54,13.54,0,0,1-2.95-.91A6.76,6.76,0,0,1,214.4,34a6,6,0,0,1-1.32-2.54,9.05,9.05,0,0,1,0-3.68L221.44.55Z"/><path class="cls-1" d="M271.35,28.68H269l-3.26-17.09-7.49,24.86H247.64L258.39.69h10.76a5.83,5.83,0,0,1,1.73.27,5.63,5.63,0,0,1,1.58.76,5.27,5.27,0,0,1,1.22,1.18,3.94,3.94,0,0,1,.7,1.54l1.58,8.2L282.83,4a9.11,9.11,0,0,1,3-2.42A8.09,8.09,0,0,1,289.5.69h9.65L288.44,36.45H277.69L285.08,12Z"/><path class="cls-2" d="M24.8,72.93H21.86c-.55,0-.83,0-1.19-.57l-8.22-13H11.26c-1.52,0-2.62-.05-5-.13V72.06a.85.85,0,0,1-.83.87H2.9a.84.84,0,0,1-.82-.87V41.49c0-.61.27-.88,1.1-1,2-.22,5.41-.35,8.08-.35,7.25,0,12.85,2.31,12.85,9.38v.31c0,4.89-3,7.77-7.21,8.82L25.26,72a.67.67,0,0,1,.13.39A.56.56,0,0,1,24.8,72.93ZM20,49.56c0-4.36-3-5.8-8.72-5.8-1.43,0-3.95,0-5,.13v12c2,0,4,.09,5.05.09,5.64,0,8.72-1.35,8.72-6.07Z"/><path class="cls-2" d="M50.13,72.93H47.61a.85.85,0,0,1-.83-.87V59.13H32.73V72.06a.85.85,0,0,1-.82.87H29.38a.87.87,0,0,1-.82-.87V49.22c0-6.69,3.26-9,9.87-9h2.66c6.56,0,9.87,2.35,9.87,9V72.06A.88.88,0,0,1,50.13,72.93ZM46.78,49.22c0-4.55-1.52-5.55-5.69-5.55H38.43c-4.18,0-5.7,1-5.7,5.55v6.42H46.78Z"/><path class="cls-2" d="M74.82,72.67a38.11,38.11,0,0,1-7.62.56c-5.64,0-12.12-2.88-12.12-13.49V53.67c0-10.7,6.48-13.49,12.12-13.49a51.3,51.3,0,0,1,7.71.7c.42,0,.74.17.74.56v2.23c0,.26-.09.48-.55.48H75c-1.65-.13-5-.39-7.71-.39-4.5,0-8,2.49-8,9.91v6.07c0,7.34,3.49,9.91,8,9.91,2.61,0,5.92-.21,7.57-.35H75c.51,0,.74.22.74.7v1.79C75.74,72.32,75.33,72.58,74.82,72.67Z"/><path class="cls-2" d="M82.53,72.93H80a.85.85,0,0,1-.82-.87V41.31a.81.81,0,0,1,.82-.83h2.53a.82.82,0,0,1,.83.83V72.06A.86.86,0,0,1,82.53,72.93Z"/><path class="cls-2" d="M111.54,72.93H109a.81.81,0,0,1-.78-.87V52.75c0-7.6-2.76-9.12-8.45-9.12-2,0-5.65.17-6.79.26V72.06a.85.85,0,0,1-.83.87H89.6a.82.82,0,0,1-.83-.87V42.19c0-1.1.37-1.4,1.29-1.53a92.66,92.66,0,0,1,9.77-.53c8.26,0,12.53,3,12.53,12.62V72.06A.85.85,0,0,1,111.54,72.93Z"/><path class="cls-2" d="M137.05,72.58a54.91,54.91,0,0,1-9.13.65c-5.74,0-11.89-3.58-11.89-13.58V53.8c0-10.61,6.43-13.62,12.3-13.62a55.82,55.82,0,0,1,8.72.61c.42,0,.78.22.78.65v2.19c0,.3-.18.43-.59.43h-.19c-2.71-.22-4.82-.3-8.72-.3-4.27,0-8.12,2.18-8.12,10v5.85c0,7.21,3.44,10.05,7.71,10.05,2.8,0,4.68-.18,5.78-.26V57a.83.83,0,0,1,.83-.88H137a.89.89,0,0,1,.87.88V71.62A1,1,0,0,1,137.05,72.58Z"/><path class="cls-2" d="M170.69,72.84a78.93,78.93,0,0,1-8.95.39c-4.91,0-9.77-.91-9.77-8.12V41.36a.9.9,0,0,1,.91-.88h2.34a.9.9,0,0,1,.92.88V65.11c0,3.32.78,4.54,5.65,4.54h8.86a.48.48,0,0,1,.5.53v2A.61.61,0,0,1,170.69,72.84Z"/><path class="cls-2" d="M192.08,73c-1.75.17-6.24.21-9,.21-6.43,0-9.78-2.31-9.78-8.12V48.3c0-5.81,3.35-8.12,9.78-8.12,2.71,0,7,.08,9,.26a.62.62,0,0,1,.46.61v2.18a.49.49,0,0,1-.51.53h-8.86c-4.86,0-5.64,1.22-5.64,4.54v6.07h14.09a.9.9,0,0,1,.92.87V56.9a.91.91,0,0,1-.92.88H177.53v7.33c0,3.32.78,4.54,5.64,4.54H192a.49.49,0,0,1,.51.53V72.4A.64.64,0,0,1,192.08,73Z"/><path class="cls-2" d="M218,72.93h-2.53a.85.85,0,0,1-.82-.87V59.13h-14V72.06a.85.85,0,0,1-.82.87h-2.53a.87.87,0,0,1-.82-.87V49.22c0-6.69,3.26-9,9.87-9H209c6.56,0,9.87,2.35,9.87,9V72.06A.88.88,0,0,1,218,72.93Zm-3.35-23.71c0-4.55-1.52-5.55-5.69-5.55h-2.66c-4.18,0-5.7,1-5.7,5.55v6.42h14Z"/><path class="cls-2" d="M243.89,72.58a54.91,54.91,0,0,1-9.13.65c-5.74,0-11.89-3.58-11.89-13.58V53.8c0-10.61,6.43-13.62,12.3-13.62a55.82,55.82,0,0,1,8.72.61c.42,0,.78.22.78.65v2.19c0,.3-.18.43-.59.43h-.19c-2.7-.22-4.82-.3-8.72-.3-4.27,0-8.12,2.18-8.12,10v5.85c0,7.21,3.44,10.05,7.71,10.05,2.8,0,4.68-.18,5.78-.26V57a.83.83,0,0,1,.83-.88h2.48a.89.89,0,0,1,.87.88V71.62A1,1,0,0,1,243.89,72.58Z"/><path class="cls-2" d="M271.61,72.75a92.66,92.66,0,0,1-9.77.53c-8.26,0-12.53-3-12.53-12.62V41.36a.85.85,0,0,1,.82-.88h2.57a.82.82,0,0,1,.78.88v19.3c0,7.6,2.76,9.12,8.45,9.12,2,0,5.64-.17,6.79-.26V41.36a.85.85,0,0,1,.83-.88h2.52a.83.83,0,0,1,.83.88v30C272.9,72.45,272.53,72.62,271.61,72.75Z"/><path class="cls-2" d="M296.58,73c-1.74.17-6.24.21-8.95.21-6.43,0-9.78-2.31-9.78-8.12V48.3c0-5.81,3.35-8.12,9.78-8.12,2.71,0,7,.08,8.95.26a.62.62,0,0,1,.46.61v2.18a.49.49,0,0,1-.51.53h-8.85c-4.87,0-5.65,1.22-5.65,4.54v6.07h14.09a.9.9,0,0,1,.92.87V56.9a.9.9,0,0,1-.92.88H282v7.33c0,3.32.78,4.54,5.65,4.54h8.85a.49.49,0,0,1,.51.53V72.4A.64.64,0,0,1,296.58,73Z"/></g></g></svg>