<?xml version="1.0" encoding="UTF-8" standalone="no"?>
<!-- Created with Inkscape (http://www.inkscape.org/) -->

<svg
   xmlns:dc="http://purl.org/dc/elements/1.1/"
   xmlns:cc="http://creativecommons.org/ns#"
   xmlns:rdf="http://www.w3.org/1999/02/22-rdf-syntax-ns#"
   xmlns:svg="http://www.w3.org/2000/svg"
   xmlns="http://www.w3.org/2000/svg"
   xmlns:sodipodi="http://sodipodi.sourceforge.net/DTD/sodipodi-0.dtd"
   xmlns:inkscape="http://www.inkscape.org/namespaces/inkscape"
   width="155.88438mm"
   height="15.111977mm"
   viewBox="0 0 155.88438 15.111977"
   version="1.1"
   id="svg8"
   inkscape:version="0.92.4 (5da689c313, 2019-01-14)"
   sodipodi:docname="mountain fuel.svg">
  <defs
     id="defs2" />
  <sodipodi:namedview
     id="base"
     pagecolor="#ffffff"
     bordercolor="#666666"
     borderopacity="1.0"
     inkscape:pageopacity="0.0"
     inkscape:pageshadow="2"
     inkscape:zoom="0.35"
     inkscape:cx="-256.84392"
     inkscape:cy="177.33085"
     inkscape:document-units="mm"
     inkscape:current-layer="g825"
     showgrid="false"
     inkscape:window-width="1920"
     inkscape:window-height="1137"
     inkscape:window-x="1912"
     inkscape:window-y="-8"
     inkscape:window-maximized="1"
     fit-margin-top="0"
     fit-margin-left="0"
     fit-margin-right="0"
     fit-margin-bottom="0" />
  <metadata
     id="metadata5">
    <rdf:RDF>
      <cc:Work
         rdf:about="">
        <dc:format>image/svg+xml</dc:format>
        <dc:type
           rdf:resource="http://purl.org/dc/dcmitype/StillImage" />
        <dc:title></dc:title>
      </cc:Work>
    </rdf:RDF>
  </metadata>
  <g
     inkscape:label="Layer 1"
     inkscape:groupmode="layer"
     id="layer1"
     transform="translate(-23.355431,-180.64014)">
    <g
       transform="matrix(0.35277777,0,0,-0.35277777,23.355431,195.75212)"
       inkscape:label="ink_ext_XXXXXX"
       id="g823"
       style="display:inline">
      <g
         transform="scale(0.1)"
         id="g825">
        <path
           inkscape:connector-curvature="0"
           id="path827"
           style="fill:#7b7979;fill-opacity:1;fill-rule:nonzero;stroke:none"
           d="M 333.168,3.55078 V 256.43 L 241.547,72.582 H 189.199 L 97.582,256.43 V 3.55078 H 0 V 425.969 H 105.914 L 215.367,205.27 325.453,425.969 H 430.75 V 3.55078 h -97.582" />
        <path
           inkscape:connector-curvature="0"
           id="path829"
           style="fill:#7b7979;fill-opacity:1;fill-rule:nonzero;stroke:none"
           d="m 668.121,86.8789 c 67.824,0 101.738,65.4221 101.738,128.5001 0,65.441 -36.89,126.109 -102.332,126.109 -67.824,0 -102.332,-63.656 -102.332,-127.308 0,-64.86 36.293,-127.3011 102.926,-127.3011 z M 465.824,215.379 c 0,111.851 85.668,212.992 202.883,212.992 120.785,0 200.52,-107.691 200.52,-214.769 C 869.227,102.332 784.125,0 666.934,0 546.754,0 465.824,106.5 465.824,215.379" />
        <path
           inkscape:connector-curvature="0"
           id="path831"
           style="fill:#7b7979;fill-opacity:1;fill-rule:nonzero;stroke:none"
           d="m 1182.72,210 v 215.969 h 97.59 V 210 C 1280.31,93.4102 1223.21,0 1092.9,0 957.859,0 905.504,99.3516 905.504,210 v 215.969 h 97.576 V 210 c 0,-64.25 23.78,-123.1211 89.82,-123.1211 67.21,0 89.82,60.6721 89.82,123.1211" />
        <path
           inkscape:connector-curvature="0"
           id="path833"
           style="fill:#7b7979;fill-opacity:1;fill-rule:nonzero;stroke:none"
           d="M 1423.1,245.102 V 3.55078 h -97.56 V 425.969 h 76.15 L 1598.62,177.91 v 248.059 h 97.56 V 3.55078 h -78.53 L 1423.1,245.102" />
        <path
           inkscape:connector-curvature="0"
           id="path835"
           style="fill:#7b7979;fill-opacity:1;fill-rule:nonzero;stroke:none"
           d="M 2084.68,340.32 H 1956.16 V 3.55078 h -97.58 V 340.32 h -129.1 v 85.649 h 355.2 V 340.32" />
        <path
           inkscape:connector-curvature="0"
           id="path837"
           style="fill:#7b7979;fill-opacity:1;fill-rule:nonzero;stroke:none"
           d="M 2451.14,3.55078 V 425.969 h 97.59 V 3.55078 h -97.59" />
        <path
           inkscape:connector-curvature="0"
           id="path839"
           style="fill:#7b7979;fill-opacity:1;fill-rule:nonzero;stroke:none"
           d="M 2705.15,245.102 V 3.55078 h -97.57 V 425.969 h 76.17 L 2880.64,177.91 v 248.059 h 97.62 V 3.55078 h -78.57 L 2705.15,245.102" />
        <path
           inkscape:connector-curvature="0"
           id="path841"
           style="fill:#f68712;fill-opacity:1;fill-rule:nonzero;stroke:none"
           d="M 4214.12,89.2305 V 425.969 h -97.55 V 3.55078 h 255.9 l 46.3,85.67972 z M 3878.57,179.07 h 120.31 l 46.29,79.129 h -166.6 v 82.121 h 147.67 l 46.31,85.649 H 3781.02 V 3.55078 h 250.59 l 46.3,85.67972 H 3878.57 Z M 3638.22,210 c 0,-62.449 -22.62,-123.1211 -89.87,-123.1211 -66.01,0 -89.82,58.8711 -89.82,123.1211 v 215.969 h -97.55 V 210 c 0,-110.6484 52.33,-210 187.37,-210 130.34,0 187.48,93.4102 187.48,210 v 215.969 h -97.61 z m -359.78,130.32 46.28,85.649 H 3037.96 V 3.55078 h 97.59 V 170.16 h 109.56 l 46.34,79.121 h -155.9 v 91.039 h 142.89" />
        <path
           inkscape:connector-curvature="0"
           id="path843"
           style="fill:#7b7979;fill-opacity:1;fill-rule:nonzero;stroke:none"
           d="m 2264.97,425.969 h -79.15 L 2023.4,3.55078 h 103.53 l 98.15,318.89822 48.79,-157.051 h -72.05 l -19.74,-67.2261 h 108.45 l 32.69,-94.62112 h 103.52 L 2264.97,425.969" />
      </g>
    </g>
  </g>
</svg>
